<svg width="141" height="45" viewBox="0 0 141 45" fill="none" xmlns="http://www.w3.org/2000/svg">
<rect y="0.337646" width="140.241" height="43.7631" rx="21.8816" fill="white"/>
<g clip-path="url(#clip0_1_170)">
<path fill-rule="evenodd" clip-rule="evenodd" d="M21.2182 28.8077C22.2383 28.8077 23.139 28.5979 23.9206 28.1783C24.7021 27.7588 25.3149 27.2282 25.7592 26.5865V28.5856H29.2389V14.9133H25.7592V16.8629C25.2985 16.2377 24.6856 15.7195 23.9206 15.3081C23.1555 14.8968 22.2629 14.6912 21.2429 14.6912C20.0747 14.6912 19.0176 14.9791 18.0716 15.5549C17.1255 16.1308 16.3769 16.9534 15.8258 18.0229C15.2746 19.0923 14.999 20.318 14.999 21.7001C14.999 23.0985 15.2746 24.3366 15.8258 25.4143C16.3769 26.4919 17.1255 27.3269 18.0716 27.9192C19.0176 28.5115 20.0665 28.8077 21.2182 28.8077ZM22.1295 25.7713C21.5043 25.7713 20.9161 25.6068 20.365 25.2777C19.8138 24.9487 19.3696 24.4757 19.0323 23.8587C18.695 23.2417 18.5264 22.5219 18.5264 21.6992C18.5264 20.8766 18.695 20.165 19.0323 19.5645C19.3696 18.964 19.8097 18.5074 20.3526 18.1948C20.8956 17.8822 21.4879 17.7259 22.1295 17.7259C22.7712 17.7259 23.3717 17.8863 23.9311 18.2071C24.4905 18.528 24.9347 18.9886 25.2638 19.5892C25.5928 20.1897 25.7574 20.9095 25.7574 21.7486C25.7574 22.5877 25.5928 23.3075 25.2638 23.908C24.9347 24.5086 24.4905 24.9692 23.9311 25.2901C23.3717 25.6109 22.7712 25.7713 22.1295 25.7713ZM36.0742 26.636V35.1009H32.6191V14.9133H36.0742V16.8877C36.5185 16.2625 37.1313 15.7401 37.9128 15.3205C38.6943 14.901 39.5869 14.6912 40.5905 14.6912C41.7587 14.6912 42.8158 14.9791 43.7618 15.555C44.7078 16.1308 45.4564 16.9494 46.0076 18.0106C46.5588 19.0718 46.8344 20.3016 46.8344 21.7001C46.8344 23.0986 46.5588 24.3367 46.0076 25.4143C45.4564 26.492 44.7078 27.327 43.7618 27.9193C42.8158 28.5116 41.7587 28.8077 40.5905 28.8077C39.5869 28.8077 38.7026 28.6021 37.9375 28.1908C37.1725 27.7794 36.5514 27.2612 36.0742 26.636ZM39.6784 25.7713C39.0532 25.7713 38.465 25.6109 37.9138 25.2901C37.3626 24.9692 36.9184 24.5044 36.5811 23.8957C36.2438 23.2869 36.0752 22.5712 36.0752 21.7486C36.0752 20.926 36.2438 20.2103 36.5811 19.6015C36.9184 18.9928 37.3626 18.528 37.9138 18.2071C38.465 17.8863 39.0532 17.7259 39.6784 17.7259C40.32 17.7259 40.9164 17.8822 41.4676 18.1948C42.0188 18.5074 42.463 18.964 42.8003 19.5645C43.1376 20.165 43.3062 20.8766 43.3062 21.6992C43.3062 22.5383 43.1376 23.2623 42.8003 23.871C42.463 24.4798 42.0188 24.9487 41.4676 25.2777C40.9164 25.6068 40.32 25.7713 39.6784 25.7713ZM52.8085 26.636V35.1009H49.3535V14.9133H52.8085V16.8877C53.2528 16.2625 53.8656 15.7401 54.6471 15.3205C55.4287 14.901 56.3212 14.6912 57.3248 14.6912C58.493 14.6912 59.5501 14.9791 60.4961 15.555C61.4422 16.1308 62.1908 16.9494 62.7419 18.0106C63.2931 19.0718 63.5687 20.3016 63.5687 21.7001C63.5687 23.0986 63.2931 24.3367 62.7419 25.4143C62.1908 26.492 61.4422 27.327 60.4961 27.9193C59.5501 28.5116 58.493 28.8077 57.3248 28.8077C56.3212 28.8077 55.4369 28.6021 54.6718 28.1907C53.9068 27.7794 53.2857 27.2612 52.8085 26.636ZM56.4108 25.7713C55.7856 25.7713 55.1974 25.6109 54.6462 25.2901C54.0951 24.9692 53.6508 24.5044 53.3135 23.8957C52.9763 23.2869 52.8076 22.5712 52.8076 21.7486C52.8076 20.926 52.9763 20.2103 53.3135 19.6015C53.6508 18.9928 54.0951 18.528 54.6462 18.2071C55.1974 17.8863 55.7856 17.7259 56.4108 17.7259C57.0524 17.7259 57.6489 17.8822 58.2 18.1948C58.7512 18.5074 59.1954 18.964 59.5327 19.5645C59.87 20.165 60.0386 20.8766 60.0386 21.6992C60.0386 22.5383 59.87 23.2623 59.5327 23.871C59.1954 24.4798 58.7512 24.9487 58.2 25.2777C57.6489 25.6068 57.0524 25.7713 56.4108 25.7713ZM69.5401 21.7738V28.5853H66.085V14.913H69.5401V17.0354C69.9843 16.3115 70.5642 15.7439 71.2799 15.3326C71.9956 14.9212 72.8142 14.7156 73.7355 14.7156V18.3434H72.8224C71.7365 18.3434 70.918 18.5984 70.3668 19.1085C69.8156 19.6185 69.5401 20.507 69.5401 21.7738ZM82.1273 28.8077C83.46 28.8077 84.6652 28.5157 85.7428 27.9316C86.8205 27.3475 87.676 26.5208 88.3094 25.4514C88.9429 24.3819 89.2596 23.148 89.2596 21.7495C89.2596 20.351 88.9511 19.117 88.3341 18.0476C87.7171 16.9782 86.8739 16.1514 85.8045 15.5673C84.7351 14.9833 83.5422 14.6912 82.226 14.6912C80.9098 14.6912 79.717 14.9833 78.6475 15.5673C77.5781 16.1514 76.7349 16.9782 76.1179 18.0476C75.5009 19.117 75.1924 20.351 75.1924 21.7495C75.1924 23.148 75.4927 24.3819 76.0932 25.4514C76.6938 26.5208 77.5205 27.3475 78.5735 27.9316C79.6265 28.5157 80.8111 28.8077 82.1273 28.8077ZM79.6711 24.7473C80.321 25.4466 81.1395 25.7962 82.1267 25.7962C82.7519 25.7962 83.3401 25.644 83.8913 25.3396C84.4424 25.0353 84.8825 24.5787 85.2116 23.9699C85.5407 23.3612 85.7052 22.6208 85.7052 21.7488C85.7052 20.449 85.3638 19.4495 84.681 18.7503C83.9982 18.051 83.1632 17.7014 82.1761 17.7014C81.1889 17.7014 80.3621 18.051 79.6958 18.7503C79.0295 19.4495 78.6963 20.449 78.6963 21.7488C78.6963 23.0486 79.0212 24.0481 79.6711 24.7473Z" fill="black"/>
<path fill-rule="evenodd" clip-rule="evenodd" d="M119.923 28.1783C119.141 28.5979 118.24 28.8077 117.22 28.8077C116.068 28.8077 115.02 28.5115 114.074 27.9192C113.128 27.3269 112.379 26.4919 111.828 25.4143C111.277 24.3366 111.001 23.0985 111.001 21.7001C111.001 20.318 111.277 19.0923 111.828 18.0229C112.379 16.9534 113.128 16.1308 114.074 15.5549C115.02 14.9791 116.077 14.6912 117.245 14.6912C118.265 14.6912 119.157 14.8968 119.923 15.3081C120.688 15.7195 121.3 16.2377 121.761 16.8629V14.9133H125.241V28.5856H121.761V26.5865C121.317 27.2282 120.704 27.7588 119.923 28.1783ZM116.367 25.2777C116.918 25.6068 117.506 25.7713 118.131 25.7713C118.773 25.7713 119.374 25.6109 119.933 25.2901C120.492 24.9692 120.937 24.5086 121.266 23.908C121.595 23.3075 121.759 22.5877 121.759 21.7486C121.759 20.9095 121.595 20.1897 121.266 19.5892C120.937 18.9886 120.492 18.528 119.933 18.2071C119.374 17.8863 118.773 17.7259 118.131 17.7259C117.49 17.7259 116.898 17.8822 116.355 18.1948C115.812 18.5074 115.372 18.964 115.034 19.5645C114.697 20.165 114.528 20.8766 114.528 21.6992C114.528 22.5219 114.697 23.2417 115.034 23.8587C115.372 24.4757 115.816 24.9487 116.367 25.2777Z" fill="black"/>
<path d="M95.5988 28.4171H102.642L104.276 25.4112L107.331 19.8139C109.694 15.4711 113.49 12.0824 118.072 10.226L120.261 9.33759H118.662C110.838 9.33586 103.641 13.6143 99.9053 20.4877L99.5105 21.2132L95.5988 28.4171Z" fill="url(#paint0_linear_1_170)"/>
<path d="M89.4574 14.0238L95.6272 28.4167H102.69L98.8948 19.7296C96.8877 16.0293 94.0548 14.1657 89.8474 14.0312C89.719 14.0263 89.5882 14.0238 89.4574 14.0238Z" fill="#76D687"/>
</g>
<defs>
<linearGradient id="paint0_linear_1_170" x1="120.266" y1="28.4178" x2="95.5988" y2="28.4178" gradientUnits="userSpaceOnUse">
<stop stop-color="#76D687"/>
<stop offset="1" stop-color="#2F9C43"/>
</linearGradient>
<clipPath id="clip0_1_170">
<rect width="110.241" height="25.7631" fill="white" transform="translate(15 9.33765)"/>
</clipPath>
</defs>
</svg>
