
<!-- Generator: Adobe Illustrator 22.1.0, SVG Export Plug-In . SVG Version: 6.00 Build 0)  -->
<svg version="1.1" id="Layer_2_1_" xmlns="http://www.w3.org/2000/svg" xmlns:xlink="http://www.w3.org/1999/xlink" x="0px" y="0px"
                viewBox="0 0 138 47.7" style="enable-background:new 0 0 138 47.7;" xml:space="preserve">
<style type="text/css">
                .st0{fill:#fff;}
                .st1{fill:#004070;}
                .st2{fill:#FDB912;}
</style>
<g>
                <rect class="st0" width="138" height="47.7"/>
                <rect x="0.8" y="0.5" class="st1" width="45.7" height="46.7"/>
                <path class="st2" d="M9.1,17.6l5.3,5.4h5.7v-5.8l-5.3-5.3L9.1,17.6z M6.7,23.1v8.2h7.6l4.1-4.1l-4.1-4.1
                                C14.3,23.1,6.7,23.1,6.7,23.1z M20.3,25.7v13.4h8.2V25.7l-4.1-4.1L20.3,25.7z M34.4,23.1l-4.1,4.1l4.1,4.1H42v-8.2H34.4z
                                M39.6,17.6l-5.8-5.7l-5.3,5.3v5.7h5.7L39.6,17.6z M20.3,17.2l4.1,4.1l4.1-4.1V9.6h-8.2V17.2z"/>
                <rect x="47.7" y="0.5" class="st2" width="89.8" height="46.7"/>
                <g>
                                <path class="st1" d="M111.7,29.2L111.7,29.2L111.7,29.2L111.7,29.2"/>
                </g>
                <g>
                                <path class="st1" d="M56.5,28.8h-0.9v-4.1h0.5c1.4,0,2.2,0.7,2.2,2.1C58.3,28.1,57.4,28.8,56.5,28.8 M55.6,20.1h0.9
                                                c0.7,0,1.6,0.5,1.7,1.5c0,0.7-0.2,1.2-0.6,1.5c-0.4,0.4-1.2,0.4-1.8,0.4h-0.1V20.1L55.6,20.1z M59.1,24c0.3-0.1,0.6-0.3,0.8-0.5
                                                c0.6-0.6,1-1.3,1-2.1c0-1-0.4-1.7-1.1-2.1c-0.6-0.3-1.3-0.5-2.2-0.5H53v11.3h4.1c1.1,0,2-0.3,2.8-0.8c0.8-0.6,1.3-1.5,1.3-2.5
                                                C61.1,25.2,60.2,24.3,59.1,24"/>
                                <path class="st1" d="M74.6,28.8h-0.8v-4.1h0.5c1.4,0,2.2,0.7,2.2,2.1C76.4,28.1,75.5,28.8,74.6,28.8 M73.7,20.1h0.9
                                                c0.7,0,1.6,0.5,1.6,1.5c0,0.7-0.2,1.2-0.6,1.5c-0.4,0.4-1.2,0.4-1.8,0.4h-0.1L73.7,20.1L73.7,20.1z M77.2,24
                                                c0.3-0.1,0.6-0.3,0.8-0.5c0.6-0.6,1-1.3,1-2.1c0-1-0.4-1.7-1.1-2.1c-0.6-0.3-1.3-0.5-2.2-0.5H71v11.3h4.2c1.1,0,2-0.3,2.8-0.8
                                                c0.8-0.6,1.3-1.5,1.3-2.5C79.2,25.2,78.3,24.3,77.2,24"/>
                                <path class="st1" d="M61.7,29.4c3.5-3.2,4.8-5.3,4.8-7.5c0-1.8-0.8-2.5-1.7-2.5c-1.3,0-1.6,1.6-1.6,2.5l-1.5-1.1
                                                c0.4-1.2,1.5-2.2,3.5-2.2c3.1,0,4,1.6,4,2.9c0,1.5-0.6,3.5-3.8,6.4h3.8v2.2h-7.5L61.7,29.4L61.7,29.4z"/>
                                <polygon class="st1" points="111.4,26 105.3,18.8 103.6,18.8 103.6,30.1 105.2,30.1 105.2,22.8 111.5,30.1 113,30.1 113,18.8 
                                                111.4,18.8                           "/>
                                <path class="st1" d="M90.5,24c0.3-0.1,0.6-0.3,0.8-0.5c0.6-0.6,1-1.3,1-2.1c0-1-0.4-1.7-1.1-2.1c-0.6-0.3-1.3-0.5-2.2-0.5h-4.6
                                                v11.3h4.2c1.1,0,2-0.3,2.8-0.8c0.8-0.6,1.3-1.5,1.3-2.5C92.6,25.2,91.6,24.3,90.5,24L90.5,24z M87,20.1h0.9c0.7,0,1.6,0.5,1.7,1.5
                                                c0,0.7-0.2,1.2-0.6,1.5c-0.4,0.4-1.2,0.4-1.8,0.4H87V20.1L87,20.1z M87.9,28.8c0,0-0.6,0-0.8,0v-4.1h0.5c1.4,0,2.2,0.7,2.2,2.1
                                                C89.8,28.1,88.8,28.8,87.9,28.8L87.9,28.8z"/>
                                <path class="st1" d="M98.4,18.8H97l-4.5,11.3h1.6l1.3-3.3h3.4l1.1,3.3h2.9L98.4,18.8L98.4,18.8z M95.9,25.5l1.3-3.3l1.2,3.3H95.9
                                                L95.9,25.5z"/>
                                <path class="st1" d="M114.9,30.1h2.4v-5.3l3.6,5.3h2.6l-4.2-6.3c0.4-0.5,3.9-5,3.9-5h-1.8c0,0-2.7,3.4-4.1,5.1v-5.1h-2.4
                                                L114.9,30.1L114.9,30.1z"/>
                </g>
</g>
</svg>
