<?xml version="1.0" encoding="utf-8"?>
<!-- Generator: Adobe Illustrator 22.1.0, SVG Export Plug-In . SVG Version: 6.00 Build 0)  -->
<svg version="1.1" id="Layer_1" xmlns="http://www.w3.org/2000/svg" xmlns:xlink="http://www.w3.org/1999/xlink" x="0px" y="0px"
	 viewBox="0 0 490.3 144" style="enable-background:new 0 0 490.3 144;" xml:space="preserve">
<style type="text/css">
	.st0{clip-path:url(#SVGID_2_);fill:#00467F;}
	.st1{fill:#00467F;}
	.st2{clip-path:url(#SVGID_4_);fill:#00467F;}
	.st3{clip-path:url(#SVGID_6_);fill:#00467F;}
	.st4{clip-path:url(#SVGID_8_);fill:#00467F;}
	.st5{fill:#A7A9AC;}
	.st6{clip-path:url(#SVGID_10_);fill:#00467F;}
</style>
<g>
	<defs>
		<rect id="SVGID_1_" width="490.3" height="144"/>
	</defs>
	<clipPath id="SVGID_2_">
		<use xlink:href="#SVGID_1_"  style="overflow:visible;"/>
	</clipPath>
	<path class="st0" d="M108.4,99.1c-0.5-3.7-3.3-5.6-7.3-5.6c-6.1,0-8.4,5.4-8.4,10.8c0,5.4,2.3,10.8,8.4,10.8c4.4,0,7-2.5,7.3-6.7
		h9.4c-0.5,9.3-7.4,14.8-16.5,14.8c-11,0-18.1-8.4-18.1-18.9c0-10.5,7.1-18.9,18.1-18.9c7.8,0,16.3,5,16.5,13.7H108.4z"/>
</g>
<polygon class="st1" points="122.9,86.2 136.8,86.2 143,110.3 143.1,110.3 149.4,86.2 163.3,86.2 163.3,122.4 154.4,122.4 
	154.4,94.9 154.3,94.9 146.7,122.4 139.5,122.4 131.9,94.9 131.8,94.9 131.8,122.4 122.9,122.4 "/>
<polygon class="st1" points="169.8,86.2 179.2,86.2 179.2,114.3 196.1,114.3 196.1,122.4 169.8,122.4 "/>
<g>
	<defs>
		<rect id="SVGID_3_" width="490.3" height="144"/>
	</defs>
	<clipPath id="SVGID_4_">
		<use xlink:href="#SVGID_3_"  style="overflow:visible;"/>
	</clipPath>
	<path class="st2" d="M208.2,110.2c0.2,4.3,2.8,5.6,6.8,5.6c2.8,0,5.8-1,5.8-3.7c0-3.2-5.2-3.8-10.4-5.3
		c-5.2-1.5-10.6-3.8-10.6-10.5c0-7.9,8-11,14.8-11c7.2,0,14.5,3.5,14.5,11.7h-9.4c0.2-3.3-2.9-4.4-5.8-4.4c-2,0-4.6,0.7-4.6,3.1
		c0,2.8,5.2,3.3,10.5,4.8c5.2,1.5,10.5,3.9,10.5,10.5c0,9.2-7.8,12.1-15.8,12.1c-8.3,0-15.7-3.7-15.7-12.9H208.2z"/>
</g>
<polygon class="st1" points="250.6,86.2 277.3,86.2 277.3,93.7 260,93.7 260,101.1 275,101.1 275,108.4 260,108.4 260,122.4 
	250.6,122.4 "/>
<path class="st1" d="M281.6,96.1h8.6v26.3h-8.6V96.1z M290.2,92.8h-8.6v-6.6h8.6V92.8z"/>
<g>
	<defs>
		<rect id="SVGID_5_" width="490.3" height="144"/>
	</defs>
	<clipPath id="SVGID_6_">
		<use xlink:href="#SVGID_5_"  style="overflow:visible;"/>
	</clipPath>
	<path class="st3" d="M296.3,96.1h8.4v3.6h0.1c1.6-2.7,5.1-4.4,8.3-4.4c8.8,0,9.5,6.4,9.5,10.2v16.9h-8.6v-12.7
		c0-3.6,0.4-7.3-4.3-7.3c-3.2,0-4.7,2.7-4.7,5.6v14.4h-8.6V96.1z"/>
	<path class="st3" d="M339,117.8c4.1,0,5.5-2.3,5.3-7.8c-1.2,0.8-3.5,0.9-5.3,1.4c-1.9,0.5-3.6,1.3-3.6,3.3
		C335.4,117,337.1,117.8,339,117.8 M327.9,104.2c0.2-3.4,1.8-5.7,4.1-7.1c2.3-1.3,5.4-1.8,8.4-1.8c6.2,0,12.3,1.4,12.3,8.8v11.5
		c0,2.2,0,4.7,1,6.7H345c-0.3-0.8-0.4-1.6-0.5-2.5c-2.2,2.3-5.5,3.2-8.7,3.2c-5,0-9-2.5-9-8c0-8.6,9.3-7.9,15.3-9.1
		c1.5-0.3,2.3-0.8,2.3-2.4c0-2-2.4-2.7-4.2-2.7c-2.4,0-3.9,1.1-4.3,3.3H327.9z"/>
	<path class="st3" d="M358.3,96.1h8.4v3.6h0.1c1.6-2.7,5.1-4.4,8.3-4.4c8.8,0,9.5,6.4,9.5,10.2v16.9h-8.6v-12.7
		c0-3.6,0.4-7.3-4.3-7.3c-3.2,0-4.7,2.7-4.7,5.6v14.4h-8.6V96.1z"/>
	<path class="st3" d="M407.4,105.7c-0.1-2.2-2-3.8-4.2-3.8c-4.8,0-5.6,4.1-5.6,7.8c0,3.4,1.5,6.9,5.1,6.9c3,0,4.5-1.7,4.9-4.5h8.4
		c-0.8,7.1-6.2,11.1-13.2,11.1c-7.9,0-13.8-5.4-13.8-13.5c0-8.4,5.3-14.4,13.8-14.4c6.5,0,12.4,3.5,13,10.4H407.4z"/>
</g>
<path class="st1" d="M420.6,96.1h8.6v26.3h-8.6V96.1z M429.3,92.8h-8.6v-6.6h8.6V92.8z"/>
<g>
	<defs>
		<rect id="SVGID_7_" width="490.3" height="144"/>
	</defs>
	<clipPath id="SVGID_8_">
		<use xlink:href="#SVGID_7_"  style="overflow:visible;"/>
	</clipPath>
	<path class="st4" d="M446.2,117.8c4.1,0,5.5-2.3,5.3-7.8c-1.2,0.8-3.4,0.9-5.3,1.4c-1.9,0.5-3.6,1.3-3.6,3.3
		C442.6,117,444.2,117.8,446.2,117.8 M435,104.2c0.2-3.4,1.8-5.7,4.1-7.1c2.3-1.3,5.4-1.8,8.4-1.8c6.2,0,12.3,1.4,12.3,8.8v11.5
		c0,2.2,0,4.7,1,6.7h-8.7c-0.3-0.8-0.4-1.6-0.5-2.5c-2.2,2.3-5.5,3.2-8.7,3.2c-5,0-9-2.5-9-8c0-8.6,9.3-7.9,15.3-9.1
		c1.5-0.3,2.3-0.8,2.3-2.4c0-2-2.4-2.7-4.2-2.7c-2.4,0-3.9,1.1-4.3,3.3H435z"/>
</g>
<rect x="465.7" y="86.2" class="st1" width="8.6" height="36.2"/>
<polygon class="st5" points="0,38.7 0,144 13.7,144 28.6,17.3 "/>
<polygon class="st5" points="35.7,0 18.6,144 82,144 82,137.6 58.3,137.7 62.9,125.4 34.4,106 41.7,100.3 38.5,85.8 51.5,88.8 
	56.1,80.7 67.8,93.6 63.7,63.1 74.6,69.3 82.1,49.7 "/>
<g>
	<defs>
		<rect id="SVGID_9_" width="490.3" height="144"/>
	</defs>
	<clipPath id="SVGID_10_">
		<use xlink:href="#SVGID_9_"  style="overflow:visible;"/>
	</clipPath>
	<path class="st6" d="M484,90.9h1c0.8,0,1.6,0,1.6-1c0-0.8-0.7-0.9-1.3-0.9H484V90.9z M483.1,88.2h2.3c1.4,0,2.1,0.6,2.1,1.7
		c0,1.1-0.7,1.6-1.6,1.6l1.7,2.7h-1l-1.6-2.6h-1v2.6h-0.9V88.2z M485.1,95.7c2.4,0,4.2-1.9,4.2-4.4c0-2.5-1.9-4.4-4.2-4.4
		c-2.4,0-4.3,1.9-4.3,4.4C480.8,93.8,482.7,95.7,485.1,95.7 M485.1,86.1c2.8,0,5.2,2.2,5.2,5.1c0,3-2.4,5.2-5.2,5.2
		c-2.8,0-5.2-2.2-5.2-5.2C479.9,88.3,482.2,86.1,485.1,86.1"/>
</g>
</svg>
