<svg xmlns="http://www.w3.org/2000/svg" fill="none" viewBox="10 8 28 28">
<g filter="url(#filter0_d_720_148)">
<path d="M38 22.0002C38 29.7319 31.7317 36 24.0001 36C16.268 36 10 29.7319 10 22.0002C10 14.2682 16.268 8 24.0001 8C31.7317 8 38 14.2682 38 22.0002Z" fill="url(#paint0_linear_720_148)"/>
</g>
<path fill-rule="evenodd" clip-rule="evenodd" d="M28.8704 23.919C29.4213 24.0254 30.4009 24.2953 30.7721 24.9069C31.1442 25.52 31.0545 26.4672 30.9987 26.846C30.8835 27.6273 30.6044 28.2772 30.2522 28.5846C29.946 28.8517 29.0717 28.9551 28.71 28.9831C28.7062 28.9834 28.7024 28.9858 28.6987 28.9883C28.6946 28.9909 28.6906 28.9934 28.6866 28.9934H28.6819C25.7334 28.9177 22.9182 27.8163 20.7549 25.8257C20.7533 25.8243 20.7519 25.8216 20.7504 25.819C20.749 25.8166 20.7477 25.8142 20.7464 25.8128L20.1851 25.2523C20.1836 25.2508 20.1821 25.249 20.1807 25.2472C20.1794 25.2456 20.1781 25.244 20.1769 25.2427C18.1746 23.0912 17.0464 20.2904 17 17.3574C16.9999 17.3479 17.0002 17.3382 17.0009 17.3287C17.0291 16.9686 17.1236 16.0981 17.3928 15.7931C17.7017 15.4431 18.3547 15.1657 19.1396 15.0513C19.52 14.9958 20.4713 14.9067 21.0868 15.2761C21.7054 15.6474 21.9767 16.6297 22.0833 17.1823C22.2757 18.1787 22.2586 19.4625 21.7869 20.0842C21.6312 20.2895 21.3094 20.3917 20.7435 20.4156C20.6686 20.4187 20.5955 20.4201 20.5262 20.4205C20.9405 21.4798 21.5582 22.458 22.3403 23.2928L22.7095 23.6599C23.5503 24.4387 24.5353 25.0536 25.6025 25.4657C25.6029 25.397 25.6043 25.3244 25.6074 25.2501C25.6315 24.6863 25.7345 24.3656 25.9412 24.2105C26.5692 23.7394 27.865 23.7247 28.8704 23.919ZM29.8543 28.1278C30.0897 27.9223 30.3089 27.3716 30.3995 26.7576C30.4944 26.1138 30.4388 25.5251 30.2544 25.2213C30.0773 24.9294 29.503 24.6584 28.7558 24.514C27.7616 24.3219 26.716 24.3973 26.3138 24.6889C26.2313 24.8055 26.1872 25.3332 26.217 25.8285C26.2308 25.8826 26.23 25.941 26.2112 25.9979C26.1978 26.0385 26.176 26.0736 26.1493 26.1036L26.1454 26.1081C26.1441 26.1094 26.1429 26.1107 26.1417 26.1121C26.1382 26.1159 26.1347 26.1197 26.131 26.1232C26.0815 26.172 26.0152 26.2042 25.9405 26.2096C25.8765 26.2144 25.8159 26.1988 25.7647 26.1685C24.5339 25.7522 23.3938 25.0859 22.4247 24.2197C22.4082 24.2095 22.3924 24.1976 22.3776 24.1839C22.2811 24.0944 22.1865 24.003 22.0939 23.9098C22.0004 23.8179 21.9087 23.724 21.8189 23.6283C21.8051 23.6136 21.793 23.5979 21.7827 23.5814C20.9112 22.6175 20.2412 21.4835 19.8223 20.259C19.7919 20.2077 19.7762 20.147 19.7808 20.0831C19.7862 20.0088 19.8178 19.9429 19.866 19.8935C19.8994 19.8575 19.9419 19.8292 19.9917 19.8126C20.0487 19.7936 20.1073 19.7927 20.1615 19.8063C20.661 19.8362 21.1934 19.792 21.3109 19.7095C21.6017 19.3128 21.6784 18.2799 21.4888 17.2972C21.3442 16.5483 21.0708 15.973 20.7753 15.7956C20.469 15.6118 19.8758 15.5563 19.2273 15.6509C18.6091 15.741 18.0546 15.9592 17.8475 16.1939C17.7603 16.2987 17.6483 16.8421 17.6064 17.3615C17.6538 20.1374 18.7224 22.7868 20.6168 24.8244L21.1697 25.3743C23.2193 27.2584 25.8849 28.3213 28.6774 28.3684C29.2011 28.3265 29.7487 28.2148 29.8543 28.1278Z" fill="#589BCD"/>
<defs>
<filter id="filter0_d_720_148" x="0" y="0" width="48" height="48" filterUnits="userSpaceOnUse" color-interpolation-filters="sRGB">
<feFlood flood-opacity="0" result="BackgroundImageFix"/>
<feColorMatrix in="SourceAlpha" type="matrix" values="0 0 0 0 0 0 0 0 0 0 0 0 0 0 0 0 0 0 127 0" result="hardAlpha"/>
<feOffset dy="2"/>
<feGaussianBlur stdDeviation="5"/>
<feColorMatrix type="matrix" values="0 0 0 0 0.781108 0 0 0 0 0.781108 0 0 0 0 0.781108 0 0 0 0.5 0"/>
<feBlend mode="normal" in2="BackgroundImageFix" result="effect1_dropShadow_720_148"/>
<feBlend mode="normal" in="SourceGraphic" in2="effect1_dropShadow_720_148" result="shape"/>
</filter>
<linearGradient id="paint0_linear_720_148" x1="10" y1="8" x2="10" y2="36" gradientUnits="userSpaceOnUse">
<stop stop-color="#C5EAD6"/>
<stop offset="0.0001" stop-color="white"/>
</linearGradient>
</defs>
</svg>