<svg xmlns="http://www.w3.org/2000/svg" fill="none" viewBox="10 8 28 28">
<g filter="url(#filter0_d_720_174)">
<path d="M38 22.0002C38 29.7319 31.7317 36 24.0001 36C16.268 36 10 29.7319 10 22.0002C10 14.2682 16.268 8 24.0001 8C31.7317 8 38 14.2682 38 22.0002Z" fill="url(#paint0_linear_720_174)"/>
</g>
<path d="M24.002 13.6419C24.1199 13.4728 24.2714 13.3299 24.447 13.222C24.6226 13.1141 24.8186 13.0435 25.0226 13.0147C25.2267 12.9859 25.4346 12.9995 25.6332 13.0546C25.8318 13.1096 26.0169 13.2051 26.177 13.3349L29.447 15.9899C29.7392 16.227 29.9316 16.5652 29.986 16.9375C30.0405 17.3098 29.953 17.689 29.741 17.9999H28.521L28.911 17.4409C28.9836 17.3373 29.0143 17.2101 28.9968 17.0849C28.9794 16.9596 28.9151 16.8456 28.817 16.7659L27.133 15.3999L25.337 17.9999H24.12L26.354 14.7679L25.546 14.1119C25.4927 14.0686 25.431 14.0368 25.3648 14.0184C25.2986 14 25.2293 13.9954 25.1613 14.005C25.0933 14.0146 25.0279 14.0381 24.9694 14.074C24.9108 14.1099 24.8603 14.1575 24.821 14.2139L22.18 17.9989H20.96L24.002 13.6419ZM27.5 23.9999C27.3674 23.9999 27.2402 24.0525 27.1464 24.1463C27.0527 24.2401 27 24.3673 27 24.4999C27 24.6325 27.0527 24.7597 27.1464 24.8534C27.2402 24.9472 27.3674 24.9999 27.5 24.9999H28.5C28.6326 24.9999 28.7598 24.9472 28.8536 24.8534C28.9473 24.7597 29 24.6325 29 24.4999C29 24.3673 28.9473 24.2401 28.8536 24.1463C28.7598 24.0525 28.6326 23.9999 28.5 23.9999H27.5ZM18.5 16.9999H20.669L19.969 17.9999H18.5C18.3674 17.9999 18.2402 18.0525 18.1464 18.1463C18.0527 18.2401 18 18.3673 18 18.4999C18 18.6325 18.0527 18.7597 18.1464 18.8534C18.2402 18.9472 18.3674 18.9999 18.5 18.9999H29C29.5304 18.9999 30.0391 19.2106 30.4142 19.5857C30.7893 19.9607 31 20.4694 31 20.9999V26.9999C31 27.5303 30.7893 28.039 30.4142 28.4141C30.0391 28.7892 29.5304 28.9999 29 28.9999H19.5C18.837 28.9999 18.2011 28.7365 17.7322 28.2676C17.2634 27.7988 17 27.1629 17 26.4999V18.4999C17 18.102 17.158 17.7205 17.4393 17.4392C17.7206 17.1579 18.1022 16.9999 18.5 16.9999ZM18 26.4999C18 26.8977 18.158 27.2792 18.4393 27.5605C18.7206 27.8418 19.1022 27.9999 19.5 27.9999H29C29.2652 27.9999 29.5196 27.8945 29.7071 27.707C29.8946 27.5194 30 27.2651 30 26.9999V20.9999C30 20.7347 29.8946 20.4803 29.7071 20.2928C29.5196 20.1052 29.2652 19.9999 29 19.9999H18.5C18.325 19.9999 18.156 19.9699 18 19.9149V26.4999Z" fill="#398ECE"/>
<defs>
<filter id="filter0_d_720_174" x="0" y="0" width="48" height="48" filterUnits="userSpaceOnUse" color-interpolation-filters="sRGB">
<feFlood flood-opacity="0" result="BackgroundImageFix"/>
<feColorMatrix in="SourceAlpha" type="matrix" values="0 0 0 0 0 0 0 0 0 0 0 0 0 0 0 0 0 0 127 0" result="hardAlpha"/>
<feOffset dy="2"/>
<feGaussianBlur stdDeviation="5"/>
<feColorMatrix type="matrix" values="0 0 0 0 0.781108 0 0 0 0 0.781108 0 0 0 0 0.781108 0 0 0 0.5 0"/>
<feBlend mode="normal" in2="BackgroundImageFix" result="effect1_dropShadow_720_174"/>
<feBlend mode="normal" in="SourceGraphic" in2="effect1_dropShadow_720_174" result="shape"/>
</filter>
<linearGradient id="paint0_linear_720_174" x1="10" y1="8" x2="10" y2="36" gradientUnits="userSpaceOnUse">
<stop stop-color="white"/>
<stop offset="1" stop-color="white"/>
</linearGradient>
</defs>
</svg>