<svg xmlns="http://www.w3.org/2000/svg" fill="none" viewBox="10 8 28 28">
<g filter="url(#filter0_d_720_164)">
<g filter="url(#filter1_d_720_164)">
<path d="M38 22.0002C38 29.7319 31.7317 36 24.0001 36C16.268 36 10 29.7319 10 22.0002C10 14.2682 16.268 8 24.0001 8C31.7317 8 38 14.2682 38 22.0002Z" fill="url(#paint0_linear_720_164)"/>
</g>
<path d="M28.486 24.562C28.486 25.138 28.342 25.69 28.054 26.218C27.766 26.734 27.34 27.166 26.776 27.514C26.224 27.862 25.558 28.06 24.778 28.108V29.566H23.806V28.108C22.714 28.012 21.826 27.664 21.142 27.064C20.458 26.452 20.11 25.678 20.098 24.742H21.844C21.892 25.246 22.078 25.684 22.402 26.056C22.738 26.428 23.206 26.662 23.806 26.758V22.258C23.002 22.054 22.354 21.844 21.862 21.628C21.37 21.412 20.95 21.076 20.602 20.62C20.254 20.164 20.08 19.552 20.08 18.784C20.08 17.812 20.416 17.008 21.088 16.372C21.772 15.736 22.678 15.382 23.806 15.31V13.816H24.778V15.31C25.798 15.394 26.62 15.724 27.244 16.3C27.868 16.864 28.228 17.602 28.324 18.514H26.578C26.518 18.094 26.332 17.716 26.02 17.38C25.708 17.032 25.294 16.804 24.778 16.696V21.088C25.57 21.292 26.212 21.502 26.704 21.718C27.208 21.922 27.628 22.252 27.964 22.708C28.312 23.164 28.486 23.782 28.486 24.562ZM21.754 18.694C21.754 19.282 21.928 19.732 22.276 20.044C22.624 20.356 23.134 20.614 23.806 20.818V16.66C23.182 16.72 22.684 16.924 22.312 17.272C21.94 17.608 21.754 18.082 21.754 18.694ZM24.778 26.776C25.426 26.704 25.93 26.47 26.29 26.074C26.662 25.678 26.848 25.204 26.848 24.652C26.848 24.064 26.668 23.614 26.308 23.302C25.948 22.978 25.438 22.72 24.778 22.528V26.776Z" fill="#398ECE"/>
</g>
<defs>
<filter id="filter0_d_720_164" x="6" y="8" width="36" height="36" filterUnits="userSpaceOnUse" color-interpolation-filters="sRGB">
<feFlood flood-opacity="0" result="BackgroundImageFix"/>
<feColorMatrix in="SourceAlpha" type="matrix" values="0 0 0 0 0 0 0 0 0 0 0 0 0 0 0 0 0 0 127 0" result="hardAlpha"/>
<feOffset dy="4"/>
<feGaussianBlur stdDeviation="2"/>
<feComposite in2="hardAlpha" operator="out"/>
<feColorMatrix type="matrix" values="0 0 0 0 0 0 0 0 0 0 0 0 0 0 0 0 0 0 0.25 0"/>
<feBlend mode="normal" in2="BackgroundImageFix" result="effect1_dropShadow_720_164"/>
<feBlend mode="normal" in="SourceGraphic" in2="effect1_dropShadow_720_164" result="shape"/>
</filter>
<filter id="filter1_d_720_164" x="0" y="0" width="48" height="48" filterUnits="userSpaceOnUse" color-interpolation-filters="sRGB">
<feFlood flood-opacity="0" result="BackgroundImageFix"/>
<feColorMatrix in="SourceAlpha" type="matrix" values="0 0 0 0 0 0 0 0 0 0 0 0 0 0 0 0 0 0 127 0" result="hardAlpha"/>
<feOffset dy="2"/>
<feGaussianBlur stdDeviation="5"/>
<feColorMatrix type="matrix" values="0 0 0 0 0.781108 0 0 0 0 0.781108 0 0 0 0 0.781108 0 0 0 0.5 0"/>
<feBlend mode="normal" in2="BackgroundImageFix" result="effect1_dropShadow_720_164"/>
<feBlend mode="normal" in="SourceGraphic" in2="effect1_dropShadow_720_164" result="shape"/>
</filter>
<linearGradient id="paint0_linear_720_164" x1="10" y1="8" x2="10" y2="36" gradientUnits="userSpaceOnUse">
<stop stop-color="white"/>
<stop offset="0.509676" stop-color="white"/>
<stop offset="1" stop-color="white"/>
</linearGradient>
</defs>
</svg>