<svg xmlns="http://www.w3.org/2000/svg" fill="none" viewBox="10 10 42 42">
<g filter="url(#filter0_d_720_159)">
<circle cx="31" cy="31" r="21" fill="url(#paint0_linear_720_159)" fill-opacity="0.1"/>
<circle cx="31" cy="31" r="20.5" stroke="#51CF66" stroke-opacity="0.2"/>
</g>
<path d="M24.7424 38.7323H30.181L31.4425 36.4113L33.8016 32.0893C35.6258 28.736 38.5569 26.1194 42.0949 24.686L43.7852 24H42.5503C36.5097 23.9987 30.9525 27.3023 28.0677 32.6096L27.7628 33.1698L24.7424 38.7323Z" fill="url(#paint1_linear_720_159)"/>
<path d="M20.0009 27.6182L24.7649 38.7317H30.2188L27.2879 32.0239C25.7382 29.1667 23.5507 27.7277 20.3019 27.6239C20.2028 27.6201 20.1018 27.6182 20.0009 27.6182Z" fill="#76D687"/>
<defs>
<filter id="filter0_d_720_159" x="0" y="0" width="62" height="62" filterUnits="userSpaceOnUse" color-interpolation-filters="sRGB">
<feFlood flood-opacity="0" result="BackgroundImageFix"/>
<feColorMatrix in="SourceAlpha" type="matrix" values="0 0 0 0 0 0 0 0 0 0 0 0 0 0 0 0 0 0 127 0" result="hardAlpha"/>
<feOffset/>
<feGaussianBlur stdDeviation="5"/>
<feColorMatrix type="matrix" values="0 0 0 0 0.718924 0 0 0 0 0.78925 0 0 0 0 0.854167 0 0 0 0.1 0"/>
<feBlend mode="normal" in2="BackgroundImageFix" result="effect1_dropShadow_720_159"/>
<feBlend mode="normal" in="SourceGraphic" in2="effect1_dropShadow_720_159" result="shape"/>
</filter>
<linearGradient id="paint0_linear_720_159" x1="39.5004" y1="48.5202" x2="22.2545" y2="16.1361" gradientUnits="userSpaceOnUse">
<stop stop-color="#51CF66"/>
<stop offset="1" stop-color="#51CF66" stop-opacity="0.4"/>
</linearGradient>
<linearGradient id="paint1_linear_720_159" x1="43.789" y1="38.7328" x2="24.7424" y2="38.7328" gradientUnits="userSpaceOnUse">
<stop stop-color="#76D687"/>
<stop offset="1" stop-color="#2F9C43"/>
</linearGradient>
</defs>
</svg>