<svg id="Layer_8" data-name="Layer 8" xmlns="http://www.w3.org/2000/svg" viewBox="0 0 120.76 49"><defs><style>.cls-1{fill:#e5ba31;}.cls-2{fill:#0898a9;}.cls-3{fill:#d9ab28;}</style></defs><title>Untitled-1</title><polygon class="cls-1" points="60.38 7.89 60.38 7.89 60.45 7.89 60.38 7.89"/><polygon class="cls-2" points="30.43 32.52 28.38 40.42 25.75 32.52 22.11 32.52 19.48 40.41 17.39 32.52 13.63 32.52 17.42 46.05 21.14 46.05 23.89 37.79 26.62 46.05 30.29 46.05 34.07 32.52 30.43 32.52"/><path class="cls-2" d="M8.27,46.88A7.25,7.25,0,0,1,1,39.7a7.12,7.12,0,0,1,2.12-5.09,7.28,7.28,0,0,1,5.13-2.12h0A7.3,7.3,0,0,1,13.74,35l-2.62,2.17A3.88,3.88,0,0,0,5.54,37,3.81,3.81,0,0,0,4.41,39.7a3.86,3.86,0,0,0,6.71,2.55l2.62,2.17a7.31,7.31,0,0,1-5.45,2.46Z" transform="translate(-1 -0.4)"/><path class="cls-2" d="M36.85,46.45V32.92h6.66c2.5,0,4.18,1.46,4.18,3.63a3.13,3.13,0,0,1-1.24,2.53l-.5.36.54.31a3.23,3.23,0,0,1,1.62,2.86c0,2.26-1.73,3.84-4.2,3.84Zm3.34-2.68h2.65c1,0,1.59-.53,1.59-1.37S43.81,41,42.84,41H40.19Zm0-5.64H42.6c.9,0,1.46-.48,1.46-1.25,0-.38-.14-1.24-1.49-1.24H40.19Z" transform="translate(-1 -0.4)"/><path class="cls-3" d="M19.53,17.28,22.9,10.2a2,2,0,0,1,3.65,0l3.36,7.08a.65.65,0,0,0,1.21,0l3.85-9h0a1,1,0,0,1-1-.48,1,1,0,0,1-.06-.44V4.9a.13.13,0,0,0-.18-.11s-1.27.51-1.88.81a.81.81,0,0,1-.33.11A1,1,0,0,1,30.6,5l-.3-.75a.13.13,0,0,0-.22,0c-.32.42-1.07,1.46-1.14,1.54a.66.66,0,0,1-.54.27h0a.66.66,0,0,1-.65-.64V2.19a.13.13,0,0,0-.21-.09l-.18.15a.85.85,0,0,1-1.27-.2L24.83.45a.13.13,0,0,0-.11,0h0a.1.1,0,0,0-.1,0l-1.26,1.6a.87.87,0,0,1-.72.4.85.85,0,0,1-.55-.2l-.18-.15a.13.13,0,0,0-.21.09V5.41a.65.65,0,0,1-.65.64h0a.66.66,0,0,1-.54-.27c-.07-.08-.82-1.12-1.14-1.54a.13.13,0,0,0-.22,0l-.3.75a1,1,0,0,1-.88.69.89.89,0,0,1-.34-.11c-.6-.3-1.87-.81-1.87-.81a.13.13,0,0,0-.18.11V7.4a1,1,0,0,1-.06.44,1,1,0,0,1-1,.48h0l3.84,9A.65.65,0,0,0,19.53,17.28Z" transform="translate(-1 -0.4)"/><path class="cls-2" d="M35,8.32H35l-3.85,9a.65.65,0,0,1-1.21,0L26.55,10.2a2,2,0,0,0-3.65,0l-3.37,7.08a.65.65,0,0,1-1.21,0l-3.84-9H9l7.07,17h5.84l2.18-5.84a.65.65,0,0,1,1.22,0l2.19,5.84h5.83l7.08-17Z" transform="translate(-1 -0.4)"/><path class="cls-2" d="M64.79,22.2a5.32,5.32,0,1,1-5.34,5.31A5.21,5.21,0,0,1,64.79,22.2Zm0,9a3.44,3.44,0,0,0,3.52-3.69,3.52,3.52,0,1,0-7,0A3.45,3.45,0,0,0,64.79,31.2Z" transform="translate(-1 -0.4)"/><path class="cls-2" d="M70.94,35.36V25.62H72.6v.94a2.61,2.61,0,0,1,2.3-1.1c2.13,0,3.33,1.58,3.33,3.65a3.39,3.39,0,0,1-3.39,3.69,2.66,2.66,0,0,1-2.2-1v3.53Zm3.63-8.42a2,2,0,0,0-1.94,2.17,2,2,0,1,0,3.88,0A2,2,0,0,0,74.57,26.94Z" transform="translate(-1 -0.4)"/><path class="cls-2" d="M81.64,25.62h1.5V27.1h-1.5v3.25c0,.62.28.88.92.88a4.13,4.13,0,0,0,.59-.06v1.38a2.81,2.81,0,0,1-1.05.16,2,2,0,0,1-2.16-2.09V27.1H78.6V25.62H79a1,1,0,0,0,1.11-1.1V23.47h1.56Z" transform="translate(-1 -0.4)"/><path class="cls-2" d="M85.2,22.06a1.11,1.11,0,0,1,1.12,1.09,1.12,1.12,0,0,1-2.24,0A1.11,1.11,0,0,1,85.2,22.06Zm-.85,10.56v-7h1.71v7Z" transform="translate(-1 -0.4)"/><path class="cls-2" d="M87.68,32.62v-7h1.64v.89a2.5,2.5,0,0,1,2.14-1.1,2.28,2.28,0,0,1,2.16,1.24A2.55,2.55,0,0,1,96,25.41a2.44,2.44,0,0,1,2.55,2.67v4.54H96.85V28.35a1.3,1.3,0,0,0-1.39-1.44A1.47,1.47,0,0,0,94,28.46v4.16H92.27V28.35a1.29,1.29,0,0,0-1.39-1.44,1.45,1.45,0,0,0-1.5,1.55v4.16Z" transform="translate(-1 -0.4)"/><path class="cls-2" d="M102.44,32.83A2.63,2.63,0,0,1,99.71,30V25.62h1.72v4.11a1.41,1.41,0,0,0,1.45,1.6,1.42,1.42,0,0,0,1.51-1.57V25.62h1.72v5.72a10.62,10.62,0,0,0,.08,1.28h-1.65a4.9,4.9,0,0,1-.06-.77A2.33,2.33,0,0,1,102.44,32.83Z" transform="translate(-1 -0.4)"/><path class="cls-2" d="M107.46,32.62v-7h1.64v.89a2.5,2.5,0,0,1,2.14-1.1,2.26,2.26,0,0,1,2.16,1.24,2.56,2.56,0,0,1,2.34-1.24,2.44,2.44,0,0,1,2.55,2.67v4.54h-1.66V28.35a1.3,1.3,0,0,0-1.39-1.44,1.48,1.48,0,0,0-1.5,1.55v4.16h-1.69V28.35a1.29,1.29,0,0,0-1.39-1.44,1.45,1.45,0,0,0-1.5,1.55v4.16Z" transform="translate(-1 -0.4)"/><path class="cls-2" d="M69.88,46.45V38.94l-3.27,7.51H65.07L61.82,39v7.48H60.09V36.25h2.37L65.87,44l3.36-7.78h2.42v10.2Z" transform="translate(-1 -0.4)"/><path class="cls-2" d="M80.12,42.94a3.74,3.74,0,1,1-3.75-3.71A3.62,3.62,0,0,1,80.12,42.94Zm-1.73,0a2,2,0,1,0-4,0,2,2,0,1,0,4,0Z" transform="translate(-1 -0.4)"/><path class="cls-2" d="M85.19,41.1a3.64,3.64,0,0,0-.56-.05c-1.34,0-1.94.75-1.94,2.06v3.34H81v-7h1.67v1.12a2.2,2.2,0,0,1,2.09-1.21,2,2,0,0,1,.46,0Z" transform="translate(-1 -0.4)"/><path class="cls-2" d="M88.81,39.44h1.5v1.48h-1.5v3.26c0,.61.29.87.92.87a5,5,0,0,0,.6,0v1.38a2.88,2.88,0,0,1-1.06.16,2,2,0,0,1-2.16-2.09V40.92H85.78V39.44h.37a1,1,0,0,0,1.11-1.09V37.3h1.55Z" transform="translate(-1 -0.4)"/><path class="cls-2" d="M92.44,46.44A1.74,1.74,0,0,0,94.25,48c1.36,0,2-.68,2-2.1v-.74a2.32,2.32,0,0,1-2.09,1,3.41,3.41,0,0,1,0-6.82,2.29,2.29,0,0,1,2.14,1v-.89H98v6.35a3.36,3.36,0,0,1-3.71,3.61,3.23,3.23,0,0,1-3.44-2.56Zm3.9-3.72a1.87,1.87,0,1,0-1.86,2A1.83,1.83,0,0,0,96.34,42.72Z" transform="translate(-1 -0.4)"/><path class="cls-2" d="M101.37,42.43l1.85-.27c.41-.06.53-.26.53-.5,0-.59-.41-1.07-1.36-1.07a1.37,1.37,0,0,0-1.48,1.27l-1.57-.35a2.8,2.8,0,0,1,3-2.28c2.23,0,3.07,1.22,3.07,2.61v3.49a6.63,6.63,0,0,0,.09,1.12h-1.6a4.26,4.26,0,0,1-.07-.89,2.56,2.56,0,0,1-2.23,1.11,2.24,2.24,0,0,1-2.44-2.12C99.19,43.3,100.14,42.61,101.37,42.43Zm2.38,1.11v-.31l-1.88.27c-.53.09-1,.37-1,1a1,1,0,0,0,1,.91A1.62,1.62,0,0,0,103.75,43.54Z" transform="translate(-1 -0.4)"/><path class="cls-2" d="M108.05,46.44a1.74,1.74,0,0,0,1.8,1.51,1.83,1.83,0,0,0,2.05-2.1v-.74a2.32,2.32,0,0,1-2.09,1,3.41,3.41,0,0,1,0-6.82,2.26,2.26,0,0,1,2.13,1v-.89h1.66v6.35a3.35,3.35,0,0,1-3.7,3.61,3.23,3.23,0,0,1-3.44-2.56Zm3.89-3.72a1.87,1.87,0,1,0-1.85,2A1.82,1.82,0,0,0,111.94,42.72Z" transform="translate(-1 -0.4)"/><path class="cls-2" d="M121.67,44.45a3.26,3.26,0,0,1-3.26,2.22,3.59,3.59,0,0,1-3.69-3.76,3.55,3.55,0,0,1,3.51-3.68,3.32,3.32,0,0,1,3.53,3.64,2,2,0,0,1-.05.53h-5.27a1.91,1.91,0,0,0,2,1.83A1.75,1.75,0,0,0,120.22,44ZM120,42.18a1.6,1.6,0,0,0-1.78-1.56,1.71,1.71,0,0,0-1.76,1.56Z" transform="translate(-1 -0.4)"/></svg>