<svg id="Layer_1" data-name="Layer 1" xmlns="http://www.w3.org/2000/svg" viewBox="0 0 360 199.07"><defs><style>.cls-1{fill:#1a3c34;}.cls-2{fill:#045d67;}</style></defs><title>RFA Logos _ RGB</title><path class="cls-1" d="M272.86,31.11l32.78,93.1h-65.7ZM257.91,5.8,189.35,192.86h27L232.9,146h79.78l16.53,46.9h29.05L289.68,5.8Z"/><polygon class="cls-2" points="135.29 5.8 135.29 164.61 153.68 192.86 162.61 192.86 162.61 110.12 205.19 110.12 213.31 87.95 162.61 87.95 162.61 27.52 235.47 27.52 243.4 5.87 243.4 5.8 135.29 5.8"/><path class="cls-1" d="M57.38,94.72H29.06V27.23H57.38q15.09,0,23.43,4A30.53,30.53,0,0,1,94,43.14a33.09,33.09,0,0,1,4.89,17.62A34.09,34.09,0,0,1,94.11,78.6,30.73,30.73,0,0,1,81,90.7q-8.26,4-23.64,4M115,93.28q11.28-14.1,11.29-33.09,0-24.33-17.26-39.36T62.69,5.8H1.74V192.86H29.06v-77H56.81l48.58,77h32.06L85.12,112.42q18.54-5,29.83-19.14"/></svg>