<svg width="125" height="125" viewBox="0 0 180 180" fill="none" xmlns="http://www.w3.org/2000/svg" style="display: block; margin: 0px auto 1rem; transition: all 1s ease-out 0s; opacity: 0.8;"><mask id="mask0" mask-type="alpha" maskUnits="userSpaceOnUse" x="0" y="0" width="180" height="180"><rect width="180" height="180" fill="#C4C4C4"></rect></mask><g mask="url(#mask0)"><line x1="12.1438" y1="178.92" x2="175.06" y2="178.92" stroke="#4D5256" stroke-width="1.6" stroke-linecap="round"></line><path d="M101.828 28.8H158.494C162.091 28.8 165.006 31.7154 165.006 35.3118V178.92H95.3159V35.3118C95.3159 31.7155 98.2313 28.8 101.828 28.8Z" fill="#e9e9e9" stroke="#4D5256" stroke-width="1.6" style="transition: all 1s ease-out 0s;"></path><path d="M113.823 47.1936V76.5549H98.9711V47.1936C98.9711 43.0924 102.296 39.7678 106.397 39.7678C110.498 39.7678 113.823 43.0924 113.823 47.1936Z" fill="white" stroke="#4D5256" stroke-width="1.6"></path><path d="M137.586 47.1936V76.5549H122.735V47.1936C122.735 43.0924 126.059 39.7678 130.161 39.7678C134.262 39.7678 137.586 43.0924 137.586 47.1936Z" fill="white" stroke="#4D5256" stroke-width="1.6"></path><path d="M161.35 47.1936V76.5549H146.498V47.1936C146.498 43.0924 149.823 39.7678 153.924 39.7678C158.025 39.7678 161.35 43.0924 161.35 47.1936Z" fill="white" stroke="#4D5256" stroke-width="1.6"></path><path d="M113.823 92.8923V122.254H98.9711V92.8923C98.9711 88.7912 102.296 85.4665 106.397 85.4665C110.498 85.4665 113.823 88.7911 113.823 92.8923Z" fill="white" stroke="#4D5256" stroke-width="1.6"></path><path d="M137.586 92.8923V122.254H122.735V92.8923C122.735 88.7912 126.059 85.4665 130.161 85.4665C134.262 85.4665 137.586 88.7911 137.586 92.8923Z" fill="white" stroke="#4D5256" stroke-width="1.6"></path><path d="M161.35 92.8923V122.254H146.498V92.8923C146.498 88.7912 149.823 85.4665 153.924 85.4665C158.025 85.4665 161.35 88.7911 161.35 92.8923Z" fill="white" stroke="#4D5256" stroke-width="1.6"></path><path d="M113.823 149.559V178.921H98.9711V149.559C98.9711 145.458 102.296 142.133 106.397 142.133C110.498 142.133 113.823 145.458 113.823 149.559Z" fill="white" stroke="#4D5256" stroke-width="1.6"></path><path d="M161.35 149.559V178.921H146.498V149.559C146.498 145.458 149.823 142.133 153.924 142.133C158.025 142.133 161.35 145.458 161.35 149.559Z" fill="white" stroke="#4D5256" stroke-width="1.6"></path><path d="M120.828 150.3H139.172C139.74 150.3 140.2 150.76 140.2 151.328V178.7H119.8V151.328C119.8 150.76 120.26 150.3 120.828 150.3Z" fill="white" stroke="#4D5256" stroke-width="1.6"></path><path d="M27.3118 28.8H83.9785C87.5749 28.8 90.4903 31.7154 90.4903 35.3118V178.92H20.8V35.3118C20.8 31.7155 23.7154 28.8 27.3118 28.8Z" fill="#e9e9e9" stroke="#4D5256" stroke-width="1.6" style="transition: all 1s ease-out 0s;"></path><path d="M39 54.1678C35.0236 54.1678 31.8 50.9442 31.8 46.9678C31.8 42.9913 35.0236 39.7678 39 39.7678C42.9764 39.7678 46.2 42.9913 46.2 46.9678C46.2 50.9442 42.9764 54.1678 39 54.1678Z" fill="white" stroke="#4D5256" stroke-width="1.6"></path><path d="M71 54.1678C67.0236 54.1678 63.8 50.9442 63.8 46.9678C63.8 42.9913 67.0236 39.7678 71 39.7678C74.9764 39.7678 78.2 42.9913 78.2 46.9678C78.2 50.9442 74.9764 54.1678 71 54.1678Z" fill="white" stroke="#4D5256" stroke-width="1.6"></path><path d="M39 74.1678C35.0236 74.1678 31.8 70.9442 31.8 66.9678C31.8 62.9913 35.0236 59.7678 39 59.7678C42.9764 59.7678 46.2 62.9913 46.2 66.9678C46.2 70.9442 42.9764 74.1678 39 74.1678Z" fill="white" stroke="#4D5256" stroke-width="1.6"></path><path d="M71 74.1678C67.0236 74.1678 63.8 70.9442 63.8 66.9678C63.8 62.9913 67.0236 59.7678 71 59.7678C74.9764 59.7678 78.2 62.9913 78.2 66.9678C78.2 70.9442 74.9764 74.1678 71 74.1678Z" fill="white" stroke="#4D5256" stroke-width="1.6"></path><path d="M39 94.1678C35.0236 94.1678 31.8 90.9442 31.8 86.9678C31.8 82.9913 35.0236 79.7678 39 79.7678C42.9764 79.7678 46.2 82.9913 46.2 86.9678C46.2 90.9442 42.9764 94.1678 39 94.1678Z" fill="white" stroke="#4D5256" stroke-width="1.6"></path><path d="M71 94.1678C67.0236 94.1678 63.8 90.9442 63.8 86.9678C63.8 82.9913 67.0236 79.7678 71 79.7678C74.9764 79.7678 78.2 82.9913 78.2 86.9678C78.2 90.9442 74.9764 94.1678 71 94.1678Z" fill="white" stroke="#4D5256" stroke-width="1.6"></path><path d="M39 114.168C35.0236 114.168 31.8 110.944 31.8 106.968C31.8 102.991 35.0236 99.7678 39 99.7678C42.9764 99.7678 46.2 102.991 46.2 106.968C46.2 110.944 42.9764 114.168 39 114.168Z" fill="white" stroke="#4D5256" stroke-width="1.6"></path><path d="M71 114.168C67.0236 114.168 63.8 110.944 63.8 106.968C63.8 102.991 67.0236 99.7678 71 99.7678C74.9764 99.7678 78.2 102.991 78.2 106.968C78.2 110.944 74.9764 114.168 71 114.168Z" fill="white" stroke="#4D5256" stroke-width="1.6"></path><path d="M39 134.168C35.0236 134.168 31.8 130.944 31.8 126.968C31.8 122.991 35.0236 119.768 39 119.768C42.9764 119.768 46.2 122.991 46.2 126.968C46.2 130.944 42.9764 134.168 39 134.168Z" fill="white" stroke="#4D5256" stroke-width="1.6"></path><path d="M71 134.168C67.0236 134.168 63.8 130.944 63.8 126.968C63.8 122.991 67.0236 119.768 71 119.768C74.9764 119.768 78.2 122.991 78.2 126.968C78.2 130.944 74.9764 134.168 71 134.168Z" fill="white" stroke="#4D5256" stroke-width="1.6"></path><path d="M71.7806 158.699V178.921H38.6494V158.699C38.6494 149.55 46.066 142.133 55.215 142.133C64.3639 142.133 71.7806 149.55 71.7806 158.699Z" fill="white" stroke="#4D5256" stroke-width="1.6"></path><line x1="16.2661" y1="155.127" x2="16.2661" y2="179.065" stroke="#4D5256" stroke-width="1.6"></line><path d="M22.5951 146.45C22.5951 160.634 26.2175 168.592 15.6383 168.592C9.66163 168.592 1.35257 162.927 4.8166 148.844C8.10033 135.493 2.82928 119.891 15.6383 121.615C20.4325 122.261 22.5951 132.266 22.5951 146.45Z" fill="#4D5256"></path><path d="M80.7414 177.581C81.0041 180.532 85.2563 179.571 96.2023 179.571C109.162 179.571 109.075 180.212 109.075 177.581C109.075 176.562 107.976 174.018 104.023 173.394C96.1149 173.394 97.3833 170.581 93.0801 170.581C85.8012 170.581 80.7414 175.416 80.7414 177.581Z" fill="#4D5256"></path></g></svg>