<svg width="125" height="125" viewBox="0 0 180 180" fill="none" xmlns="http://www.w3.org/2000/svg" style="display: block; margin: 0px auto 1rem; transition: all 1s ease-out 0s; opacity: 0.8;"><mask id="mask0" mask-type="alpha" maskUnits="userSpaceOnUse" x="0" y="0" width="180" height="180"><rect width="180" height="180" fill="#C4C4C4"></rect></mask><g mask="url(#mask0)"><rect x="41.8705" y="94.8068" width="25.4" height="24.0728" rx="1.2" transform="rotate(0.488302 41.8705 94.8068)" fill="#e9e9e9" stroke="#4D5256" stroke-width="1.6" style="transition: all 1s ease-out 0s;"></rect><rect x="115.871" y="94.8068" width="25.4" height="24.0728" rx="1.2" transform="rotate(0.488302 115.871 94.8068)" fill="#e9e9e9" stroke="#4D5256" stroke-width="1.6" style="transition: all 1s ease-out 0s;"></rect><line x1="9.8" y1="179.2" x2="178.2" y2="179.2" stroke="#4D5256" stroke-width="1.6" stroke-linecap="round"></line><path d="M33.8 179.2V118.56L91.2 97.643V179.2H33.8Z" fill="#e9e9e9" stroke="#4D5256" stroke-width="1.6" style="transition: all 1s ease-out 0s;"></path><path d="M147 177.659C147.287 180.888 151.94 179.836 163.916 179.836C178.096 179.836 178 180.538 178 177.659C178 176.545 176.798 173.761 172.472 173.079C163.82 173.079 163.208 171.5 158.5 171.5C150.536 171.5 147 175.291 147 177.659Z" fill="#4D5256"></path><line x1="157.346" y1="150.81" x2="157.346" y2="177" stroke="#4D5256" stroke-width="1.6"></line><path d="M164.345 141.316C164.345 156.835 168.309 165.542 156.734 165.542C150.194 165.542 141.103 159.344 144.893 143.935C148.486 129.328 142.719 112.257 156.734 114.144C161.979 114.85 164.345 125.797 164.345 141.316Z" fill="#4D5256"></path><path d="M149.2 118.569V179.2H91.8V98.6249L149.2 118.569Z" fill="#e9e9e9" stroke="#4D5256" stroke-width="1.6" style="transition: all 1s ease-out 0s;"></path><path d="M85.2 163V179.2H66.8V163C66.8 157.919 70.919 153.8 76 153.8C81.081 153.8 85.2 157.919 85.2 163Z" fill="white" stroke="#4D5256" stroke-width="1.6"></path><path d="M115.2 163V179.2H96.8V163C96.8 157.919 100.919 153.8 106 153.8C111.081 153.8 115.2 157.919 115.2 163Z" fill="white" stroke="#4D5256" stroke-width="1.6"></path><rect x="39.8" y="151.8" width="20.4" height="23.4" rx="1.2" fill="white" stroke="#4D5256" stroke-width="1.6"></rect><path d="M60.2 146V148.2H39.8V146C39.8 140.367 44.3667 135.8 50 135.8C55.6333 135.8 60.2 140.367 60.2 146Z" fill="white" stroke="#4D5256" stroke-width="1.6"></path><rect x="122.8" y="151.8" width="20.4" height="23.4" rx="1.2" fill="white" stroke="#4D5256" stroke-width="1.6"></rect><path d="M143.2 146V148.2H122.8V146C122.8 140.367 127.367 135.8 133 135.8C138.633 135.8 143.2 140.367 143.2 146Z" fill="white" stroke="#4D5256" stroke-width="1.6"></path><line x1="14.1652" y1="146.132" x2="14.1652" y2="179" stroke="#4D5256" stroke-width="1.6"></line><path d="M21.1645 134.218C18.0869 147.626 26.5857 155.731 16.3193 163.313C6.05295 170.895 -1.39375 143.07 1.71272 137.504C4.81919 131.939 -0.461629 97.7495 13.5529 100.117C17.384 100.765 18.8193 112.487 18.0869 117.507C17.3545 122.527 24.2421 120.809 21.1645 134.218Z" fill="#4D5256"></path><path d="M92.7738 67.7474L154.496 122.099C155.326 122.83 154.809 124.2 153.703 124.2H92H28.4165C27.3017 124.2 26.7893 122.812 27.6366 122.088L91.2009 67.7359C91.6549 67.3477 92.3254 67.3525 92.7738 67.7474Z" fill="#e9e9e9" stroke="#4D5256" stroke-width="1.6" style="transition: all 1s ease-out 0s;"></path><line x1="31.3457" y1="159.461" x2="31.3457" y2="179" stroke="#4D5256" stroke-width="1.6"></line><path d="M38.3675 152.131C38.3675 163.578 42.1959 170 31.0151 170C24.6986 170 16.783 162.138 19.578 154.063C22.3731 145.988 17.4777 130.697 31.0151 132.089C36.082 132.61 38.3675 140.684 38.3675 152.131Z" fill="#4D5256"></path><mask id="path-21-inside-1" fill="white"><rect x="65" y="176" width="22" height="4" rx="1"></rect></mask><rect x="65" y="176" width="22" height="4" rx="1" fill="white" stroke="#4D5256" stroke-width="2.4" mask="url(#path-21-inside-1)"></rect><mask id="path-22-inside-2" fill="white"><rect x="95" y="176" width="22" height="4" rx="1"></rect></mask><rect x="95" y="176" width="22" height="4" rx="1" fill="white" stroke="#4D5256" stroke-width="2.4" mask="url(#path-22-inside-2)"></rect></g></svg>