<svg width="125" height="125" viewBox="0 0 180 180" fill="none" xmlns="http://www.w3.org/2000/svg" style="display: block; margin: 0px auto 1rem; transition: all 1s ease-out 0s; opacity: 0.8;"><mask id="mask0" mask-type="alpha" maskUnits="userSpaceOnUse" x="0" y="0" width="180" height="180"><rect width="180" height="180" fill="#C4C4C4"></rect></mask><g mask="url(#mask0)"><path d="M38.3169 73.8H45.9526C47.7199 73.8 49.1526 75.2327 49.1526 77V88.2H35.1169V77C35.1169 75.2327 36.5496 73.8 38.3169 73.8Z" fill="#e9e9e9" stroke="#4D5256" stroke-width="1.6" style="transition: all 1s ease-out 0s;"></path><line x1="167.4" y1="153.76" x2="167.4" y2="179.95" stroke="#4D5256" stroke-width="1.6"></line><path d="M174.222 144.266C171.214 154.95 179.52 161.408 169.487 167.45C159.455 173.492 152.177 151.32 155.213 146.885C158.249 142.45 153.088 115.207 166.784 117.093C170.528 117.609 171.93 126.95 171.214 130.95C170.499 134.95 177.23 133.581 174.222 144.266Z" fill="#4D5256"></path><line x1="5.8" y1="179.2" x2="170.329" y2="179.2" stroke="#4D5256" stroke-width="1.6" stroke-linecap="round"></line><path d="M34.499 96.8H140.653C144.629 96.8 147.853 100.024 147.853 104V179.2H27.299V104C27.299 100.024 30.5226 96.8 34.499 96.8Z" fill="#e9e9e9" stroke="#4D5256" stroke-width="1.6" style="transition: all 1s ease-out 0s;"></path><path d="M30.5927 84.8H142.452C146.128 84.8 149.213 87.5686 149.61 91.2228L153.481 126.87C153.558 127.58 153.002 128.2 152.288 128.2H19.9816C19.2573 128.2 18.6981 127.563 18.7917 126.845L23.4531 91.0697C23.9204 87.4832 26.9759 84.8 30.5927 84.8Z" fill="#e9e9e9" stroke="#4D5256" stroke-width="1.6" style="transition: all 1s ease-out 0s;"></path><path d="M55.9932 145.238V172.2H35.1169V145.238C35.1169 139.473 39.7902 134.8 45.5551 134.8C51.3199 134.8 55.9932 139.473 55.9932 145.238Z" fill="white" stroke="#4D5256" stroke-width="1.6"></path><path d="M140.035 145.238V172.2H119.159V145.238C119.159 139.473 123.832 134.8 129.597 134.8C135.362 134.8 140.035 139.473 140.035 145.238Z" fill="white" stroke="#4D5256" stroke-width="1.6"></path><path d="M73.4973 144.8H102.632C104.399 144.8 105.832 146.233 105.832 148V179.2H70.2973V148C70.2973 146.233 71.73 144.8 73.4973 144.8Z" fill="white" stroke="#4D5256" stroke-width="1.6"></path><path d="M106.748 98.9494V104.226H86.5988H66.4494V98.9494C66.4494 87.8212 75.4706 78.8 86.5988 78.8C97.727 78.8 106.748 87.8212 106.748 98.9494Z" fill="#e9e9e9" stroke="#4D5256" stroke-width="1.6" style="transition: all 1s ease-out 0s;"></path><rect x="62.6567" y="103.436" width="47.8844" height="5.5641" fill="#e9e9e9" style="transition: all 1s ease-out 0s;"></rect><path d="M99.9687 97.6812V102.2H74.2063V97.6812C74.2063 90.5671 79.9734 84.8 87.0875 84.8C94.2016 84.8 99.9687 90.5671 99.9687 97.6812Z" fill="white" stroke="#4D5256" stroke-width="1.6"></path><path d="M4.99999 177.659C5.28088 180.888 9.82741 179.836 21.5309 179.836C35.3877 179.836 35.2942 180.538 35.2942 177.659C35.2942 176.545 34.1199 173.761 29.8924 173.079C21.4374 173.079 22.7936 170 18.1926 170C10.41 170 4.99999 175.291 4.99999 177.659Z" fill="#4D5256"></path><line x1="21.9694" y1="150.81" x2="21.9694" y2="177" stroke="#4D5256" stroke-width="1.6"></line><path d="M28.7909 141.316C28.7909 156.835 32.664 165.542 21.3527 165.542C14.9624 165.542 6.07829 159.344 9.78205 143.935C13.293 129.328 7.6572 112.257 21.3527 114.144C26.4787 114.85 28.7909 125.797 28.7909 141.316Z" fill="#4D5256"></path><mask id="path-17-inside-1" fill="white"><rect x="65" y="174" width="46" height="6" rx="1"></rect></mask><rect x="65" y="174" width="46" height="6" rx="1" fill="white" stroke="#4D5256" stroke-width="3.2" mask="url(#path-17-inside-1)"></rect><mask id="path-18-inside-2" fill="white"><rect x="68" y="169" width="40" height="6" rx="1"></rect></mask><rect x="68" y="169" width="40" height="6" rx="1" fill="white" stroke="#4D5256" stroke-width="3.2" mask="url(#path-18-inside-2)"></rect></g></svg>