
<svg width="130" height="130" viewBox="0 0 180 180" fill="none" xmlns="http://www.w3.org/2000/svg" style="display: block; margin: 0px auto 1rem; transition: all 1s ease-out 0s; opacity: 0.8;"><mask id="mask0" mask-type="alpha" maskUnits="userSpaceOnUse" x="0" y="0" width="180" height="180"><rect width="180" height="180" fill="#C4C4C4"></rect></mask><g mask="url(#mask0)"><ellipse cx="142.555" cy="157.511" rx="12.8807" ry="2.83462" fill="#4D5256"></ellipse><path d="M152.833 156.938C152.834 156.938 152.83 156.942 152.819 156.95C152.827 156.942 152.833 156.938 152.833 156.938ZM149.615 156.875C150.566 157 151.34 157.142 151.911 157.292C151.34 157.443 150.567 157.588 149.616 157.716C147.329 158.025 144.145 158.221 140.61 158.227C137.076 158.233 133.891 158.047 131.603 157.746C130.652 157.621 129.878 157.479 129.306 157.33C129.877 157.178 130.651 157.033 131.602 156.905C133.889 156.597 137.073 156.4 140.607 156.394C144.142 156.388 147.327 156.574 149.615 156.875ZM128.383 156.979C128.384 156.979 128.389 156.983 128.398 156.991C128.387 156.983 128.383 156.979 128.383 156.979ZM128.385 157.683C128.384 157.683 128.388 157.679 128.399 157.671C128.39 157.679 128.385 157.683 128.385 157.683ZM152.82 157.631C152.831 157.638 152.835 157.642 152.835 157.642C152.834 157.643 152.829 157.639 152.82 157.631Z" fill="#AED798" stroke="#AED798" stroke-width="1.6"></path><path fill-rule="evenodd" clip-rule="evenodd" d="M159.353 99.2937C160.626 98.1216 162.984 95.1455 164.78 94.7257C165.937 94.4553 165.61 97.2439 165.627 97.7756C165.691 99.8325 165.388 101.877 165.011 103.917C164.333 107.596 162.081 110.873 158.987 114.007C157.395 115.619 155.526 117.251 152.933 118.258C151.739 118.721 150.301 118.8 149.122 119.2C147.749 119.665 148.496 119.289 147.88 120.211C147.024 121.491 146.756 123.142 146.363 124.507C144.56 130.775 140.267 163.907 141.06 170.281C141.131 170.846 139.906 170.982 139.842 170.293C139.503 166.635 142.213 141.306 143.599 133.022C144.985 124.739 146.391 117.42 147.82 114.554C149.553 111.076 152.691 106.893 155.304 103.649C156.517 102.142 157.841 100.687 159.353 99.2937Z" fill="#4d5256" style="transition: all 1s ease-out 0s;"></path><path fill-rule="evenodd" clip-rule="evenodd" d="M117.545 127.005C119.011 127.191 121.413 129.347 122.624 130.168C124.063 131.144 125.369 132.185 126.6 133.275C129.252 135.622 131.625 138.118 133.644 140.721C136.937 144.964 139.578 149.32 141.501 153.942C142.679 156.771 143.445 159.703 143.904 162.615C143.991 163.165 144.892 167.399 143.619 167.514C142.473 167.618 142.814 164.299 142.756 163.847C142.111 158.755 140.219 153.802 137.595 149.004C137.024 147.958 136.491 146.678 135.581 145.738C134.925 145.06 135.574 145.296 134.425 145.041C133.438 144.821 132.315 144.875 131.305 144.606C129.11 144.022 127.349 142.886 125.805 141.744C122.805 139.523 120.425 137.12 119.178 134.273C118.487 132.695 117.85 131.107 117.494 129.479C117.402 129.059 116.601 126.885 117.545 127.005Z" fill="#4d5256" style="transition: all 1s ease-out 0s;"></path><path fill-rule="evenodd" clip-rule="evenodd" d="M137.687 105.374C145.668 105.712 150.516 112.279 149.261 114.599C148.348 116.285 147.118 117.869 146.342 119.593C145.721 120.97 145.476 122.398 145.51 123.832C145.543 125.211 146.6 126.694 146.19 128.034C145.929 128.888 144.992 129.918 144.054 130.549C142.913 131.315 143.223 131.321 143.641 132.376C144.459 134.445 145.062 136.495 144.982 138.648C144.868 141.75 143.842 145.108 141.168 147.739C140.828 148.073 143.426 157.533 142.595 157.394C141.668 157.238 142.361 158.823 143.742 157.393C145.122 155.963 141.785 145.517 142.541 143.87C145.456 137.518 141.656 131.617 140.973 125.28C140.923 124.948 140.869 124.179 140.815 123.666C140.73 122.856 141.06 121.462 140.661 120.761C139.91 119.44 139.894 121.638 139.918 122.066C139.948 122.607 139.993 123.186 140.071 123.675C140.41 125.938 140.82 128.419 141.173 130.752C133.194 129.648 132.13 122.528 132.835 118.269C133.416 114.759 129.706 105.036 137.687 105.374Z" fill="#4d5256" style="transition: all 1s ease-out 0s;"></path><path fill-rule="evenodd" clip-rule="evenodd" d="M120.25 89.9521C125.876 96.1766 130.506 103.015 133.506 109.943C135.323 114.14 136.6 118.447 137.868 122.724C139.832 129.345 141.691 135.966 142.24 142.706C142.792 149.485 143.86 157.304 140.425 163.836C142.127 157.205 140.452 150.15 140.134 143.479C139.981 140.295 139.565 137.142 139.023 133.977C138.496 130.906 137.644 127.85 136.85 124.804C136.463 123.32 136.058 121.839 135.644 120.358C135.521 119.917 135.464 118.606 135.026 118.304C134.585 118.001 132.34 117.878 131.635 117.656C130.214 117.208 128.877 116.571 127.693 115.898C125.424 114.608 123.447 112.922 121.886 111.259C118.273 107.411 116.816 102.714 116.87 98.2556C116.881 97.3899 116.526 87.9401 118.141 87.9389V87.9389C118.897 87.9384 118.705 88.2597 119.217 88.8173C119.563 89.1948 119.907 89.5733 120.25 89.9521Z" fill="#4d5256" style="transition: all 1s ease-out 0s;"></path><path fill-rule="evenodd" clip-rule="evenodd" d="M160.538 128.639C159.947 128.664 159.386 128.774 158.885 128.955C157.828 128.916 156.955 128.92 156.718 128.942C150.287 129.529 147.368 134.775 146.439 138.346C146.162 139.412 146.065 140.489 145.981 141.567C145.926 142.27 142.565 157.852 143.234 158.399C144.293 159.266 144.274 157.045 144.298 156.846C144.439 155.636 147.14 141.201 147.357 139.995C148.006 136.39 150.47 130.715 156.831 129.809C157.421 129.725 159.472 129.863 161.193 129.981C161.858 130.113 162.385 130.288 162.529 130.511C163.003 131.238 159.812 130.32 159.495 130.277C157.637 130.021 156.421 130.272 156.623 131.659C156.77 132.664 158.008 133.285 159.129 133.891C159.845 134.279 160.619 134.624 161.327 135.017C164.367 136.704 164.86 138.863 164.969 141.342C165.051 143.207 165.253 146.397 169.264 146.363C172.469 146.336 174.385 143.915 175.262 142.217C176.571 139.682 176.921 136.549 174.786 134.166C172.137 131.21 166.014 128.373 160.538 128.639Z" fill="#4d5256" style="transition: all 1s ease-out 0s;"></path><path d="M149.055 159.124L154.592 158.424L154.099 169.107C153.848 174.537 149.377 178.813 143.941 178.822L141.332 178.827C135.827 178.836 131.312 174.47 131.135 168.968L130.794 158.292L135.59 159.14L135.629 159.147L135.669 159.15L135.729 158.352L135.669 159.15L135.669 159.15L135.67 159.15L135.673 159.15L135.682 159.151L135.72 159.154L135.865 159.164C135.991 159.173 136.172 159.186 136.398 159.202C136.849 159.233 137.476 159.274 138.178 159.316C139.576 159.398 141.292 159.483 142.511 159.484C143.8 159.486 145.433 159.396 146.733 159.307C147.385 159.262 147.958 159.217 148.367 159.183C148.572 159.167 148.737 159.153 148.85 159.143L148.981 159.131L149.015 159.128L149.024 159.127L149.026 159.127L149.026 159.127L149.027 159.127L148.954 158.33L149.027 159.127L149.041 159.126L149.055 159.124Z" fill="white" stroke="#4D5256" stroke-width="1.6"></path><path d="M144.776 169.204C147.396 168.096 148.246 159.163 150.684 160.791C155.118 163.753 151.035 177.305 145.721 177.081C142.418 176.942 140.237 176.261 139.069 173.82C137.139 169.782 140.644 170.951 144.776 169.204Z" fill="#F2F2F2"></path><rect x="0.801295" y="0.79867" width="111.351" height="47.2743" rx="11.6252" transform="matrix(0.999999 -0.00166079 0.00162064 0.999999 23.7277 123.277)" fill="white" stroke="#4D5256" stroke-width="1.6"></rect><rect x="0.801295" y="0.79867" width="111.351" height="21.4539" rx="10.727" transform="matrix(0.999999 -0.00166079 0.00162064 0.999999 23.7695 149.098)" fill="white" stroke="#4D5256" stroke-width="1.6"></rect><path d="M128.892 171.659L131.565 171.654L131.574 177.417C131.576 178.155 130.978 178.755 130.24 178.756C129.502 178.757 128.903 178.16 128.902 177.422L128.892 171.659Z" fill="white" stroke="#4D5256" stroke-width="1.2"></path><rect x="0.801295" y="0.79867" width="18.5611" height="25.6124" rx="5.41262" transform="matrix(0.999999 -0.00166079 0.00162064 0.999999 119.335 144.828)" fill="white" stroke="#4D5256" stroke-width="1.6"></rect><rect x="18.4532" y="145.625" width="18.5611" height="25.6124" rx="5.41262" transform="rotate(-0.093999 18.4532 145.625)" fill="white" stroke="#4D5256" stroke-width="1.6"></rect><path d="M26.8939 171.809L29.5665 171.805L29.5759 177.568C29.5771 178.306 28.9798 178.905 28.2417 178.907C27.5037 178.908 26.9045 178.311 26.9033 177.573L26.8939 171.809Z" fill="white" stroke="#4D5256" stroke-width="1.2"></path><path d="M40.8818 77.575C57.971 49.9138 136.647 151.113 136.647 151.113L129.242 179.621L26.7062 179.621C26.7062 179.621 23.7926 105.236 40.8818 77.575Z" fill="url(#paint_livein_linear)"></path><path d="M41.4428 153.543C45.3631 153.543 86.8051 150.708 115.367 153.543C121.026 154.105 115.367 168.283 115.367 168.283H41.4428C41.4428 168.283 37.5225 153.543 41.4428 153.543Z" fill="#FFFFFF" style="transition: all 1s ease-out 0s;"></path><path d="M35.3491 125.465C39.2806 125.465 80.8407 124.862 109.484 125.465C115.159 125.584 109.484 128.598 109.484 128.598H35.3491C35.3491 128.598 31.4177 125.465 35.3491 125.465Z" fill="#FFFFFF" style="transition: all 1s ease-out 0s;"></path><line x1="0.799986" y1="179.388" x2="157.128" y2="179.385" stroke="#4D5256" stroke-width="1.6" stroke-linecap="round"></line><path d="M14.5619 119.881C14.5619 105.583 3.36876 83.5925 14.5619 75.0945C14.5619 75.0945 17.3734 73.063 19.6021 72.2599C21.8778 71.4398 23.3475 71.0625 25.7624 71.126C30.2696 71.2446 36.963 73.9606 36.963 73.9606L35.8429 75.8738C35.8429 75.8738 34.391 74.2843 33.0428 73.6061C31.76 72.9609 30.7281 72.5996 29.3357 72.2599C27.8822 71.9053 27.2321 71.8426 25.7624 71.9053C23.9274 71.9836 23.0466 71.9563 21.2821 72.4722C19.2127 73.0773 17.9866 73.8157 16.2419 75.0945C14.3588 76.4747 12.7861 77.7296 11.7616 79.8422C10.6842 82.0643 10.8247 83.6101 10.6416 86.0784C10.5115 87.8318 10.5582 88.8301 10.6398 90.5754L10.6416 90.6138C10.8728 95.5589 11.8688 98.2429 12.8817 103.086C13.6728 106.869 14.5794 108.897 15.1218 112.724C15.5577 115.8 15.6819 120.661 15.6819 120.661V132.566V179.409H14.5619L14.5619 156.732V119.881Z" fill="#4D5256" stroke="#4D5256" stroke-linecap="round"></path><path d="M31.3261 98.3637L29.8107 72.4699L55.4275 71.8662L31.3261 98.3637Z" fill="#4D5256" stroke="#4D5256" stroke-width="1.6"></path><path d="M56.5086 71.8708C56.5579 71.8579 56.5967 71.8506 56.6267 71.8466C56.6235 71.8785 56.6175 71.92 56.6065 71.9728C56.5573 72.2096 56.4311 72.5504 56.2113 72.9978C55.775 73.8856 55.0251 75.0834 54.0089 76.5134C51.9807 79.3675 48.9381 83.0817 45.3619 86.9749C41.7856 90.8681 38.3656 94.1895 35.7305 96.412C34.4103 97.5256 33.3021 98.3505 32.478 98.8347C32.0628 99.0788 31.7455 99.2207 31.5242 99.2784C31.4749 99.2913 31.4361 99.2986 31.4061 99.3027C31.4092 99.2707 31.4153 99.2293 31.4263 99.1765C31.4755 98.9396 31.6017 98.5989 31.8215 98.1514C32.2578 97.2636 33.0077 96.0658 34.0239 94.6358C36.0521 91.7817 39.0947 88.0675 42.6709 84.1743C46.2471 80.2811 49.6672 76.9597 52.3023 74.7372C53.6225 73.6236 54.7307 72.7988 55.5547 72.3145C55.97 72.0705 56.2872 71.9286 56.5086 71.8708Z" fill="#FFFFFF" stroke="#4D5256" style="transition: all 1s ease-out 0s;"></path></g><defs><linearGradient id="paint_livein_linear" x1="80.6405" y1="79.8415" x2="80.6405" y2="179.62" gradientUnits="userSpaceOnUse"><stop stop-color="#FFFFFF"></stop><stop offset="0.46875" stop-color="#FFFFFF" stop-opacity="0"></stop><stop offset="1" stop-color="#FFFFFF" stop-opacity="0"></stop></linearGradient></defs></svg>