<svg width="135" height="135" viewBox="0 0 180 180" fill="none" xmlns="http://www.w3.org/2000/svg" style="display: block; margin: 0px auto -1.75rem; transition: all 1s ease-out 0s; opacity: 0.8;"><path d="M126.2 75.6134C126.2 95.3965 110.248 111.427 90.5793 111.427C70.9106 111.427 54.9587 95.3965 54.9587 75.6134C54.9587 55.8302 70.9106 39.8 90.5793 39.8C110.248 39.8 126.2 55.8302 126.2 75.6134Z" fill="white" stroke="#4D5256" stroke-width="1.6"></path><path d="M70.8972 106.401L79.4535 110.31L65.649 135.963C64.4226 138.242 61.5821 139.083 59.3133 137.838C57.0587 136.601 56.2193 133.77 57.4347 131.504L70.8972 106.401Z" fill="white" stroke="#4D5256" stroke-width="1.6"></path><mask id="mask0" mask-type="alpha" maskUnits="userSpaceOnUse" x="59" y="45" width="62" height="62"><path d="M120.499 75.678C120.499 92.3494 107.056 105.86 90.4783 105.86C73.9008 105.86 60.4578 92.3494 60.4578 75.678C60.4578 59.0065 73.9008 45.496 90.4783 45.496C107.056 45.496 120.499 59.0065 120.499 75.678Z" fill="#F0F7FC" stroke="#4D5256" stroke-width="0.963409"></path></mask><g mask="url(#mask0)"><mask id="mask1" mask-type="alpha" maskUnits="userSpaceOnUse" x="74" y="31" width="68" height="69"><rect x="74.4727" y="31.7744" width="67.4387" height="67.4387" fill="#C4C4C4"></rect></mask><g mask="url(#mask1)"><rect x="97.3858" y="63.6821" width="9.5158" height="9.01855" rx="0.449318" transform="rotate(0.488302 97.3858 63.6821)" fill="white" stroke="#4D5256" stroke-width="0.6"></rect><line x1="85.3703" y1="95.3002" x2="148.462" y2="95.3002" stroke="#4D5256" stroke-width="0.6" stroke-linecap="round"></line><path d="M94.362 95.3002V72.5813L115.867 64.7448V95.3002H94.362Z" fill="#E9E9E9" stroke="#4D5256" stroke-width="0.6" style="transition: fill 1s ease-out 0s;"></path><path d="M114 65L138 72.703V96H114V65Z" fill="#E9E9E9" style="transition: fill 1s ease-out 0s;"></path><path d="M117.232 89.2308V95.3001H110.339V89.2308C110.339 87.3273 111.882 85.7843 113.785 85.7843C115.689 85.7843 117.232 87.3273 117.232 89.2308Z" fill="white" stroke="#4D5256" stroke-width="0.6"></path><path d="M124.859 89.2308V95.3001H117.966V89.2308C117.966 87.3273 119.509 85.7843 121.412 85.7843C123.316 85.7843 124.859 87.3273 124.859 89.2308Z" fill="white" stroke="#4D5256" stroke-width="0.6"></path><rect x="97.8144" y="85.0349" width="7.6425" height="8.76648" rx="0.449318" fill="white" stroke="#4D5256" stroke-width="0.6"></rect><path d="M105.457 82.8619V83.6858H97.8144V82.8619C97.8144 80.7514 99.5252 79.0406 101.636 79.0406C103.746 79.0406 105.457 80.7514 105.457 82.8619Z" fill="white" stroke="#4D5256" stroke-width="0.6"></path><line x1="87.0058" y1="82.9113" x2="87.0058" y2="95.2254" stroke="#4D5256" stroke-width="0.6"></line><path d="M89.6278 78.4474C88.4748 83.4709 91.6589 86.5076 87.8125 89.3483C83.9661 92.189 81.1762 81.764 82.34 79.6788C83.5039 77.5936 81.5254 64.7843 86.7761 65.6714C88.2114 65.9139 88.7491 70.3058 88.4748 72.1865C88.2004 74.0673 90.7809 73.4238 89.6278 78.4474Z" fill="#4D5256"></path><path d="M116.457 53.5438L139.581 73.9073C139.892 74.181 139.699 74.6938 139.284 74.6938H116.167H92.3448C91.9273 74.6938 91.7355 74.1743 92.0528 73.903L115.868 53.5395C116.038 53.3941 116.289 53.3959 116.457 53.5438Z" fill="white" stroke="#4D5256" stroke-width="0.6"></path><line x1="93.4426" y1="87.9052" x2="93.4426" y2="95.2255" stroke="#4D5256" stroke-width="0.6"></line><path d="M96.0731 85.1589C96.0731 89.4475 97.5074 91.8536 93.3185 91.8536C90.9519 91.8536 87.9863 88.9081 89.0335 85.8826C90.0806 82.8572 88.2466 77.1285 93.3185 77.6499C95.2168 77.845 96.0731 80.8702 96.0731 85.1589Z" fill="#4D5256"></path><mask id="path-18-inside-1" fill="white"><rect x="108.46" y="94.1013" width="8.2425" height="1.49864" rx="0.374659"></rect></mask><rect x="108.46" y="94.1013" width="8.2425" height="1.49864" rx="0.374659" fill="white" stroke="#4D5256" stroke-width="1.2" mask="url(#path-18-inside-1)"></rect><mask id="path-19-inside-2" fill="white"><rect x="117.291" y="94.1013" width="8.2425" height="1.49864" rx="0.374659"></rect></mask><rect x="117.291" y="94.1013" width="8.2425" height="1.49864" rx="0.374659" fill="white" stroke="#4D5256" stroke-width="1.2" mask="url(#path-19-inside-2)"></rect></g><path d="M120.181 75.678C120.181 92.1752 106.878 105.542 90.4783 105.542C74.0782 105.542 60.7761 92.1752 60.7761 75.678C60.7761 59.1807 74.0782 45.8143 90.4783 45.8143C106.878 45.8143 120.181 59.1807 120.181 75.678Z" stroke="#4D5256" stroke-width="1.6"></path><path d="M90.7301 51.0424C94.1425 53.639 81.5606 54.4362 74.612 63.5678C67.6633 72.6994 67.667 84.3912 64.2546 81.7946C60.8422 79.1979 63.7089 69.6903 70.6576 60.5587C77.6063 51.4272 87.3177 48.4457 90.7301 51.0424Z" fill="#E9E9E9" style="transition: fill 1s ease-out 0s;"></path></g></svg>