<svg width="135" height="135" viewBox="0 0 180 180" fill="none" xmlns="http://www.w3.org/2000/svg" style="display: block; margin: 0px auto -1.75rem; transition: all 1s ease-out 0s; opacity: 1;"><path d="M109.652 51.6408C110.209 50.9809 111.196 50.8975 111.856 51.4546L133.584 69.7981C139.915 75.142 140.714 84.6058 135.37 90.936V90.936C130.026 97.2662 120.562 98.0657 114.232 92.7217L92.5034 74.3783C91.8435 73.8212 91.7601 72.8346 92.3172 72.1747L109.652 51.6408Z" fill="#d6ebcc" style="transition: fill 1s ease-out 0s;"></path><path d="M111.967 59.5786C107.123 69.6569 96.0131 74.1931 87.2374 69.9746C78.4618 65.7562 75.0652 54.2469 79.9099 44.1686C84.7545 34.0903 95.8641 29.5542 104.64 33.7726C113.415 37.991 116.812 49.5003 111.967 59.5786Z" stroke="#4D5256" stroke-width="1.6"></path><path d="M50.8731 130.215L54.7178 132.831C55.4425 133.324 55.6302 134.311 55.1372 135.036C54.6443 135.76 53.6572 135.948 52.9326 135.455L49.0878 132.839L50.8731 130.215Z" fill="white" stroke="#4D5256" stroke-width="1.6"></path><path d="M55.6958 123.125L59.8058 125.921C60.5304 126.414 60.7182 127.401 60.2252 128.125C59.7322 128.85 58.7452 129.038 58.0205 128.545L53.9105 125.749L55.6958 123.125Z" fill="white" stroke="#4D5256" stroke-width="1.6"></path><path d="M105.978 89.1897C103.69 95.4429 97.943 100.328 91.1038 102.551C84.2755 104.771 76.4642 104.301 70.0929 99.9836C70.0918 99.9829 70.0907 99.9822 70.0897 99.9814L63.6203 95.4985C61.519 92.7081 60.0353 89.491 59.2772 86.0804C58.301 81.6889 58.5277 76.9764 60.1888 72.4363C64.8152 59.7919 78.8159 53.2919 91.4603 57.9182C104.105 62.5446 110.605 76.5453 105.978 89.1897Z" fill="white" stroke="#4D5256" stroke-width="1.6" stroke-linecap="round"></path><path d="M37.5935 137.349L64.2615 96.9418L69.5848 100.552L55.1186 121.816L52.4002 125.812L50.0979 129.196L47.6384 132.811L42.3727 140.551C41.4887 141.851 39.7253 142.2 38.4126 141.336C37.0845 140.462 36.7176 138.676 37.5935 137.349Z" fill="white" stroke="#4D5256" stroke-width="1.6"></path><path d="M52.2451 123.7L53.2823 122.349L56.4062 124.556L55.597 125.947L52.2451 123.7Z" fill="white"></path><path d="M47.6462 130.959L48.5271 129.623L51.1273 131.336L50.2465 132.673L47.6462 130.959Z" fill="white"></path><path d="M64.3559 98.2462L65.7354 95.8875L69.8561 98.8103L68.3928 100.873L64.3559 98.2462Z" fill="white"></path><circle cx="86.1411" cy="70.2585" r="4.2" stroke="#4D5256" stroke-width="1.6"></circle><path d="M83.2565 67.1446C83.2565 67.1446 85.5001 71.5 90.5001 70.4999" stroke="#4D5256" stroke-width="1.6"></path><circle cx="108.641" cy="65.7586" r="2.7" transform="rotate(-77.9356 108.641 65.7586)" fill="white" stroke="#4D5256" stroke-width="1.6"></circle><path d="M106.141 67.7586C106.141 67.7586 108.979 65.1064 110.141 63.2585" stroke="#4D5256" stroke-width="1.6"></path><path d="M72.4999 97.5C71.3627 94.1307 79.7979 98.2854 86.8056 95.92C93.8134 93.5546 98.3627 87.6308 99.4999 91C100.637 94.3692 95.1312 97.459 88.1235 99.8244C81.1158 102.19 73.6372 100.869 72.4999 97.5Z" fill="#cdaaea" style="transition: fill 1s ease-out 0s;"></path></svg>