<svg width="135" height="135" viewBox="0 0 180 180" fill="none" xmlns="http://www.w3.org/2000/svg" style="display: block; margin: 0px auto -1.75rem; transition: all 1s ease-out 0s; opacity: 1;"><path d="M114.666 53.8854C101.317 47.5802 85.176 48.5977 72.7345 57.9311C54.6951 71.4639 51.2643 97.3548 65.0715 115.76C66.4147 117.55 67.8715 119.204 69.4238 120.718M123.843 59.7928C126.232 61.8154 128.436 64.1384 130.398 66.7532C144.205 85.1584 140.774 111.049 122.735 124.582C109.164 134.763 91.1921 135.049 77.2425 126.731" stroke-width="1.6" stroke-linecap="round" stroke="#79b2db" style="transition: stroke 1s ease-out 0s;"></path><path d="M123.091 59.4426L123.096 63.094" stroke-width="1.6" stroke-linecap="round" stroke="#79b2db" style="transition: stroke 1s ease-out 0s;"></path><path d="M123.091 59.4432L126.451 58.2297" stroke-width="1.6" stroke-linecap="round" stroke="#79b2db" style="transition: stroke 1s ease-out 0s;"></path><path d="M70.0824 121.552L70.9173 118" stroke-width="1.6" stroke-linecap="round" stroke="#79b2db" style="transition: stroke 1s ease-out 0s;"></path><path d="M70.0817 121.551L66.5314 121.958" stroke-width="1.6" stroke-linecap="round" stroke="#79b2db" style="transition: stroke 1s ease-out 0s;"></path><mask id="mask0" mask-type="alpha" maskUnits="userSpaceOnUse" x="23" y="6" width="108" height="108"><rect x="23" y="6" width="107.577" height="107.577" fill="#C4C4C4"></rect></mask><g mask="url(#)"><path d="M43.3906 58.8H52.6094C53.4879 58.8 54.2 59.5121 54.2 60.3906V74.2H41.8V60.3906C41.8 59.5121 42.5121 58.8 43.3906 58.8Z" fill="white" stroke="#4D5256" stroke-width="1.6"></path><line x1="123.369" y1="97.8948" x2="123.369" y2="113.547" stroke="#4D5256" stroke-width="1.6"></line><path d="M127.124 92.2207C125.326 98.6061 130.29 102.466 124.294 106.077C118.298 109.688 113.949 96.4364 115.763 93.786C117.577 91.1355 114.493 74.8536 122.678 75.9812C124.916 76.2894 125.754 81.8719 125.326 84.2625C124.899 86.6531 128.921 85.8352 127.124 92.2207Z" fill="#4D5256"></path><path d="M43.7812 72.8H107.219C109.418 72.8 111.2 74.5824 111.2 76.7812V113.2H39.8V76.7812C39.8 74.5824 41.5824 72.8 43.7812 72.8Z" fill="#fff0ca" stroke="#4D5256" stroke-width="1.6" style="transition: fill 1s ease-out 0s;"></path><path d="M46.5066 68.6192L46.5168 68.6108L46.5268 68.6021L73.2734 45.1988C73.7091 44.8176 74.3549 44.8018 74.8087 45.1613L111.991 74.6175L113.026 75.5046C113.305 75.7434 113.136 76.2 112.769 76.2H38.3485C37.977 76.2 37.8107 75.734 38.0982 75.4988L46.5066 68.6192Z" fill="white" stroke="#4D5256" stroke-width="1.6"></path><path d="M56.1425 92.8018V108.594H44.3095V92.8018C44.3095 89.5342 46.9584 86.8853 50.226 86.8853C53.4936 86.8853 56.1425 89.5342 56.1425 92.8018Z" fill="white" stroke="#4D5256" stroke-width="1.6"></path><path d="M106.37 92.8018V108.594H94.5373V92.8018C94.5373 89.5342 97.1862 86.8853 100.454 86.8853C103.721 86.8853 106.37 89.5342 106.37 92.8018Z" fill="white" stroke="#4D5256" stroke-width="1.6"></path><path d="M66.9258 92.8618H84.3382C85.2167 92.8618 85.9288 93.5739 85.9288 94.4524V112.777H65.3352V94.4524C65.3352 93.5739 66.0473 92.8618 66.9258 92.8618Z" fill="white" stroke="#4D5256" stroke-width="1.6"></path><path d="M25.9884 112.103C26.1563 114.137 28.8735 113.474 35.8681 113.474C44.1496 113.474 44.0937 113.916 44.0937 112.103C44.0937 111.401 43.3919 109.647 40.8654 109.217C35.8122 109.217 36.6228 107.278 33.873 107.278C29.2217 107.278 25.9884 110.611 25.9884 112.103Z" fill="#4D5256"></path><line x1="36.4519" y1="95.1885" x2="36.4519" y2="111.687" stroke="#4D5256" stroke-width="1.6"></line><path d="M41.5 89C41.5 98.7764 42.5217 104.469 35.7615 104.469C31.9423 104.469 26.6327 100.564 28.8463 90.8576C30.9446 81.6559 27.5764 70.9018 35.7615 72.0903C38.8251 72.5352 41.5 79.2236 41.5 89Z" fill="#4D5256"></path><line x1="26.7883" y1="112.777" x2="124.476" y2="112.777" stroke="#4D5256" stroke-width="1.6" stroke-linecap="round"></line><mask id="path-19-inside-1" fill="white"><rect x="61.8474" y="109.991" width="27.4919" height="3.58591" rx="0.597651"></rect></mask><rect x="61.8474" y="109.991" width="27.4919" height="3.58591" rx="0.597651" fill="white" stroke="#4D5256" stroke-width="2" mask="url(#path-19-inside-1)"></rect><mask id="path-20-inside-2" fill="white"><rect x="63.6404" y="107.003" width="23.906" height="3.58591" rx="0.597651"></rect></mask><rect x="63.6404" y="107.003" width="23.906" height="3.58591" rx="0.597651" fill="white" stroke="#4D5256" stroke-width="2" mask="url(#path-20-inside-2)"></rect></g></svg>