<svg width="150" height="150" viewBox="0 0 180 180" fill="none" xmlns="http://www.w3.org/2000/svg" style="display: block; margin: 0px auto 1rem; transition: all 1s ease-out 0s; opacity: 0.8;"><mask id="mask0" mask-type="alpha" maskUnits="userSpaceOnUse" x="0" y="0" width="180" height="180"><rect width="180" height="180" fill="#C4C4C4"></rect></mask><g mask="url(#mask0)"><line x1="51.8052" y1="178.637" x2="120.204" y2="179.082" stroke="#4D5256" stroke-width="1.6" stroke-linecap="round"></line><rect x="-1.1071" y="0.20528" width="11.6787" height="18.8606" rx="5.83937" transform="matrix(-0.821464 -0.57026 -0.562408 0.82686 116.658 101.359)" fill="white" stroke="#4D5256" stroke-width="1.6"></rect><path d="M128.221 123.669L121.51 123.548C119.598 123.514 118.021 125.036 117.987 126.947L117.772 138.947C117.737 140.858 119.259 142.436 121.17 142.47L127.881 142.59C129.793 142.625 131.37 141.103 131.404 139.192L131.62 127.192C131.654 125.28 130.132 123.703 128.221 123.669Z" fill="white" stroke="#4D5256" stroke-width="1.6"></path><path d="M111.365 174.92L111.371 165.253C111.372 163.341 109.823 161.796 107.911 161.801L100.606 161.823C98.6947 161.829 97.1441 163.383 97.1429 165.295L97.1372 174.962C97.1361 176.874 98.6849 178.419 100.597 178.413L107.902 178.392C109.813 178.386 111.364 176.832 111.365 174.92Z" fill="white" stroke="#4D5256" stroke-width="1.6"></path><path d="M77.7699 174.863L77.9284 167.195C77.9679 165.283 76.4506 163.696 74.5395 163.65L67.236 163.472C65.3248 163.425 63.7436 164.937 63.7041 166.848L63.5456 174.516C63.5062 176.428 65.0234 178.015 66.9345 178.061L74.2381 178.239C76.1492 178.286 77.7305 176.774 77.7699 174.863Z" fill="white" stroke="#4D5256" stroke-width="1.6"></path><path d="M48.5949 134.271C48.217 155.341 64.9154 172.72 85.8843 173.096C104.364 173.427 120.004 160.442 123.714 142.931C124.214 140.574 124.497 138.134 124.542 135.633C124.568 134.165 124.512 132.715 124.377 131.288C124.115 128.517 123.556 125.83 122.734 123.262C117.898 108.154 103.924 97.107 87.2527 96.808C66.2838 96.4319 48.9728 113.201 48.5949 134.271Z" fill="white" stroke="#4D5256" stroke-width="1.6"></path><path d="M124.504 124.781L119.504 124.778L115.893 125.095L115.631 139.743L120.355 141.252L124.878 141.333L127.522 132.63L124.504 124.781Z" fill="white"></path><path d="M76.9999 169L64.5 164L64.9999 169.5L65.7301 170.759L76.5002 174.5L76.9999 169Z" fill="white"></path><ellipse rx="7.25173" ry="1.45035" transform="matrix(-0.999839 -0.017934 -0.017934 0.999839 87.3257 100.259)" fill="#4D5256"></ellipse><ellipse rx="1.84665" ry="1.86587" transform="matrix(-0.999839 -0.017934 -0.017934 0.999839 111.766 120.241)" fill="#4D5256"></ellipse><path d="M104.771 111.251L92.6263 106.135L92.1271 108.225L97.4894 111.871L103.113 113.554L104.771 111.251Z" fill="white"></path><rect x="-0.842777" y="0.75411" width="9.7407" height="13.0755" rx="4.87035" transform="matrix(-0.997271 -0.0568738 -0.0562 0.999511 102.708 97.4563)" fill="white" stroke="#4D5256" stroke-width="1.6"></rect><rect width="16.2215" height="4.78384" transform="matrix(-0.992416 -0.111745 -0.110126 0.995217 106.216 108.653)" fill="white"></rect><path d="M97.4951 161.461H110.5L110 174.5H98.5L97.4951 161.461Z" fill="white"></path><path d="M62.679 137.753C62.679 149.367 68.7157 158.5 65.5 158.5C62.2843 158.5 53.2517 149.367 53.2517 137.753C53.2517 126.138 59.4633 116.723 62.679 116.723C65.8947 116.723 62.679 126.138 62.679 137.753Z" fill="url(#paint0_linear)"></path><path fill-rule="evenodd" clip-rule="evenodd" d="M91.4788 78.5137C96.3462 78.5137 100.292 74.5679 100.292 69.7004C100.292 64.833 96.3462 60.8872 91.4788 60.8872C86.6113 60.8872 82.6655 64.833 82.6655 69.7004C82.6655 74.5679 86.6113 78.5137 91.4788 78.5137Z" fill="#FFFFFF" stroke="#FFFFFF" stroke-width="1.6" style="transition: all 1s ease-out 0s;"></path><path d="M90.8437 74.5584C90.044 74.4831 89.416 74.2102 88.9597 73.7398C88.5081 73.2647 88.2682 72.672 88.24 71.9617H88.9668C89.042 72.5403 89.2702 73.0107 89.6512 73.3729C90.0323 73.7304 90.5497 73.9092 91.2036 73.9092C91.8951 73.9092 92.429 73.7351 92.8053 73.387C93.1817 73.0342 93.3698 72.5826 93.3698 72.0322C93.3698 71.5995 93.2475 71.2608 93.0029 71.0161C92.7583 70.7668 92.4502 70.5669 92.0786 70.4164C91.7069 70.2611 91.3071 70.1294 90.879 70.0212C90.4509 69.9083 90.0511 69.7601 89.6795 69.5767C89.3078 69.3932 88.9997 69.1533 88.7551 68.857C88.5105 68.5559 88.3882 68.1443 88.3882 67.6221C88.3882 67.3352 88.4446 67.0623 88.5575 66.8036C88.6751 66.5402 88.8398 66.305 89.0515 66.098C89.2631 65.891 89.5195 65.7193 89.8206 65.5829C90.1263 65.4418 90.4674 65.3524 90.8437 65.3147V64.0094H91.4929V65.3147C91.841 65.3524 92.1585 65.4441 92.4455 65.5899C92.7371 65.7311 92.9912 65.9145 93.2075 66.1403C93.4239 66.3661 93.5956 66.6272 93.7226 66.9236C93.8544 67.2152 93.9296 67.521 93.9484 67.8409H93.2287C93.1911 67.2999 92.9888 66.853 92.6219 66.5002C92.255 66.1427 91.7822 65.9639 91.2036 65.9639C90.8743 65.9639 90.5803 66.011 90.3216 66.105C90.0628 66.1944 89.8441 66.3167 89.6653 66.472C89.4866 66.6225 89.3478 66.7989 89.249 67.0012C89.1549 67.2035 89.1079 67.4104 89.1079 67.6221C89.1079 68.0361 89.2302 68.3583 89.4748 68.5888C89.7194 68.8146 90.0276 69.0004 90.3992 69.1463C90.7708 69.2874 91.1707 69.4144 91.5987 69.5273C92.0268 69.6355 92.4267 69.786 92.7983 69.9789C93.1699 70.1718 93.478 70.4258 93.7226 70.741C93.972 71.0514 94.0966 71.4819 94.0966 72.0322C94.0966 72.7237 93.8708 73.3 93.4192 73.761C92.9723 74.2173 92.3302 74.4831 91.4929 74.5584V75.8637H90.8437V74.5584Z" fill="white"></path><path fill-rule="evenodd" clip-rule="evenodd" d="M76.5657 54.4228C81.4331 54.4228 85.3789 50.477 85.3789 45.6096C85.3789 40.7422 81.4331 36.7964 76.5657 36.7964C71.6983 36.7964 67.7524 40.7422 67.7524 45.6096C67.7524 50.477 71.6983 54.4228 76.5657 54.4228Z" fill="#FFFFFF" stroke="#FFFFFF" stroke-width="1.6" style="transition: all 1s ease-out 0s;"></path><path d="M76.0144 50.739C75.2147 50.6638 74.5867 50.3909 74.1304 49.9205C73.6788 49.4454 73.4389 48.8527 73.4106 48.1423H74.1374C74.2127 48.7209 74.4408 49.1914 74.8219 49.5536C75.2029 49.9111 75.7204 50.0898 76.3742 50.0898C77.0657 50.0898 77.5997 49.9158 77.976 49.5677C78.3523 49.2149 78.5405 48.7633 78.5405 48.2129C78.5405 47.7801 78.4182 47.4414 78.1736 47.1968C77.929 46.9475 77.6208 46.7476 77.2492 46.597C76.8776 46.4418 76.4777 46.3101 76.0497 46.2019C75.6216 46.089 75.2217 45.9408 74.8501 45.7574C74.4785 45.5739 74.1704 45.334 73.9257 45.0376C73.6811 44.7366 73.5588 44.3249 73.5588 43.8028C73.5588 43.5158 73.6153 43.243 73.7282 42.9843C73.8458 42.7208 74.0104 42.4856 74.2221 42.2786C74.4338 42.0717 74.6902 41.9 74.9912 41.7635C75.297 41.6224 75.638 41.533 76.0144 41.4954V40.19H76.6635V41.4954C77.0117 41.533 77.3292 41.6248 77.6161 41.7706C77.9078 41.9117 78.1618 42.0952 78.3782 42.321C78.5946 42.5468 78.7663 42.8079 78.8933 43.1042C79.025 43.3959 79.1003 43.7016 79.1191 44.0215H78.3994C78.3617 43.4806 78.1595 43.0337 77.7925 42.6809C77.4256 42.3233 76.9529 42.1446 76.3742 42.1446C76.045 42.1446 75.7509 42.1916 75.4922 42.2857C75.2335 42.3751 75.0148 42.4974 74.836 42.6526C74.6572 42.8032 74.5185 42.9796 74.4197 43.1818C74.3256 43.3841 74.2786 43.5911 74.2786 43.8028C74.2786 44.2167 74.4009 44.539 74.6455 44.7695C74.8901 44.9953 75.1982 45.1811 75.5698 45.3269C75.9415 45.468 76.3413 45.5951 76.7694 45.708C77.1975 45.8162 77.5973 45.9667 77.9689 46.1596C78.3406 46.3524 78.6487 46.6064 78.8933 46.9216C79.1426 47.2321 79.2673 47.6625 79.2673 48.2129C79.2673 48.9044 79.0415 49.4807 78.5899 49.9417C78.143 50.398 77.5009 50.6638 76.6635 50.739V52.0444H76.0144V50.739Z" fill="white"></path><path fill-rule="evenodd" clip-rule="evenodd" d="M102.95 32.6265C107.818 32.6265 111.764 28.6806 111.764 23.8132C111.764 18.9458 107.818 15 102.95 15C98.083 15 94.1372 18.9458 94.1372 23.8132C94.1372 28.6806 98.083 32.6265 102.95 32.6265Z" fill="#FFFFFF" stroke="#FFFFFF" stroke-width="1.6" style="transition: all 1s ease-out 0s;"></path><path d="M102.39 28.783C101.591 28.7077 100.963 28.4349 100.506 27.9644C100.055 27.4893 99.8148 26.8966 99.7866 26.1863H100.513C100.589 26.7649 100.817 27.2353 101.198 27.5975C101.579 27.955 102.096 28.1338 102.75 28.1338C103.442 28.1338 103.976 27.9597 104.352 27.6116C104.728 27.2588 104.916 26.8072 104.916 26.2568C104.916 25.8241 104.794 25.4854 104.55 25.2408C104.305 24.9914 103.997 24.7915 103.625 24.641C103.254 24.4857 102.854 24.354 102.426 24.2458C101.998 24.1329 101.598 23.9848 101.226 23.8013C100.854 23.6178 100.546 23.3779 100.302 23.0816C100.057 22.7805 99.9348 22.3689 99.9348 21.8467C99.9348 21.5598 99.9912 21.2869 100.104 21.0282C100.222 20.7648 100.386 20.5296 100.598 20.3226C100.81 20.1156 101.066 19.9439 101.367 19.8075C101.673 19.6664 102.014 19.577 102.39 19.5394V18.234H103.04V19.5394C103.388 19.577 103.705 19.6687 103.992 19.8145C104.284 19.9557 104.538 20.1391 104.754 20.3649C104.971 20.5907 105.142 20.8518 105.269 21.1482C105.401 21.4398 105.476 21.7456 105.495 22.0655H104.775C104.738 21.5245 104.535 21.0776 104.169 20.7248C103.802 20.3673 103.329 20.1885 102.75 20.1885C102.421 20.1885 102.127 20.2356 101.868 20.3297C101.609 20.419 101.391 20.5413 101.212 20.6966C101.033 20.8471 100.894 21.0235 100.796 21.2258C100.702 21.4281 100.655 21.635 100.655 21.8467C100.655 22.2607 100.777 22.5829 101.021 22.8134C101.266 23.0392 101.574 23.225 101.946 23.3709C102.317 23.512 102.717 23.639 103.145 23.7519C103.573 23.8601 103.973 24.0106 104.345 24.2035C104.717 24.3964 105.025 24.6504 105.269 24.9656C105.519 25.276 105.643 25.7065 105.643 26.2568C105.643 26.9484 105.417 27.5246 104.966 27.9856C104.519 28.4419 103.877 28.7077 103.04 28.783V30.0884H102.39V28.783Z" fill="white"></path></g><defs><linearGradient id="paint0_linear" x1="58.3962" y1="116.723" x2="58.3962" y2="158.783" gradientUnits="userSpaceOnUse"><stop stop-color="#F8D4CF"></stop><stop offset="1" stop-color="#FFF2F0"></stop></linearGradient></defs></svg>