<svg width="150" height="150" viewBox="0 0 180 180" fill="none" xmlns="http://www.w3.org/2000/svg" style="display: block; margin: 0px auto 1rem; transition: all 1s ease-out 0s; opacity: 0.8;"><mask id="mask0" mask-type="alpha" maskUnits="userSpaceOnUse" x="0" y="0" width="180" height="180"><rect width="180" height="180" fill="#C4C4C4"></rect></mask><g mask="url(#mask0)"><rect x="127.407" y="132.163" width="2.14701" height="46.0281" rx="1.07351" fill="white" stroke="#4D5256" stroke-width="1.2" stroke-linecap="round"></rect><rect x="96.6144" y="122.98" width="2.14701" height="55.2113" rx="1.07351" fill="white" stroke="#4D5256" stroke-width="1.2" stroke-linecap="round"></rect><rect x="57.7892" y="122.98" width="2.14701" height="55.2113" rx="1.07351" fill="white" stroke="#4D5256" stroke-width="1.2" stroke-linecap="round"></rect><path d="M41.81 96.4597H85.2046C87.1684 96.4597 88.7604 98.0517 88.7604 100.016V122.123C88.7604 124.087 87.1684 125.679 85.2046 125.679H41.3456C39.3525 125.679 37.7486 124.041 37.7905 122.048L38.2549 99.9408C38.2956 98.0065 39.8753 96.4597 41.81 96.4597Z" fill="white" stroke="#4D5256" stroke-width="1.6"></path><path d="M28.1199 108.46C28.1199 101.39 33.8507 95.6597 40.92 95.6597V95.6597C47.9892 95.6597 53.72 101.39 53.72 108.46V126.479H28.1199V108.46Z" fill="#4D5256"></path><rect x="23" y="125.463" width="30.7202" height="1.03765" rx="0.518827" fill="#4D5256"></rect><ellipse cx="80.9553" cy="102.655" rx="1.29076" ry="1.26482" transform="rotate(-180 80.9553 102.655)" fill="#4D5256"></ellipse><rect x="81.6008" y="113.406" width="1.29076" height="10.7509" rx="0.645382" transform="rotate(-180 81.6008 113.406)" fill="#4D5256"></rect><rect x="81.6008" y="112.141" width="1.89723" height="10.3261" rx="0.948613" transform="rotate(90 81.6008 112.141)" fill="#4D5256"></rect><path d="M50.6335 98.1479C56.4372 96.9108 73.5937 97.5981 77.9934 98.1479C82.3931 98.6977 77.9934 98.7665 77.9934 98.7665H50.6335C50.6335 98.7665 50.3222 98.2143 50.6335 98.1479Z" fill="#E3E3E3"></path><ellipse cx="71.925" cy="102.383" rx="1.29076" ry="1.26482" fill="#FFFFFF" style="transition: all 1s ease-out 0s;"></ellipse><rect x="71.2795" y="91.6323" width="1.29076" height="10.7509" rx="0.645382" fill="#FFFFFF" style="transition: all 1s ease-out 0s;"></rect><rect x="71.2795" y="92.897" width="1.89723" height="10.3261" rx="0.948613" transform="rotate(-90 71.2795 92.897)" fill="#FFFFFF" style="transition: all 1s ease-out 0s;"></rect><path d="M73.5781 99.9182H116.973C118.936 99.9182 120.528 101.51 120.528 103.474V125.582C120.528 127.546 118.936 129.138 116.973 129.138H73.1136C71.1205 129.138 69.5167 127.5 69.5585 125.507L70.023 103.399C70.0637 101.465 71.6434 99.9182 73.5781 99.9182Z" fill="white" stroke="#4D5256" stroke-width="1.6"></path><path d="M59.8884 111.918C59.8884 104.849 65.6192 99.1182 72.6885 99.1182V99.1182C79.7578 99.1182 85.4886 104.849 85.4886 111.918V129.938H59.8884V111.918Z" fill="#4D5256"></path><rect x="54.7683" y="128.94" width="30.7202" height="1.03765" rx="0.518827" fill="#4D5256"></rect><ellipse cx="112.723" cy="106.114" rx="1.29076" ry="1.26482" transform="rotate(-180 112.723 106.114)" fill="#4D5256"></ellipse><rect x="113.369" y="116.864" width="1.29076" height="10.7509" rx="0.645382" transform="rotate(-180 113.369 116.864)" fill="#4D5256"></rect><rect x="113.369" y="115.6" width="1.89723" height="10.3261" rx="0.948613" transform="rotate(90 113.369 115.6)" fill="#4D5256"></rect><path d="M85.4423 102.083C91.246 100.846 108.402 101.534 112.802 102.083C117.202 102.633 112.802 102.702 112.802 102.702H85.4423C85.4423 102.702 85.131 102.15 85.4423 102.083Z" fill="#E3E3E3"></path><path d="M102.17 104.069H145.564C147.528 104.069 149.12 105.661 149.12 107.625V129.733C149.12 131.696 147.528 133.288 145.564 133.288H101.705C99.7123 133.288 98.1085 131.651 98.1503 129.658L98.6148 107.55C98.6554 105.616 100.235 104.069 102.17 104.069Z" fill="white" stroke="#4D5256" stroke-width="1.6"></path><ellipse cx="99.925" cy="105.383" rx="1.29076" ry="1.26482" fill="#FFFFFF" style="transition: all 1s ease-out 0s;"></ellipse><rect x="99.2795" y="94.6323" width="1.29076" height="10.7509" rx="0.645382" fill="#FFFFFF" style="transition: all 1s ease-out 0s;"></rect><rect x="99.2795" y="95.8975" width="1.89723" height="10.3261" rx="0.948613" transform="rotate(-90 99.2795 95.8975)" fill="#FFFFFF" style="transition: all 1s ease-out 0s;"></rect><path d="M88.4797 116.069C88.4797 109 94.2105 103.269 101.28 103.269V103.269C108.349 103.269 114.08 109 114.08 116.069V134.088H88.4797V116.069Z" fill="#4D5256"></path><rect x="83.3596" y="133.007" width="30.7202" height="1.03765" rx="0.518827" fill="#4D5256"></rect><path d="M118.104 121.068C113.254 110.514 133.5 117.789 145.55 108.605C149.677 105.46 145.55 128.94 145.55 128.94C145.55 128.94 133.363 132.128 126.806 128.94C122.664 126.925 120.003 125.201 118.104 121.068Z" fill="url(#paint0_linear)" style="transition: all 1s ease-out 0s;"></path><path d="M116.235 106.019C122.038 104.782 139.195 105.469 143.595 106.019C147.994 106.569 143.595 106.638 143.595 106.638H116.235C116.235 106.638 115.923 106.085 116.235 106.019Z" fill="#E9E9E9"></path><ellipse cx="132.925" cy="109.383" rx="1.29076" ry="1.26482" fill="#FFFFFF" style="transition: all 1s ease-out 0s;"></ellipse><rect x="132.28" y="98.6323" width="1.29076" height="10.7509" rx="0.645382" fill="#FFFFFF" style="transition: all 1s ease-out 0s;"></rect><rect x="132.28" y="99.897" width="1.89723" height="10.3261" rx="0.948613" transform="rotate(-90 132.28 99.897)" fill="#FFFFFF" style="transition: all 1s ease-out 0s;"></rect><path d="M133.332 176.519C132.68 177.247 132.361 178.677 131.992 178.453C131.624 178.229 132.647 177.158 133.299 176.429C133.951 175.701 134.779 175.292 135.148 175.515C135.517 175.739 133.984 175.79 133.332 176.519Z" fill="#E9E9E9" style="transition: all 1s ease-out 0s;"></path><path d="M132.986 177.154C132.542 177.65 132.362 178.677 131.993 178.453C131.624 178.229 132.497 177.575 132.941 177.079C133.384 176.583 134.043 176.363 134.412 176.586C134.781 176.81 133.43 176.658 132.986 177.154Z" fill="#E9E9E9" style="transition: all 1s ease-out 0s;"></path><path d="M132.833 176.504C132.408 177.385 132.3 178.417 131.993 178.316C131.686 178.216 131.98 177.31 132.404 176.428C132.829 175.547 133.423 174.913 133.73 175.014C134.037 175.114 133.258 175.622 132.833 176.504Z" fill="#E9E9E9" style="transition: all 1s ease-out 0s;"></path><path d="M132.055 176.826C132.178 177.613 132.383 178.347 132.055 178.382C131.727 178.416 131.757 177.708 131.634 176.921C131.512 176.134 131.678 175.468 132.006 175.433C132.334 175.399 131.933 176.039 132.055 176.826Z" fill="#E9E9E9" style="transition: all 1s ease-out 0s;"></path><path d="M131.508 176.536C131.904 177.339 132.5 178.448 132.033 178.438C131.801 178.516 131.707 177.518 131.311 176.714C130.915 175.911 130.782 175.196 131.014 175.119C131.16 175.312 131.112 175.732 131.508 176.536Z" fill="#E9E9E9" style="transition: all 1s ease-out 0s;"></path><path d="M131.706 176.793C132.288 177.375 132.422 178.138 132.158 178.316C131.895 178.495 131.911 177.669 131.329 177.087C130.747 176.506 129.912 176.241 130.176 176.062C130.439 175.884 131.124 176.211 131.706 176.793Z" fill="#E9E9E9" style="transition: all 1s ease-out 0s;"></path><path d="M94.046 176.918C93.3938 177.647 93.0753 179.076 92.7065 178.852C92.3377 178.629 93.3611 177.557 94.0133 176.829C94.6655 176.1 95.4932 175.691 95.862 175.915C96.2309 176.138 94.6982 176.19 94.046 176.918Z" fill="#E9E9E9" style="transition: all 1s ease-out 0s;"></path><path d="M93.6997 177.553C93.2558 178.049 93.0752 179.076 92.7064 178.852C92.3376 178.629 93.2102 177.974 93.6541 177.478C94.0981 176.983 94.7569 176.762 95.1257 176.986C95.4945 177.209 94.1436 177.058 93.6997 177.553Z" fill="#E9E9E9" style="transition: all 1s ease-out 0s;"></path><path d="M93.5464 176.903C93.1216 177.785 93.0139 178.816 92.7065 178.716C92.3992 178.615 92.6933 177.709 93.1181 176.828C93.5429 175.946 94.1364 175.313 94.4437 175.413C94.751 175.513 93.9712 176.022 93.5464 176.903Z" fill="#E9E9E9" style="transition: all 1s ease-out 0s;"></path><path d="M92.7693 177.226C92.892 178.013 93.0972 178.746 92.7693 178.781C92.4413 178.816 92.4712 178.107 92.3485 177.32C92.2259 176.533 92.3923 175.867 92.7202 175.833C93.0482 175.798 92.6467 176.439 92.7693 177.226Z" fill="#E9E9E9" style="transition: all 1s ease-out 0s;"></path><path d="M92.2215 176.935C92.6175 177.739 93.2137 178.848 92.7462 178.838C92.5143 178.915 92.4206 177.917 92.0246 177.114C91.6287 176.31 91.4957 175.596 91.7277 175.518C91.8731 175.712 91.8256 176.132 92.2215 176.935Z" fill="#E9E9E9" style="transition: all 1s ease-out 0s;"></path><path d="M92.4199 177.193C93.0019 177.775 93.1356 178.537 92.8723 178.716C92.6091 178.894 92.6248 178.069 92.0428 177.487C91.4608 176.905 90.6263 176.64 90.8895 176.462C91.1527 176.283 91.8379 176.611 92.4199 177.193Z" fill="#E9E9E9" style="transition: all 1s ease-out 0s;"></path><path d="M132.185 172.306C129.967 174.597 128.885 179.093 127.631 178.39C126.377 177.686 129.856 174.316 132.074 172.025C134.291 169.734 137.105 168.446 138.359 169.15C139.613 169.853 134.402 170.015 132.185 172.306Z" fill="#E9E9E9" style="transition: all 1s ease-out 0s;"></path><path d="M131.008 174.303C129.499 175.863 128.885 179.092 127.631 178.389C126.377 177.686 129.344 175.627 130.853 174.068C132.363 172.508 134.603 171.814 135.857 172.518C137.11 173.221 132.517 172.744 131.008 174.303Z" fill="#E9E9E9" style="transition: all 1s ease-out 0s;"></path><path d="M130.487 172.259C129.042 175.031 128.676 178.275 127.631 177.96C126.586 177.644 127.586 174.793 129.03 172.021C130.474 169.248 132.492 167.257 133.537 167.572C134.582 167.888 131.931 169.486 130.487 172.259Z" fill="#E9E9E9" style="transition: all 1s ease-out 0s;"></path><path d="M127.844 173.273C128.261 175.748 128.959 178.056 127.844 178.165C126.729 178.274 126.83 176.046 126.413 173.571C125.996 171.096 126.562 169.001 127.677 168.892C128.792 168.783 127.427 170.798 127.844 173.273Z" fill="#E9E9E9" style="transition: all 1s ease-out 0s;"></path><path d="M125.986 172.362C127.332 174.89 129.359 178.378 127.77 178.346C126.981 178.589 126.662 175.451 125.316 172.924C123.97 170.396 123.518 168.15 124.307 167.907C124.801 168.515 124.64 169.835 125.986 172.362Z" fill="#E9E9E9" style="transition: all 1s ease-out 0s;"></path><path d="M126.657 173.17C128.635 175 129.09 177.399 128.195 177.96C127.3 178.521 127.353 175.925 125.375 174.095C123.396 172.265 120.558 171.432 121.453 170.871C122.348 170.31 124.678 171.339 126.657 173.17Z" fill="#E9E9E9" style="transition: all 1s ease-out 0s;"></path><path d="M69.487 172.018C67.2695 174.401 66.1868 179.077 64.9329 178.346C63.6789 177.614 67.1586 174.109 69.3761 171.726C71.5936 169.343 74.4077 168.004 75.6617 168.736C76.9156 169.467 71.7045 169.635 69.487 172.018Z" fill="#E9E9E9" style="transition: all 1s ease-out 0s;"></path><path d="M68.3096 174.096C66.8003 175.718 66.1863 179.077 64.9324 178.345C63.6785 177.614 66.6455 175.473 68.1548 173.851C69.6641 172.229 71.9041 171.507 73.158 172.239C74.412 172.97 69.8189 172.474 68.3096 174.096Z" fill="#E9E9E9" style="transition: all 1s ease-out 0s;"></path><path d="M67.7881 171.969C66.3438 174.853 65.9774 178.227 64.9325 177.899C63.8875 177.571 64.8875 174.605 66.3317 171.722C67.776 168.838 69.7939 166.767 70.8389 167.095C71.8838 167.423 69.2323 169.086 67.7881 171.969Z" fill="#E9E9E9" style="transition: all 1s ease-out 0s;"></path><path d="M65.1454 173.024C65.5624 175.599 66.2604 177.999 65.1454 178.112C64.0304 178.225 64.1317 175.909 63.7147 173.334C63.2977 170.76 63.8636 168.581 64.9786 168.468C66.0936 168.354 64.7284 170.45 65.1454 173.024Z" fill="#E9E9E9" style="transition: all 1s ease-out 0s;"></path><path d="M63.287 172.077C64.6332 174.706 66.6603 178.334 65.0709 178.301C64.2823 178.554 63.9637 175.29 62.6175 172.661C61.2713 170.032 60.8193 167.696 61.6079 167.443C62.1024 168.076 61.9408 169.449 63.287 172.077Z" fill="#E9E9E9" style="transition: all 1s ease-out 0s;"></path><path d="M63.9581 172.917C65.9368 174.82 66.3913 177.316 65.4964 177.899C64.6015 178.482 64.6548 175.783 62.676 173.879C60.6973 171.976 57.86 171.109 58.7549 170.526C59.6497 169.943 61.9793 171.013 63.9581 172.917Z" fill="#E9E9E9" style="transition: all 1s ease-out 0s;"></path><path d="M59.9191 176.004C58.8756 177.169 58.3661 179.457 57.776 179.099C57.1859 178.741 58.8234 177.026 59.8669 175.861C60.9104 174.695 62.2347 174.04 62.8248 174.398C63.4149 174.756 60.9626 174.838 59.9191 176.004Z" fill="#E9E9E9" style="transition: all 1s ease-out 0s;"></path><path d="M59.3656 177.021C58.6553 177.814 58.3664 179.457 57.7763 179.099C57.1862 178.741 58.5825 177.694 59.2927 176.901C60.003 176.107 61.0571 175.754 61.6472 176.112C62.2373 176.47 60.0758 176.227 59.3656 177.021Z" fill="#E9E9E9" style="transition: all 1s ease-out 0s;"></path><path d="M59.1198 175.98C58.4401 177.391 58.2677 179.041 57.7759 178.881C57.2842 178.72 57.7548 177.27 58.4344 175.859C59.1141 174.449 60.0637 173.436 60.5554 173.596C61.0472 173.757 59.7994 174.57 59.1198 175.98Z" fill="#E9E9E9" style="transition: all 1s ease-out 0s;"></path><path d="M57.8764 176.496C58.0726 177.755 58.4011 178.929 57.8764 178.985C57.3517 179.04 57.3993 177.907 57.2031 176.648C57.0069 175.388 57.2732 174.323 57.7979 174.267C58.3226 174.212 57.6802 175.237 57.8764 176.496Z" fill="#E9E9E9" style="transition: all 1s ease-out 0s;"></path><path d="M57.0018 176.033C57.6353 177.319 58.5893 179.093 57.8413 179.077C57.4702 179.201 57.3203 177.604 56.6868 176.319C56.0532 175.033 55.8405 173.89 56.2117 173.766C56.4444 174.076 56.3683 174.747 57.0018 176.033Z" fill="#E9E9E9" style="transition: all 1s ease-out 0s;"></path><path d="M57.3177 176.443C58.2489 177.375 58.4627 178.595 58.0416 178.88C57.6205 179.166 57.6456 177.845 56.7144 176.914C55.7832 175.983 54.448 175.559 54.8691 175.274C55.2902 174.989 56.3865 175.512 57.3177 176.443Z" fill="#E9E9E9" style="transition: all 1s ease-out 0s;"></path><path d="M40.2889 176.429C39.6367 177.158 39.3182 178.587 38.9494 178.364C38.5806 178.14 39.6041 177.068 40.2563 176.34C40.9085 175.611 41.7362 175.202 42.105 175.426C42.4738 175.649 40.9411 175.701 40.2889 176.429Z" fill="#E9E9E9" style="transition: all 1s ease-out 0s;"></path><path d="M39.9431 177.065C39.4992 177.56 39.3186 178.587 38.9498 178.364C38.581 178.14 39.4536 177.485 39.8976 176.99C40.3415 176.494 41.0003 176.273 41.3691 176.497C41.7379 176.72 40.387 176.569 39.9431 177.065Z" fill="#E9E9E9" style="transition: all 1s ease-out 0s;"></path><path d="M39.7896 176.415C39.3648 177.296 39.257 178.328 38.9497 178.227C38.6423 178.127 38.9365 177.221 39.3612 176.339C39.786 175.458 40.3795 174.824 40.6869 174.925C40.9942 175.025 40.2144 175.533 39.7896 176.415Z" fill="#E9E9E9" style="transition: all 1s ease-out 0s;"></path><path d="M39.0122 176.737C39.1349 177.524 39.3402 178.258 39.0122 178.292C38.6843 178.327 38.7141 177.619 38.5914 176.832C38.4688 176.045 38.6352 175.379 38.9632 175.344C39.2911 175.309 38.8896 175.95 39.0122 176.737Z" fill="#E9E9E9" style="transition: all 1s ease-out 0s;"></path><path d="M38.4647 176.446C38.8606 177.25 39.4569 178.359 38.9894 178.349C38.7574 178.426 38.6637 177.428 38.2678 176.625C37.8718 175.821 37.7389 175.107 37.9708 175.03C38.1163 175.223 38.0687 175.643 38.4647 176.446Z" fill="#E9E9E9" style="transition: all 1s ease-out 0s;"></path><path d="M38.6631 176.704C39.2451 177.286 39.3787 178.049 39.1155 178.227C38.8523 178.406 38.868 177.581 38.286 176.999C37.704 176.417 36.8695 176.152 37.1327 175.973C37.3959 175.795 38.0811 176.122 38.6631 176.704Z" fill="#E9E9E9" style="transition: all 1s ease-out 0s;"></path><path d="M101.593 172.299C99.376 174.592 98.2933 179.092 97.0393 178.388C95.7854 177.684 99.265 174.311 101.483 172.018C103.7 169.725 106.514 168.437 107.768 169.141C109.022 169.845 103.811 170.006 101.593 172.299Z" fill="#E9E9E9" style="transition: all 1s ease-out 0s;"></path><path d="M100.417 174.299C98.9072 175.86 98.2933 179.092 97.0393 178.388C95.7854 177.684 98.7524 175.623 100.262 174.063C101.771 172.502 104.011 171.808 105.265 172.512C106.519 173.216 101.926 172.738 100.417 174.299Z" fill="#E9E9E9" style="transition: all 1s ease-out 0s;"></path><path d="M99.895 172.252C98.4507 175.027 98.0844 178.274 97.0394 177.958C95.9944 177.643 96.9944 174.789 98.4387 172.014C99.8829 169.24 101.901 167.246 102.946 167.562C103.991 167.878 101.339 169.478 99.895 172.252Z" fill="#E9E9E9" style="transition: all 1s ease-out 0s;"></path><path d="M97.2524 173.268C97.6694 175.745 98.3673 178.055 97.2523 178.164C96.1373 178.273 96.2386 176.043 95.8216 173.566C95.4046 171.089 95.9705 168.992 97.0855 168.883C98.2005 168.774 96.8354 170.79 97.2524 173.268Z" fill="#E9E9E9" style="transition: all 1s ease-out 0s;"></path><path d="M95.3942 172.356C96.7404 174.886 98.7675 178.377 97.1781 178.345C96.3895 178.589 96.0709 175.448 94.7247 172.918C93.3785 170.389 92.9265 168.14 93.7151 167.897C94.2096 168.506 94.048 169.827 95.3942 172.356Z" fill="#E9E9E9" style="transition: all 1s ease-out 0s;"></path><path d="M96.0653 173.164C98.044 174.996 98.4985 177.397 97.6036 177.958C96.7087 178.52 96.762 175.922 94.7832 174.09C92.8044 172.258 89.9671 171.424 90.862 170.863C91.7569 170.302 94.0865 171.332 96.0653 173.164Z" fill="#E9E9E9" style="transition: all 1s ease-out 0s;"></path><line x1="33.9296" y1="178.674" x2="155.33" y2="178.674" stroke="#4D5256" stroke-width="1.6" stroke-linecap="round"></line></g><defs><linearGradient id="paint0_linear" x1="160.559" y1="111.158" x2="113.157" y2="125.65" gradientUnits="userSpaceOnUse"><stop stop-color="#F8D68F"></stop><stop offset="1" stop-color="#FAEBC5"></stop></linearGradient></defs></svg>