<svg width="150" height="150" viewBox="0 0 180 180" fill="none" xmlns="http://www.w3.org/2000/svg" style="display: block; margin: 0px auto 1rem; transition: all 1s ease-out 0s; opacity: 0.8;"><mask id="mask0" mask-type="alpha" maskUnits="userSpaceOnUse" x="0" y="0" width="180" height="180"><rect width="180" height="180" fill="#C4C4C4"></rect></mask><g mask="url(#mask0)"><line x1="36.8" y1="179.2" x2="128.788" y2="179.2" stroke="#4D5256" stroke-width="1.6" stroke-linecap="round"></line><path d="M130.347 137.856C130.347 137.856 140.766 128.889 142.85 120.563C144.154 120.071 159.519 158.992 161.603 162.835" stroke="#4D5256"></path><path d="M132.217 137.455C132.491 137.029 132.358 136.48 131.934 136.202V136.202C131.507 135.923 130.935 136.043 130.656 136.469L103.986 177.239C103.986 177.239 103.16 181.396 105.524 178.245C108.966 173.659 128.856 142.693 132.217 137.455Z" fill="#4D5256"></path><path d="M120.263 155.749C120.745 155.47 121.136 155.401 121.432 155.439C121.723 155.476 121.971 155.62 122.17 155.865C122.328 156.06 122.391 156.427 122.181 156.971C121.977 157.499 121.544 158.096 120.912 158.609C120.28 159.122 119.607 159.423 119.047 159.513C118.482 159.605 118.138 159.474 117.976 159.284C118.026 159.198 118.133 159.08 118.348 158.853C118.775 158.403 119.413 157.724 119.74 156.599C119.864 156.173 120.029 155.885 120.263 155.749Z" fill="white" stroke="#4D5256"></path><circle cx="120.8" cy="156.849" r="0.403965" transform="rotate(164.987 120.8 156.849)" fill="#4D5256"></circle><rect x="121.882" y="160.113" width="0.403965" height="3.4337" rx="0.201982" transform="rotate(164.987 121.882 160.113)" fill="#4D5256"></rect><rect x="121.779" y="159.723" width="0.605947" height="3.23172" rx="0.302974" transform="rotate(74.9866 121.779 159.723)" fill="#4D5256"></rect><path d="M170.969 164.027C170.192 163.693 168.828 163.702 168.828 163.702L173.781 171.715C173.781 171.715 174.455 170.871 174.598 170.222C174.763 169.477 174.605 169.011 174.384 168.281C174.11 167.37 173.741 166.93 173.169 166.17C172.449 165.211 172.071 164.501 170.969 164.027Z" fill="#E9E9E9" stroke="#E9E9E9" stroke-width="1.6" style="transition: all 1s ease-out 0s;"></path><path d="M163.143 171.769C162.791 171.145 162.864 169.956 162.864 169.956L169.558 173.722C169.558 173.722 168.238 174.472 167.327 174.419C166.207 174.354 165.751 173.645 164.816 173.024C164.136 172.572 163.544 172.481 163.143 171.769Z" fill="#E9E9E9" stroke="#E9E9E9" stroke-width="1.6" style="transition: all 1s ease-out 0s;"></path><path d="M167.187 162.564C165.716 162.036 163.543 161.904 162.299 161.873C161.743 161.86 161.282 162.278 161.245 162.833C161.194 163.619 161.167 164.701 161.33 165.354C161.609 166.469 161.551 166.918 161.888 167.864C162.279 168.966 162.601 169.564 163.282 170.514C164.09 171.641 164.61 172.3 165.793 173.024C167.235 173.908 168.313 173.839 169.977 174.14C171.592 174.432 174.16 174.558 174.16 174.558C174.16 174.558 173.964 172.594 173.742 171.351C173.457 169.751 173.488 168.762 172.766 167.306C172.01 165.782 171.346 164.969 169.977 163.959C168.996 163.237 168.333 162.976 167.187 162.564Z" fill="#CEE4E9" stroke="#E9E9E9" stroke-width="1.6" style="transition: all 1s ease-out 0s;"></path><path d="M173.463 175.117C173.56 174.661 173.573 174.349 173.881 174.001C174.204 173.636 174.524 173.561 174.997 173.443C175.525 173.311 175.859 173.329 176.392 173.443C176.638 173.496 176.929 173.621 177.169 173.74C177.372 173.841 177.354 174.124 177.145 174.212L174.997 175.117L174.115 177.321C174.025 177.545 173.719 177.553 173.632 177.327C173.563 177.149 173.498 176.956 173.463 176.79C173.327 176.151 173.327 175.756 173.463 175.117Z" fill="#E9E9E9" stroke="#E9E9E9" stroke-width="1.6" style="transition: all 1s ease-out 0s;"></path><circle cx="165.316" cy="164.872" r="0.316176" fill="#E9E9E9" style="transition: all 1s ease-out 0s;"></circle><path d="M62.6122 162.204L54.3065 102.422C54.2636 102.113 54.4177 101.81 54.6925 101.663L59.8573 98.899C60.3253 98.6485 60.8975 98.9544 60.9492 99.4827L65.7988 149.057C65.8361 149.438 66.1566 149.728 66.5396 149.728H68.788C69.2195 149.728 69.5605 149.363 69.5305 148.932L65.9036 96.8861C65.8805 96.5545 66.08 96.2478 66.3925 96.1346L71.324 94.3478C71.7985 94.1759 72.3029 94.516 72.3214 95.0204L74.3031 149.159C74.3183 149.574 74.6709 149.896 75.086 149.875L77.1479 149.766C77.5485 149.745 77.8603 149.41 77.8529 149.009L76.8567 94.758C76.849 94.3416 77.1844 94 77.6008 94H82.5179C82.929 94 83.2622 94.3332 83.2622 94.7443V149.17C83.2622 149.581 83.5954 149.914 84.0065 149.914H85.5194C85.9208 149.914 86.2499 149.596 86.2633 149.195L88.0673 94.9847C88.0837 94.491 88.5679 94.1499 89.0383 94.3007L94.7941 96.1455C95.1237 96.2512 95.3369 96.5699 95.3088 96.9148L91.0498 149.11C91.0145 149.543 91.3567 149.914 91.7917 149.914H93.6483C94.0355 149.914 94.3581 149.617 94.39 149.232L98.6029 98.4085C98.6495 97.8464 99.2799 97.5384 99.752 97.847L105.568 101.65C105.809 101.807 105.938 102.09 105.898 102.375L97.5858 162.204C97.5347 162.572 97.2201 162.846 96.8486 162.846H63.3494C62.9779 162.846 62.6633 162.572 62.6122 162.204Z" fill="white" stroke="#4D5256" stroke-width="1.6"></path><path d="M50.9672 128.516H37.4886C36.6665 128.516 36 129.183 36 130.005V132.051C36 132.874 36.6665 133.54 37.4886 133.54H45.5858C46.4422 133.54 47.122 134.261 47.0718 135.116L44.5587 177.924C44.5086 178.779 45.1883 179.5 46.0448 179.5H49.8748C50.6152 179.5 51.243 178.956 51.3483 178.223L53.3072 164.588C53.4125 163.855 54.0403 163.311 54.7807 163.311H79.9128H105.03C105.736 163.311 106.344 163.807 106.487 164.498L109.346 178.313C109.489 179.004 110.097 179.5 110.803 179.5H114.39C115.262 179.5 115.947 178.754 115.873 177.885L112.24 135.155C112.167 134.286 112.852 133.54 113.724 133.54H122.709C123.531 133.54 124.198 132.874 124.198 132.051V130.005C124.198 129.183 123.531 128.516 122.709 128.516H107.73C106.908 128.516 106.242 129.183 106.242 130.005V146.844C106.242 147.666 105.575 148.333 104.753 148.333H54.8978C54.1082 148.333 53.456 147.716 53.4116 146.928L52.4534 129.921C52.409 129.133 51.7568 128.516 50.9672 128.516Z" fill="white" stroke="#4D5256" stroke-width="1.6"></path><path d="M58.1997 127.53L57.4147 121.687H102.791L101.822 127.53H58.1997Z" fill="white" stroke="#4D5256" stroke-width="1.6"></path><path d="M53.5152 152.522C55.9319 150.821 83.7213 149.97 99.4285 152.522C101.772 152.903 109.094 161.029 99.4285 161.029C89.7628 161.029 53.5152 161.029 53.5152 161.029C53.5152 161.029 51.0986 154.224 53.5152 152.522Z" fill="#FFFFFF" style="transition: all 1s ease-out 0s;"></path><path d="M110.618 129.412H122C122 129.412 123.265 129.412 122 130.676C120.735 131.941 112.515 132.573 110.618 130.676C110.269 130.327 110.618 129.412 110.618 129.412Z" fill="url(#paint0_linear)"></path><path d="M110.773 129.412H122.155C122.155 129.412 123.42 129.412 122.155 130.676C120.89 131.941 112.67 132.573 110.773 130.676C110.424 130.327 110.773 129.412 110.773 129.412Z" fill="#FFFFFF" style="transition: all 1s ease-out 0s;"></path><path d="M110.773 129.412H122.155C122.155 129.412 123.42 129.412 122.155 130.676C120.89 131.941 112.67 132.573 110.773 130.676C110.424 130.327 110.773 129.412 110.773 129.412Z" fill="#FFFFFF" style="transition: all 1s ease-out 0s;"></path><path d="M109.827 163.951C110.117 163.582 112.349 163.752 112.349 163.752C112.349 163.752 112.823 175.703 113.412 177.257C114 178.812 110.89 177.456 110.89 177.456C110.89 177.456 107.772 166.574 109.827 163.951Z" fill="#FFFFFF" style="transition: all 1s ease-out 0s;"></path><path d="M101.753 103.137C102.059 102.798 103.002 103.339 103.002 103.339C103.002 103.339 101.661 116.162 100.468 118.993C99.2751 121.824 99.2195 118.791 99.2195 118.791C99.2195 118.791 99.745 105.364 101.753 103.137Z" fill="#FFFFFF" style="transition: all 1s ease-out 0s;"></path><path d="M99.7753 128.54C100.009 128.145 100.619 128.677 100.619 128.677L97.7899 146.155C97.7899 146.155 98.8577 146.575 96.9462 146.018C95.0347 145.462 98.2407 131.141 99.7753 128.54Z" fill="#FFFFFF" style="transition: all 1s ease-out 0s;"></path></g><defs><linearGradient id="paint0_linear" x1="116.309" y1="131.941" x2="116.309" y2="127.515" gradientUnits="userSpaceOnUse"><stop stop-color="#AFD69A"></stop><stop offset="0.635745" stop-color="#FFFFFF"></stop></linearGradient></defs></svg>