<svg width="125" height="125" viewBox="0 0 180 180" fill="none" xmlns="http://www.w3.org/2000/svg" style="display: block; margin: 0px auto 1rem; transition: all 1s ease-out 0s; opacity: 0.8;"><mask id="mask0" mask-type="alpha" maskUnits="userSpaceOnUse" x="0" y="0" width="180" height="180"><rect width="180" height="180" fill="#C4C4C4"></rect></mask><g mask="url(#mask0)"><line x1="5.8" y1="179.332" x2="174.2" y2="179.332" stroke="#4D5256" stroke-width="1.6" stroke-linecap="round"></line><path d="M69 68.8H106C109.976 68.8 113.2 72.0236 113.2 76V179.2H61.8V76C61.8 72.0236 65.0236 68.8 69 68.8Z" fill="#e9e9e9" stroke="#4D5256" stroke-width="1.6" style="transition: all 1s ease-out 0s;"></path><path d="M109.2 96.5V103.2H65.8V96.5C65.8 84.5154 75.5154 74.8 87.5 74.8C99.4846 74.8 109.2 84.5154 109.2 96.5Z" fill="white" stroke="#4D5256" stroke-width="1.6"></path><rect x="65.8" y="112.8" width="19.4" height="28.4" rx="1.2" fill="white" stroke="#4D5256" stroke-width="1.6"></rect><rect x="89.8" y="112.8" width="19.4" height="28.4" rx="1.2" fill="white" stroke="#4D5256" stroke-width="1.6"></rect><path d="M99.2 164V179.2H76.8V164C76.8 157.814 81.8144 152.8 88 152.8C94.1856 152.8 99.2 157.814 99.2 164Z" fill="white" stroke="#4D5256" stroke-width="1.6"></path><path d="M15 68.8H52C55.9764 68.8 59.2 72.0236 59.2 76V179.2H7.8V76C7.8 72.0236 11.0236 68.8 15 68.8Z" fill="#e9e9e9" stroke="#4D5256" stroke-width="1.6" style="transition: all 1s ease-out 0s;"></path><path d="M55.2 96.5V103.2H11.8V96.5C11.8 84.5154 21.5154 74.8 33.5 74.8C45.4846 74.8 55.2 84.5154 55.2 96.5Z" fill="white" stroke="#4D5256" stroke-width="1.6"></path><rect x="11.8" y="112.8" width="19.4" height="28.4" rx="1.2" fill="white" stroke="#4D5256" stroke-width="1.6"></rect><rect x="35.8" y="112.8" width="19.4" height="28.4" rx="1.2" fill="white" stroke="#4D5256" stroke-width="1.6"></rect><path d="M45.2 164V179.2H22.8V164C22.8 157.814 27.8144 152.8 34 152.8C40.1856 152.8 45.2 157.814 45.2 164Z" fill="white" stroke="#4D5256" stroke-width="1.6"></path><path d="M123 68.8H160C163.976 68.8 167.2 72.0236 167.2 76V179.2H115.8V76C115.8 72.0236 119.024 68.8 123 68.8Z" fill="#e9e9e9" stroke="#4D5256" stroke-width="1.6" style="transition: all 1s ease-out 0s;"></path><path d="M163.2 96.5V103.2H119.8V96.5C119.8 84.5154 129.515 74.8 141.5 74.8C153.485 74.8 163.2 84.5154 163.2 96.5Z" fill="white" stroke="#4D5256" stroke-width="1.6"></path><rect x="119.8" y="112.8" width="19.4" height="28.4" rx="1.2" fill="white" stroke="#4D5256" stroke-width="1.6"></rect><rect x="143.8" y="112.8" width="19.4" height="28.4" rx="1.2" fill="white" stroke="#4D5256" stroke-width="1.6"></rect><path d="M153.2 164V179.2H130.8V164C130.8 157.814 135.814 152.8 142 152.8C148.186 152.8 153.2 157.814 153.2 164Z" fill="white" stroke="#4D5256" stroke-width="1.6"></path><line x1="171.165" y1="153.76" x2="171.165" y2="179.95" stroke="#4D5256" stroke-width="1.6"></line><path d="M178.164 144.266C175.087 154.95 183.586 161.408 173.319 167.45C163.053 173.492 155.606 151.32 158.713 146.885C161.819 142.45 156.538 115.207 170.553 117.093C174.384 117.609 175.819 126.95 175.087 130.95C174.355 134.95 181.242 133.581 178.164 144.266Z" fill="#4D5256"></path><mask id="path-20-inside-1" fill="white"><rect x="74" y="175" width="28" height="5" rx="1"></rect></mask><rect x="74" y="175" width="28" height="5" rx="1" fill="white" stroke="#4D5256" stroke-width="3.2" mask="url(#path-20-inside-1)"></rect><mask id="path-21-inside-2" fill="white"><rect x="19" y="175" width="28" height="5" rx="1"></rect></mask><rect x="19" y="175" width="28" height="5" rx="1" fill="white" stroke="#4D5256" stroke-width="3.2" mask="url(#path-21-inside-2)"></rect><mask id="path-22-inside-3" fill="white"><rect x="128" y="175" width="28" height="5" rx="1"></rect></mask><rect x="128" y="175" width="28" height="5" rx="1" fill="white" stroke="#4D5256" stroke-width="3.2" mask="url(#path-22-inside-3)"></rect><line x1="59.3459" y1="152.81" x2="59.3459" y2="179" stroke="#4D5256" stroke-width="1.6"></line><path d="M66.3452 143.316C66.3452 158.835 70.3085 167.542 58.7337 167.542C52.1945 167.542 43.1034 161.344 46.8935 145.935C50.4862 131.328 44.7191 114.257 58.7337 116.144C63.9791 116.85 66.3452 127.797 66.3452 143.316Z" fill="#4D5256"></path><line x1="115.346" y1="153.81" x2="115.346" y2="180" stroke="#4D5256" stroke-width="1.6"></line><path d="M122.345 144.316C122.345 159.835 126.309 168.542 114.734 168.542C108.194 168.542 99.1034 162.344 102.893 146.935C106.486 132.328 100.719 115.257 114.734 117.144C119.979 117.85 122.345 128.797 122.345 144.316Z" fill="#4D5256"></path><path d="M49 178.072C49.204 180.732 52.5057 179.865 61.005 179.865C71.0679 179.865 71 180.443 71 178.072C71 177.155 70.1472 174.862 67.0772 174.3C60.9371 174.3 60.5026 173 57.1613 173C51.5095 173 49 176.122 49 178.072Z" fill="#4D5256"></path><path d="M104 178.072C104.204 180.732 107.506 179.865 116.005 179.865C126.068 179.865 126 180.443 126 178.072C126 177.155 125.147 174.862 122.077 174.3C115.937 174.3 115.503 173 112.161 173C106.509 173 104 176.122 104 178.072Z" fill="#4D5256"></path></g></svg>