<svg width="128" height="31" viewBox="0 0 128 31" fill="none" xmlns="http://www.w3.org/2000/svg">
<path fill-rule="evenodd" clip-rule="evenodd" d="M7.26455 23.0659C8.44384 23.0659 9.48522 22.8234 10.3887 22.3384C11.2922 21.8533 12.0007 21.2399 12.5143 20.4981V22.8091H16.5372V7.00287H12.5143V9.25683C11.9817 8.53404 11.2732 7.93489 10.3887 7.45937C9.50425 6.98385 8.47237 6.74609 7.29308 6.74609C5.94261 6.74609 4.72053 7.07896 3.62683 7.74468C2.53314 8.41041 1.6677 9.36145 1.0305 10.5978C0.393305 11.8341 0.074707 13.2512 0.074707 14.8489C0.074707 16.4657 0.393305 17.897 1.0305 19.1429C1.6677 20.3887 2.53314 21.354 3.62683 22.0388C4.72053 22.7235 5.9331 23.0659 7.26455 23.0659ZM8.32049 19.5565C7.5977 19.5565 6.9177 19.3663 6.28051 18.9859C5.64331 18.6055 5.12975 18.0586 4.73983 17.3453C4.3499 16.6321 4.15494 15.7999 4.15494 14.8489C4.15494 13.8978 4.3499 13.0752 4.73983 12.3809C5.12975 11.6867 5.63856 11.1588 6.26624 10.7974C6.89393 10.436 7.57868 10.2554 8.32049 10.2554C9.06229 10.2554 9.75655 10.4408 10.4033 10.8117C11.05 11.1826 11.5635 11.7152 11.9439 12.4095C12.3244 13.1037 12.5146 13.9359 12.5146 14.9059C12.5146 15.876 12.3244 16.7081 11.9439 17.4024C11.5635 18.0967 11.05 18.6292 10.4033 19.0001C9.75655 19.371 9.06229 19.5565 8.32049 19.5565ZM24.4398 20.5552V30.3414H20.4454V7.00291H24.4398V9.2854C24.9533 8.56261 25.6619 7.9587 26.5654 7.47368C27.4688 6.98865 28.5007 6.74613 29.661 6.74613C31.0115 6.74613 32.2335 7.07899 33.3272 7.74472C34.4209 8.41045 35.2864 9.35673 35.9236 10.5836C36.5608 11.8104 36.8794 13.2322 36.8794 14.849C36.8794 16.4657 36.5608 17.897 35.9236 19.1429C35.2864 20.3888 34.4209 21.3541 33.3272 22.0388C32.2335 22.7236 31.0115 23.0659 29.661 23.0659C28.5007 23.0659 27.4783 22.8282 26.5939 22.3527C25.7094 21.8771 24.9914 21.278 24.4398 20.5552ZM28.6058 19.5565C27.883 19.5565 27.203 19.371 26.5658 19.0001C25.9286 18.6292 25.4151 18.0919 25.0251 17.3881C24.6352 16.6844 24.4402 15.857 24.4402 14.9059C24.4402 13.9549 24.6352 13.1275 25.0251 12.4237C25.4151 11.7199 25.9286 11.1826 26.5658 10.8117C27.203 10.4408 27.883 10.2554 28.6058 10.2554C29.3476 10.2554 30.0371 10.436 30.6743 10.7974C31.3115 11.1588 31.825 11.6867 32.215 12.3809C32.6049 13.0752 32.7999 13.8978 32.7999 14.8489C32.7999 15.8189 32.6049 16.6558 32.215 17.3596C31.825 18.0634 31.3115 18.6055 30.6743 18.9859C30.0371 19.3663 29.3476 19.5565 28.6058 19.5565ZM43.7857 20.5552V30.3414H39.7913V7.00291H43.7857V9.2854C44.2992 8.56261 45.0078 7.9587 45.9113 7.47368C46.8147 6.98865 47.8466 6.74613 49.0069 6.74613C50.3574 6.74613 51.5794 7.07899 52.6731 7.74472C53.7668 8.41045 54.6323 9.35673 55.2695 10.5836C55.9067 11.8104 56.2253 13.2322 56.2253 14.849C56.2253 16.4657 55.9067 17.897 55.2695 19.1429C54.6323 20.3888 53.7668 21.3541 52.6731 22.0388C51.5794 22.7236 50.3574 23.0659 49.0069 23.0659C47.8466 23.0659 46.8242 22.8282 45.9398 22.3527C45.0553 21.8771 44.3373 21.278 43.7857 20.5552ZM47.9498 19.5565C47.227 19.5565 46.547 19.371 45.9098 19.0001C45.2726 18.6292 44.7591 18.0919 44.3691 17.3881C43.9792 16.6844 43.7842 15.857 43.7842 14.9059C43.7842 13.9549 43.9792 13.1275 44.3691 12.4237C44.7591 11.7199 45.2726 11.1826 45.9098 10.8117C46.547 10.4408 47.227 10.2554 47.9498 10.2554C48.6916 10.2554 49.3811 10.436 50.0183 10.7974C50.6555 11.1588 51.169 11.6867 51.559 12.3809C51.9489 13.0752 52.1439 13.8978 52.1439 14.8489C52.1439 15.8189 51.9489 16.6558 51.559 17.3596C51.169 18.0634 50.6555 18.6055 50.0183 18.9859C49.3811 19.3663 48.6916 19.5565 47.9498 19.5565ZM63.1278 14.9343V22.8089H59.1334V7.00262H63.1278V9.4563C63.6414 8.61938 64.3118 7.96317 65.1392 7.48765C65.9666 7.01213 66.9129 6.77437 67.9781 6.77437V10.9684H66.9224C65.6671 10.9684 64.7208 11.2633 64.0836 11.8529C63.4464 12.4426 63.1278 13.4697 63.1278 14.9343ZM77.6795 23.0659C79.2202 23.0659 80.6135 22.7283 81.8593 22.0531C83.1052 21.3778 84.0943 20.4221 84.8266 19.1857C85.5589 17.9494 85.925 16.5228 85.925 14.906C85.925 13.2893 85.5684 11.8627 84.8551 10.6264C84.1418 9.39002 83.167 8.43422 81.9307 7.75899C80.6943 7.08375 79.3153 6.74613 77.7936 6.74613C76.272 6.74613 74.893 7.08375 73.6566 7.75899C72.4203 8.43422 71.4455 9.39002 70.7322 10.6264C70.0189 11.8627 69.6623 13.2893 69.6623 14.906C69.6623 16.5228 70.0094 17.9494 70.7037 19.1857C71.3979 20.4221 72.3537 21.3778 73.571 22.0531C74.7884 22.7283 76.1579 23.0659 77.6795 23.0659ZM74.841 18.3726C75.5923 19.181 76.5386 19.5852 77.6799 19.5852C78.4026 19.5852 79.0826 19.4093 79.7198 19.0574C80.357 18.7055 80.8658 18.1777 81.2462 17.4739C81.6267 16.7701 81.8169 15.9142 81.8169 14.9061C81.8169 13.4035 81.4222 12.248 80.6328 11.4396C79.8435 10.6312 78.8782 10.227 77.7369 10.227C76.5957 10.227 75.6399 10.6312 74.8695 11.4396C74.0992 12.248 73.714 13.4035 73.714 14.9061C73.714 16.4088 74.0897 17.5643 74.841 18.3726Z" fill="white"/>
<path fill-rule="evenodd" clip-rule="evenodd" d="M121.374 22.3384C120.471 22.8234 119.429 23.0659 118.25 23.0659C116.919 23.0659 115.706 22.7235 114.612 22.0388C113.519 21.354 112.653 20.3887 112.016 19.1429C111.379 17.897 111.06 16.4657 111.06 14.8489C111.06 13.2512 111.379 11.8341 112.016 10.5978C112.653 9.36145 113.519 8.41041 114.612 7.74468C115.706 7.07896 116.928 6.74609 118.279 6.74609C119.458 6.74609 120.49 6.98385 121.374 7.45937C122.259 7.93489 122.967 8.53404 123.5 9.25683V7.00287H127.523V22.8091H123.5V20.4981C122.986 21.2399 122.278 21.8533 121.374 22.3384ZM117.266 18.9859C117.903 19.3663 118.583 19.5565 119.306 19.5565C120.048 19.5565 120.742 19.3711 121.389 19.0002C122.036 18.6293 122.549 18.0967 122.93 17.4024C123.31 16.7082 123.5 15.876 123.5 14.9059C123.5 13.9359 123.31 13.1037 122.93 12.4095C122.549 11.7152 122.036 11.1826 121.389 10.8117C120.742 10.4408 120.048 10.2554 119.306 10.2554C118.564 10.2554 117.88 10.4361 117.252 10.7975C116.624 11.1589 116.115 11.6867 115.726 12.3809C115.336 13.0752 115.141 13.8978 115.141 14.8489C115.141 15.7999 115.336 16.6321 115.726 17.3454C116.115 18.0586 116.629 18.6055 117.266 18.9859Z" fill="white"/>
<path d="M93.2545 22.615H101.397L103.286 19.1399L106.818 12.6691C109.549 7.64841 113.938 3.73086 119.235 1.58474L121.766 0.557618H119.917C110.873 0.555623 102.552 5.50188 98.2331 13.448L97.7767 14.2868L93.2545 22.615Z" fill="url(#paint0_linear_20_18)"/>
<path d="M86.1535 5.97559L93.2863 22.6149H101.452L97.0638 12.572C94.7435 8.2941 91.4684 6.13958 86.6043 5.98415C86.4559 5.97844 86.3047 5.97559 86.1535 5.97559Z" fill="#76D687"/>
<defs>
<linearGradient id="paint0_linear_20_18" x1="121.771" y1="22.6158" x2="93.2545" y2="22.6158" gradientUnits="userSpaceOnUse">
<stop stop-color="#76D687"/>
<stop offset="1" stop-color="#2F9C43"/>
</linearGradient>
</defs>
</svg>
