<svg width="128" height="31" viewBox="0 0 128 31" fill="none" xmlns="http://www.w3.org/2000/svg">
<path fill-rule="evenodd" clip-rule="evenodd" d="M7.73867 23.1167C8.91796 23.1167 9.95935 22.8742 10.8628 22.3891C11.7663 21.9041 12.4748 21.2907 12.9884 20.5489V22.8599H17.0113V7.05366H12.9884V9.30761C12.4558 8.58483 11.7473 7.98567 10.8628 7.51015C9.97837 7.03463 8.94649 6.79688 7.7672 6.79688C6.41673 6.79688 5.19465 7.12974 4.10095 7.79546C3.00726 8.46119 2.14182 9.41223 1.50462 10.6486C0.867426 11.8849 0.548828 13.302 0.548828 14.8997C0.548828 16.5165 0.867426 17.9478 1.50462 19.1937C2.14182 20.4395 3.00726 21.4048 4.10095 22.0896C5.19465 22.7743 6.40722 23.1167 7.73867 23.1167ZM8.79461 19.607C8.07182 19.607 7.39183 19.4168 6.75463 19.0364C6.11744 18.656 5.60388 18.1091 5.21395 17.3958C4.82403 16.6826 4.62907 15.8504 4.62907 14.8994C4.62907 13.9483 4.82403 13.1257 5.21395 12.4314C5.60388 11.7372 6.11268 11.2093 6.74037 10.848C7.36805 10.4866 8.0528 10.3059 8.79461 10.3059C9.53642 10.3059 10.2307 10.4913 10.8774 10.8622C11.5241 11.2331 12.0376 11.7657 12.4181 12.46C12.7985 13.1542 12.9887 13.9864 12.9887 14.9564C12.9887 15.9265 12.7985 16.7587 12.4181 17.4529C12.0376 18.1472 11.5241 18.6798 10.8774 19.0507C10.2307 19.4216 9.53642 19.607 8.79461 19.607ZM24.9139 20.6059V30.3921H20.9195V7.05366H24.9139V9.33615C25.4275 8.61336 26.136 8.00945 27.0395 7.52442C27.943 7.03939 28.9748 6.79688 30.1351 6.79688C31.4856 6.79688 32.7077 7.12974 33.8014 7.79547C34.8951 8.4612 35.7605 9.40748 36.3977 10.6343C37.0349 11.8612 37.3535 13.283 37.3535 14.8997C37.3535 16.5165 37.0349 17.9478 36.3977 19.1937C35.7605 20.4395 34.8951 21.4048 33.8014 22.0896C32.7077 22.7743 31.4856 23.1167 30.1351 23.1167C28.9748 23.1167 27.9525 22.8789 27.068 22.4034C26.1835 21.9279 25.4655 21.3287 24.9139 20.6059ZM29.0799 19.607C28.3571 19.607 27.6771 19.4216 27.0399 19.0507C26.4027 18.6798 25.8892 18.1424 25.4993 17.4386C25.1093 16.7349 24.9144 15.9075 24.9144 14.9564C24.9144 14.0054 25.1093 13.178 25.4993 12.4742C25.8892 11.7705 26.4027 11.2331 27.0399 10.8622C27.6771 10.4913 28.3571 10.3059 29.0799 10.3059C29.8217 10.3059 30.5112 10.4866 31.1484 10.848C31.7856 11.2093 32.2992 11.7372 32.6891 12.4314C33.079 13.1257 33.274 13.9483 33.274 14.8994C33.274 15.8694 33.079 16.7063 32.6891 17.4101C32.2992 18.1139 31.7856 18.656 31.1484 19.0364C30.5112 19.4168 29.8217 19.607 29.0799 19.607ZM44.2598 20.6059V30.3921H40.2655V7.05366H44.2598V9.33615C44.7734 8.61336 45.4819 8.00945 46.3854 7.52442C47.2889 7.03939 48.3207 6.79688 49.481 6.79688C50.8315 6.79688 52.0536 7.12974 53.1473 7.79547C54.241 8.4612 55.1064 9.40748 55.7436 10.6343C56.3808 11.8612 56.6994 13.283 56.6994 14.8997C56.6994 16.5165 56.3808 17.9478 55.7436 19.1937C55.1064 20.4395 54.241 21.4048 53.1473 22.0896C52.0536 22.7743 50.8315 23.1167 49.481 23.1167C48.3207 23.1167 47.2984 22.8789 46.4139 22.4034C45.5294 21.9279 44.8114 21.3287 44.2598 20.6059ZM48.4239 19.607C47.7011 19.607 47.0211 19.4216 46.3839 19.0507C45.7467 18.6798 45.2332 18.1424 44.8433 17.4386C44.4533 16.7349 44.2584 15.9075 44.2584 14.9564C44.2584 14.0054 44.4533 13.178 44.8433 12.4742C45.2332 11.7705 45.7467 11.2331 46.3839 10.8622C47.0211 10.4913 47.7011 10.3059 48.4239 10.3059C49.1657 10.3059 49.8552 10.4866 50.4924 10.848C51.1296 11.2093 51.6432 11.7372 52.0331 12.4314C52.423 13.1257 52.618 13.9483 52.618 14.8994C52.618 15.8694 52.423 16.7063 52.0331 17.4101C51.6432 18.1139 51.1296 18.656 50.4924 19.0364C49.8552 19.4168 49.1657 19.607 48.4239 19.607ZM63.6019 14.9853V22.8598H59.6076V7.0536H63.6019V9.50727C64.1155 8.67036 64.786 8.01414 65.6134 7.53862C66.4408 7.06311 67.387 6.82535 68.4522 6.82535V11.0194H67.3966C66.1412 11.0194 65.1949 11.3142 64.5577 11.9039C63.9205 12.4935 63.6019 13.5207 63.6019 14.9853ZM78.1537 23.1167C79.6943 23.1167 81.0876 22.7791 82.3335 22.1038C83.5793 21.4286 84.5684 20.4728 85.3007 19.2365C86.033 18.0001 86.3992 16.5735 86.3992 14.9568C86.3992 13.34 86.0425 11.9135 85.3292 10.6771C84.616 9.44077 83.6411 8.48497 82.4048 7.80974C81.1684 7.1345 79.7894 6.79688 78.2678 6.79688C76.7461 6.79688 75.3671 7.1345 74.1308 7.80974C72.8944 8.48497 71.9196 9.44077 71.2063 10.6771C70.493 11.9135 70.1364 13.34 70.1364 14.9568C70.1364 16.5735 70.4835 18.0001 71.1778 19.2365C71.872 20.4728 72.8278 21.4286 74.0452 22.1038C75.2625 22.7791 76.632 23.1167 78.1537 23.1167ZM75.3151 18.423C76.0664 19.2314 77.0127 19.6356 78.154 19.6356C78.8768 19.6356 79.5568 19.4597 80.194 19.1078C80.8311 18.7559 81.34 18.2281 81.7204 17.5243C82.1008 16.8205 82.291 15.9646 82.291 14.9565C82.291 13.4539 81.8963 12.2984 81.1069 11.49C80.3176 10.6816 79.3523 10.2774 78.211 10.2774C77.0698 10.2774 76.114 10.6816 75.3437 11.49C74.5733 12.2984 74.1881 13.4539 74.1881 14.9565C74.1881 16.4591 74.5638 17.6147 75.3151 18.423Z" fill="black"/>
<path fill-rule="evenodd" clip-rule="evenodd" d="M121.848 22.3891C120.945 22.8742 119.904 23.1167 118.724 23.1167C117.393 23.1167 116.18 22.7743 115.087 22.0896C113.993 21.4048 113.127 20.4395 112.49 19.1937C111.853 17.9478 111.534 16.5165 111.534 14.8997C111.534 13.302 111.853 11.8849 112.49 10.6486C113.127 9.41223 113.993 8.46119 115.087 7.79546C116.18 7.12974 117.402 6.79688 118.753 6.79688C119.932 6.79688 120.964 7.03463 121.848 7.51015C122.733 7.98567 123.441 8.58483 123.974 9.30761V7.05366H127.997V22.8599H123.974V20.5489C123.46 21.2907 122.752 21.9041 121.848 22.3891ZM117.74 19.0364C118.377 19.4168 119.057 19.607 119.78 19.607C120.522 19.607 121.216 19.4216 121.863 19.0507C122.51 18.6798 123.023 18.1472 123.404 17.4529C123.784 16.7587 123.974 15.9265 123.974 14.9564C123.974 13.9864 123.784 13.1542 123.404 12.46C123.023 11.7657 122.51 11.2331 121.863 10.8622C121.216 10.4913 120.522 10.3059 119.78 10.3059C119.038 10.3059 118.354 10.4866 117.726 10.848C117.098 11.2093 116.589 11.7372 116.2 12.4314C115.81 13.1257 115.615 13.9483 115.615 14.8994C115.615 15.8504 115.81 16.6826 116.2 17.3958C116.589 18.1091 117.103 18.656 117.74 19.0364Z" fill="black"/>
<path d="M93.7286 22.6656H101.871L103.76 19.1905L107.292 12.7196C110.023 7.69895 114.412 3.78139 119.709 1.63528L122.24 0.608155H120.391C111.347 0.60616 103.026 5.55242 98.7073 13.4985L98.2508 14.3373L93.7286 22.6656Z" fill="url(#paint0_linear_101_509)"/>
<path d="M86.6276 6.02637L93.7604 22.6657H101.926L97.5379 12.6228C95.2176 8.34488 91.9426 6.19036 87.0784 6.03493C86.9301 6.02922 86.7788 6.02637 86.6276 6.02637Z" fill="#76D687"/>
<defs>
<linearGradient id="paint0_linear_101_509" x1="122.245" y1="22.6664" x2="93.7286" y2="22.6664" gradientUnits="userSpaceOnUse">
<stop stop-color="#76D687"/>
<stop offset="1" stop-color="#2F9C43"/>
</linearGradient>
</defs>
</svg>
