<svg width="16" height="19" viewBox="0 0 16 19" fill="none" xmlns="http://www.w3.org/2000/svg">
<path d="M14.1963 16.7272C14.926 16.2953 15.1672 15.3537 14.7238 14.6245L13.8972 13.247C13.4616 12.5236 12.5119 12.2844 11.7685 12.7182L9.70773 13.9408C8.95567 13.0895 8.12443 12.0222 7.33063 10.7296C6.43032 9.27294 5.81353 7.90751 5.36532 6.75246L7.4261 5.52984C8.16169 5.0903 8.40287 4.14873 7.95952 3.41947L7.13288 2.042C6.68952 1.31274 5.73979 1.07363 5.0042 1.51317L3.14191 2.61871L3.103 2.63789C1.10058 3.83174 0.272873 6.31328 1.22416 8.42314C1.86221 9.84064 2.63803 11.349 3.59637 12.9214C4.46373 14.3413 5.35863 15.613 6.23834 16.7285C7.67803 18.564 10.2771 19.0341 12.2873 17.8461L12.334 17.8327L14.1963 16.7272Z" stroke="white" stroke-width="0.97166" stroke-linecap="round" stroke-linejoin="round"/>
</svg>
