<svg width="98" height="17" viewBox="0 0 98 17" fill="none" xmlns="http://www.w3.org/2000/svg">
<path fill-rule="evenodd" clip-rule="evenodd" d="M16.3663 6.4278L11.1895 5.68213L8.87526 1.03158C8.80938 0.920502 8.68911 0.852295 8.55914 0.852295C8.42916 0.852295 8.3089 0.920502 8.24302 1.03158L5.92772 5.68109L0.749519 6.4278C0.616689 6.44681 0.506259 6.53892 0.464651 6.66542C0.423042 6.79192 0.457471 6.93086 0.553463 7.02385L4.30039 10.6442L3.41602 15.7558C3.39345 15.8869 3.44781 16.0193 3.55628 16.0974C3.66475 16.1756 3.80855 16.186 3.92732 16.1243L8.5579 13.7111L13.1885 16.1232C13.3073 16.185 13.4511 16.1746 13.5595 16.0964C13.668 16.0182 13.7224 15.8858 13.6998 15.7548L12.8154 10.6442L16.5623 7.02385C16.6583 6.93091 16.6928 6.79203 16.6513 6.66555C16.6097 6.53908 16.4994 6.44692 16.3666 6.4278H16.3663Z" fill="#FFC212"/>
<path fill-rule="evenodd" clip-rule="evenodd" d="M36.5875 6.4278L31.4107 5.68213L29.0965 1.03158C29.0306 0.920502 28.9103 0.852295 28.7803 0.852295C28.6504 0.852295 28.5301 0.920502 28.4642 1.03158L26.1489 5.68109L20.9707 6.4278C20.8379 6.44681 20.7275 6.53892 20.6858 6.66542C20.6442 6.79192 20.6787 6.93086 20.7747 7.02385L24.5216 10.6442L23.6372 15.7558C23.6146 15.8869 23.669 16.0193 23.7775 16.0974C23.8859 16.1756 24.0297 16.186 24.1485 16.1243L28.7791 13.7111L33.4097 16.1232C33.5285 16.185 33.6723 16.1746 33.7807 16.0964C33.8892 16.0182 33.9435 15.8858 33.921 15.7548L33.0366 10.6442L36.7835 7.02385C36.8795 6.93091 36.914 6.79203 36.8725 6.66555C36.8309 6.53908 36.7206 6.44692 36.5878 6.4278H36.5875Z" fill="#FFC212"/>
<path fill-rule="evenodd" clip-rule="evenodd" d="M56.8087 6.4278L51.6319 5.68213L49.3176 1.03158C49.2518 0.920502 49.1315 0.852295 49.0015 0.852295C48.8715 0.852295 48.7513 0.920502 48.6854 1.03158L46.3701 5.68109L41.1919 6.4278C41.0591 6.44681 40.9486 6.53892 40.907 6.66542C40.8654 6.79192 40.8999 6.93086 40.9958 7.02385L44.7428 10.6442L43.8584 15.7558C43.8358 15.8869 43.8902 16.0193 43.9987 16.0974C44.1071 16.1756 44.2509 16.186 44.3697 16.1243L49.0003 13.7111L53.6309 16.1232C53.7496 16.185 53.8934 16.1746 54.0019 16.0964C54.1104 16.0182 54.1647 15.8858 54.1422 15.7548L53.2578 10.6442L57.0047 7.02385C57.1007 6.93091 57.1352 6.79203 57.0936 6.66555C57.0521 6.53908 56.9418 6.44692 56.809 6.4278H56.8087Z" fill="#FFC212"/>
<path fill-rule="evenodd" clip-rule="evenodd" d="M77.0299 6.4278L71.8531 5.68213L69.5388 1.03158C69.473 0.920502 69.3527 0.852295 69.2227 0.852295C69.0927 0.852295 68.9725 0.920502 68.9066 1.03158L66.5913 5.68109L61.4131 6.4278C61.2803 6.44681 61.1698 6.53892 61.1282 6.66542C61.0866 6.79192 61.121 6.93086 61.217 7.02385L64.964 10.6442L64.0796 15.7558C64.057 15.8869 64.1114 16.0193 64.2199 16.0974C64.3283 16.1756 64.4721 16.186 64.5909 16.1243L69.2215 13.7111L73.8521 16.1232C73.9708 16.185 74.1146 16.1746 74.2231 16.0964C74.3316 16.0182 74.3859 15.8858 74.3634 15.7548L73.479 10.6442L77.2259 7.02385C77.3219 6.93091 77.3564 6.79203 77.3148 6.66555C77.2733 6.53908 77.163 6.44692 77.0302 6.4278H77.0299Z" fill="#FFC212"/>
<path fill-rule="evenodd" clip-rule="evenodd" d="M97.2511 6.4278L92.0743 5.68213L89.76 1.03158C89.6941 0.920502 89.5739 0.852295 89.4439 0.852295C89.3139 0.852295 89.1937 0.920502 89.1278 1.03158L86.8125 5.68109L81.6343 6.4278C81.5015 6.44681 81.391 6.53892 81.3494 6.66542C81.3078 6.79192 81.3422 6.93086 81.4382 7.02385L85.1852 10.6442L84.3008 15.7558C84.2782 15.8869 84.3326 16.0193 84.441 16.0974C84.5495 16.1756 84.6933 16.186 84.8121 16.1243L89.4427 13.7111L94.0733 16.1232C94.192 16.185 94.3358 16.1746 94.4443 16.0964C94.5528 16.0182 94.6071 15.8858 94.5846 15.7548L93.7002 10.6442L97.4471 7.02385C97.5431 6.93091 97.5776 6.79203 97.536 6.66555C97.4945 6.53908 97.3842 6.44692 97.2514 6.4278H97.2511Z" fill="#FFC212"/>
</svg>
