<svg width="17" height="17" viewBox="0 0 17 17" fill="none" xmlns="http://www.w3.org/2000/svg">
<path d="M8.44808 0.279541C3.85641 0.279541 0.114746 4.02121 0.114746 8.61287C0.114746 13.2045 3.85641 16.9462 8.44808 16.9462C13.0397 16.9462 16.7814 13.2045 16.7814 8.61287C16.7814 4.02121 13.0397 0.279541 8.44808 0.279541ZM12.4314 6.69621L7.70641 11.4212C7.58975 11.5379 7.43141 11.6045 7.26475 11.6045C7.09808 11.6045 6.93975 11.5379 6.82308 11.4212L4.46475 9.06287C4.22308 8.82121 4.22308 8.42121 4.46475 8.17954C4.70641 7.93787 5.10641 7.93787 5.34808 8.17954L7.26475 10.0962L11.5481 5.81287C11.7897 5.57121 12.1897 5.57121 12.4314 5.81287C12.6731 6.05454 12.6731 6.44621 12.4314 6.69621Z" fill="#2DCA73"/>
</svg>
