<svg width="379" height="306" viewBox="0 0 379 306" fill="none" xmlns="http://www.w3.org/2000/svg">
<mask id="mask0_53_1358" style="mask-type:alpha" maskUnits="userSpaceOnUse" x="0" y="0" width="379" height="304">
<path fill-rule="evenodd" clip-rule="evenodd" d="M0 0H379V304H0V0Z" fill="white"/>
</mask>
<g mask="url(#mask0_53_1358)">
<path fill-rule="evenodd" clip-rule="evenodd" d="M352.134 304C383.139 254.562 394.786 123.373 345.824 130.535C345.824 10.8386 255.391 -6.97926 214.789 25.5333C183.489 -12.9185 130.712 -3.84444 105.953 25.6868C63.1637 12.3234 22.1065 41.4127 6.77271 101.196C-8.12603 159.283 -0.251244 259.092 48.6062 303.267C230.085 303.267 352.134 304 352.134 304Z" fill="#D1EDFF"/>
</g>
<path fill-rule="evenodd" clip-rule="evenodd" d="M66 97C65.3332 94.0435 62.7353 91.8378 59.6301 91.8378C59.06 91.8378 58.5072 91.9126 57.9799 92.0523C56.4475 88.7144 53.1212 86.4015 49.2642 86.4015C48.267 86.4015 47.3052 86.5561 46.4009 86.843C44.3244 83.3414 40.5522 81 36.2426 81C31.1152 81 26.7481 84.3143 25.0935 88.9537C23.9222 88.2886 22.5736 87.9083 21.1374 87.9083C16.6434 87.9083 13 91.6188 13 96.1958C13 96.4671 13.0135 96.7351 13.0386 97H66Z" fill="#F0FBFF"/>
<path fill-rule="evenodd" clip-rule="evenodd" d="M171 161C171.805 157.674 174.942 155.193 178.692 155.193C179.38 155.193 180.048 155.277 180.685 155.434C182.535 151.679 186.552 149.077 191.209 149.077C192.413 149.077 193.575 149.251 194.667 149.573C197.174 145.634 201.729 143 206.933 143C213.125 143 218.398 146.728 220.396 151.948C221.811 151.2 223.439 150.772 225.174 150.772C230.601 150.772 235 154.946 235 160.095C235 160.4 234.983 160.702 234.953 161H171Z" fill="#F0FBFF"/>
<path fill-rule="evenodd" clip-rule="evenodd" d="M376 207.316C374.647 206.345 373.03 205.772 371.286 205.772C369.772 205.772 368.351 206.2 367.117 206.948C365.373 201.729 360.77 198 355.365 198C350.823 198 346.847 200.634 344.658 204.573C343.705 204.251 342.691 204.077 341.64 204.077C337.575 204.077 334.069 206.679 332.453 210.434C331.898 210.277 331.315 210.193 330.714 210.193C327.441 210.193 324.703 212.674 324 216H375.236C375.543 213.089 375.798 210.191 376 207.316Z" fill="#F0FBFF"/>
<path fill-rule="evenodd" clip-rule="evenodd" d="M28 210C28.7045 206.674 31.4493 204.193 34.7305 204.193C35.3329 204.193 35.9168 204.277 36.474 204.434C38.0933 200.679 41.6077 198.077 45.683 198.077C46.7367 198.077 47.7529 198.251 48.7084 198.574C50.9023 194.634 54.8883 192 59.4418 192C64.8593 192 69.4735 195.729 71.2219 200.948C72.4597 200.2 73.8844 199.772 75.402 199.772C80.1506 199.772 84 203.946 84 209.095C84 209.401 83.9855 209.702 83.9591 210H28Z" fill="#F0FBFF"/>
<path fill-rule="evenodd" clip-rule="evenodd" d="M289 48C288.333 45.0435 285.735 42.8379 282.63 42.8379C282.06 42.8379 281.507 42.9127 280.98 43.0523C279.448 39.7145 276.121 37.4017 272.264 37.4017C271.267 37.4017 270.305 37.5561 269.401 37.8431C267.324 34.3412 263.552 32 259.243 32C254.115 32 249.748 35.3142 248.093 39.9538C246.922 39.2885 245.574 38.9084 244.138 38.9084C239.644 38.9084 236 42.6188 236 47.1958C236 47.4671 236.014 47.7351 236.039 48H289Z" fill="#F0FBFF"/>
<path fill-rule="evenodd" clip-rule="evenodd" d="M347 304C347 304 294.983 255.577 262.248 248.15C229.513 240.723 260.365 270.22 260.365 270.22C260.365 270.22 209.061 226.676 187.268 229.097C163.407 231.748 175.209 255.627 175.209 255.627C175.209 255.627 159.015 238.664 132.663 241.587C102.066 244.98 162.349 302.912 162.349 302.912L347 304Z" fill="#A1C2F5"/>
<path fill-rule="evenodd" clip-rule="evenodd" d="M192 302C192 302 162.036 259.892 131.564 258.076C102.965 256.371 120.532 283.974 118.712 282.54C116.893 281.105 92.4941 253.547 69.2335 261.077C42.6801 269.672 82.9349 288.593 82.9349 288.593C82.9349 288.593 27.7506 275.005 23.4294 289.273C19.8431 301.115 39.8996 302 39.8996 302H192Z" fill="#B6D2FB"/>
<path fill-rule="evenodd" clip-rule="evenodd" d="M343.401 250.443C348.578 267.27 350.935 285.023 350.251 303H350.905C351.513 285.382 349.192 267.669 344.026 250.862C342.826 246.956 341.622 242.383 338.09 240.011C338.022 239.965 337.963 240.074 338.027 240.122C341.204 242.475 342.278 246.79 343.401 250.443Z" fill="#466EB6"/>
<path fill-rule="evenodd" clip-rule="evenodd" d="M348 302C341.636 285.362 332.835 269.185 321.291 254.053C321.176 253.902 320.913 254.106 321.029 254.26C331.931 268.788 340.737 284.83 347.184 302H348Z" fill="#466EB6"/>
<path fill-rule="evenodd" clip-rule="evenodd" d="M344.423 242.207C344.01 242.507 342.571 243.206 341.837 244.385C341.01 245.474 340.888 247.042 340.943 246.999C341.018 247.047 339.937 245.74 340.004 244.063C339.923 242.421 340.989 240.41 341.914 239.872C343.631 238.573 345.804 238.891 345.973 239.747C346.168 240.603 345.284 241.509 344.423 242.207Z" fill="#466EB6"/>
<path fill-rule="evenodd" clip-rule="evenodd" d="M339.821 252.743C340.218 252.606 341.322 251.986 342.55 252.012C343.74 251.941 345.054 252.516 344.998 252.533C345.009 252.601 344.357 251.374 342.976 250.719C341.68 249.985 339.654 249.824 338.873 250.186C337.179 250.732 336.622 252.239 337.251 252.701C337.87 253.181 338.934 252.998 339.821 252.743Z" fill="#466EB6"/>
<path fill-rule="evenodd" clip-rule="evenodd" d="M340.821 259.743C341.217 259.606 342.322 258.986 343.55 259.012C344.74 258.942 346.054 259.516 345.998 259.533C346.01 259.601 345.357 258.374 343.976 257.719C342.68 256.985 340.654 256.824 339.873 257.186C338.179 257.732 337.622 259.239 338.251 259.701C338.87 260.181 339.933 259.998 340.821 259.743Z" fill="#466EB6"/>
<path fill-rule="evenodd" clip-rule="evenodd" d="M325.821 268.743C326.217 268.606 327.322 267.986 328.55 268.012C329.74 267.941 331.054 268.516 330.998 268.533C331.009 268.601 330.357 267.374 328.976 266.719C327.68 265.985 325.654 265.824 324.873 266.186C323.179 266.732 322.622 268.239 323.251 268.701C323.87 269.181 324.933 268.998 325.821 268.743Z" fill="#466EB6"/>
<path fill-rule="evenodd" clip-rule="evenodd" d="M321.821 262.743C322.217 262.606 323.322 261.986 324.55 262.012C325.74 261.941 327.054 262.516 326.998 262.533C327.009 262.601 326.357 261.374 324.976 260.719C323.68 259.985 321.654 259.824 320.873 260.186C319.179 260.732 318.622 262.239 319.251 262.701C319.87 263.181 320.933 262.998 321.821 262.743Z" fill="#466EB6"/>
<path fill-rule="evenodd" clip-rule="evenodd" d="M349.243 248.998C348.834 249.223 347.465 249.691 346.631 250.691C345.731 251.596 345.365 253.032 345.42 252.998C345.478 253.053 344.753 251.709 345.089 250.166C345.29 248.637 346.551 246.909 347.445 246.526C349.155 245.537 350.994 246.101 350.999 246.914C351.028 247.73 350.109 248.458 349.243 248.998Z" fill="#466EB6"/>
<path fill-rule="evenodd" clip-rule="evenodd" d="M350.867 257.301C350.396 257.42 348.851 257.432 347.839 258.411C346.763 259.23 346.219 261.017 346.282 260.997C346.34 261.098 345.68 258.938 346.202 256.992C346.573 255.004 348.127 253.228 349.145 253.117C351.115 252.552 353.073 254.161 352.998 255.268C352.948 256.392 351.869 256.963 350.867 257.301Z" fill="#466EB6"/>
<path fill-rule="evenodd" clip-rule="evenodd" d="M353.42 267.304C352.909 267.333 351.291 267.066 350.075 267.816C348.817 268.402 347.962 270.004 348.031 269.996C348.076 270.103 347.733 267.929 348.592 266.17C349.3 264.345 351.209 262.935 352.292 263.012C354.443 262.83 356.232 264.713 355.975 265.754C355.742 266.814 354.522 267.163 353.42 267.304Z" fill="#466EB6"/>
<path fill-rule="evenodd" clip-rule="evenodd" d="M336.233 270.579C335.824 270.71 334.461 270.821 333.622 271.714C332.718 272.476 332.338 274.019 332.393 273.997C332.45 274.079 331.747 272.3 332.099 270.623C332.316 268.921 333.587 267.322 334.479 267.161C336.187 266.556 338.005 267.785 338 268.724C338.018 269.676 337.098 270.228 336.233 270.579Z" fill="#466EB6"/>
<path fill-rule="evenodd" clip-rule="evenodd" d="M335.144 241.766C335.433 241.661 336.22 241.218 337.139 241.18C338.024 241.083 339.039 241.391 338.999 241.404C339.011 241.447 338.451 240.694 337.381 240.337C336.369 239.927 334.847 239.913 334.285 240.178C333.052 240.6 332.726 241.585 333.223 241.852C333.713 242.13 334.497 241.967 335.144 241.766Z" fill="#466EB6"/>
<path fill-rule="evenodd" clip-rule="evenodd" d="M338.939 237.094C338.899 237.399 338.708 238.259 338.74 239.182C338.738 240.081 338.96 241.041 338.964 240.999C338.988 241.004 338.555 240.572 338.305 239.564C338.029 238.624 337.935 237.108 338.045 236.504C338.2 235.203 338.706 234.713 338.876 235.164C339.052 235.606 339.009 236.415 338.939 237.094Z" fill="#466EB6"/>
<path fill-rule="evenodd" clip-rule="evenodd" d="M319.144 256.766C319.432 256.661 320.22 256.217 321.139 256.18C322.024 256.083 323.039 256.391 322.999 256.404C323.011 256.447 322.451 255.694 321.381 255.337C320.369 254.927 318.847 254.913 318.285 255.178C317.052 255.6 316.726 256.585 317.223 256.852C317.713 257.13 318.497 256.967 319.144 256.766Z" fill="#466EB6"/>
<path fill-rule="evenodd" clip-rule="evenodd" d="M321.809 252.124C321.713 252.419 321.29 253.235 321.29 254.155C321.226 255.046 321.586 256.04 321.598 255.999C321.642 256.008 320.844 255.497 320.432 254.45C319.968 253.466 319.89 251.945 320.14 251.367C320.523 250.108 321.523 249.719 321.818 250.198C322.125 250.671 321.989 251.465 321.809 252.124Z" fill="#466EB6"/>
<path fill-rule="evenodd" clip-rule="evenodd" d="M302.043 280.053C307.498 285.375 312.253 291.406 315.808 298.115C316.806 299.998 317.65 301.935 318.52 303.876C318.636 304.134 319.084 303.95 318.986 303.683C318.889 303.417 318.792 303.151 318.695 302.885C318.638 302.729 318.35 302.737 318.376 302.928C318.412 303.202 318.449 303.476 318.486 303.75L318.986 303.683C317.634 300.176 315.758 296.796 313.738 293.621C307.686 284.106 301.42 279.445 302.043 280.053Z" fill="#466EB6"/>
<path fill-rule="evenodd" clip-rule="evenodd" d="M308.549 283.149C308.416 283.273 307.928 283.582 307.731 284.032C307.493 284.454 307.545 285.017 307.563 285C307.594 285.014 307.114 284.594 307.035 283.995C306.902 283.415 307.171 282.654 307.479 282.424C308.032 281.89 308.853 281.911 308.968 282.208C309.094 282.504 308.824 282.864 308.549 283.149Z" fill="#466EB6"/>
<path fill-rule="evenodd" clip-rule="evenodd" d="M304.549 279.149C304.415 279.273 303.928 279.582 303.73 280.032C303.493 280.454 303.545 281.017 303.563 281C303.594 281.014 303.114 280.594 303.035 279.995C302.902 279.415 303.171 278.654 303.479 278.424C304.032 277.89 304.853 277.911 304.968 278.208C305.094 278.505 304.824 278.864 304.549 279.149Z" fill="#466EB6"/>
<path fill-rule="evenodd" clip-rule="evenodd" d="M301.196 281.671C301.469 281.551 302.193 281.077 303.107 280.965C303.977 280.801 305.038 280.999 304.999 281.014C305.018 281.053 304.348 280.407 303.226 280.17C302.155 279.878 300.63 279.993 300.106 280.284C298.935 280.776 298.751 281.708 299.287 281.912C299.818 282.127 300.578 281.911 301.196 281.671Z" fill="#466EB6"/>
<path fill-rule="evenodd" clip-rule="evenodd" d="M305.196 286.671C305.469 286.55 306.193 286.076 307.106 285.965C307.977 285.8 309.038 285.999 308.999 286.014C309.017 286.053 308.348 285.407 307.226 285.17C306.154 284.878 304.63 284.993 304.106 285.284C302.934 285.776 302.751 286.709 303.287 286.912C303.818 287.127 304.578 286.911 305.196 286.671Z" fill="#466EB6"/>
<path fill-rule="evenodd" clip-rule="evenodd" d="M307.196 289.671C307.469 289.551 308.193 289.077 309.107 288.965C309.977 288.801 311.038 288.999 310.999 289.014C311.017 289.053 310.348 288.407 309.226 288.17C308.155 287.878 306.63 287.993 306.106 288.284C304.934 288.776 304.751 289.709 305.287 289.912C305.818 290.127 306.578 289.911 307.196 289.671Z" fill="#466EB6"/>
<path fill-rule="evenodd" clip-rule="evenodd" d="M310.196 291.671C310.469 291.551 311.193 291.077 312.106 290.965C312.977 290.801 314.038 290.999 313.999 291.014C314.018 291.053 313.348 290.407 312.226 290.17C311.155 289.878 309.63 289.993 309.106 290.284C307.934 290.776 307.751 291.709 308.287 291.912C308.818 292.126 309.578 291.911 310.196 291.671Z" fill="#466EB6"/>
<path fill-rule="evenodd" clip-rule="evenodd" d="M311.549 287.149C311.415 287.273 310.928 287.582 310.73 288.032C310.493 288.454 310.545 289.017 310.563 289C310.594 289.014 310.114 288.594 310.034 287.995C309.902 287.415 310.171 286.654 310.479 286.424C311.032 285.89 311.853 285.911 311.968 286.208C312.094 286.505 311.824 286.864 311.549 287.149Z" fill="#466EB6"/>
<path fill-rule="evenodd" clip-rule="evenodd" d="M313.549 290.149C313.416 290.272 312.928 290.582 312.73 291.032C312.493 291.454 312.545 292.017 312.562 292C312.594 292.014 312.114 291.594 312.035 290.995C311.902 290.415 312.171 289.654 312.479 289.424C313.032 288.889 313.853 288.911 313.968 289.208C314.094 289.504 313.824 289.864 313.549 290.149Z" fill="#466EB6"/>
<path fill-rule="evenodd" clip-rule="evenodd" d="M305.002 297.012C305.213 297.202 305.747 297.852 306.021 298.255C306.772 299.36 307.452 300.934 307.823 302.71C307.846 302.823 307.854 302.927 307.926 302.992C307.943 303.008 307.97 302.998 307.979 302.972C308.023 302.853 307.987 302.743 307.962 302.619C307.788 301.728 307.43 300.609 306.89 299.52C305.977 297.679 305.299 297.253 305.006 297.001C305.002 296.997 304.997 297.007 305.002 297.012Z" fill="#466EB6"/>
<path fill-rule="evenodd" clip-rule="evenodd" d="M303.072 297.883C303.216 297.83 303.61 297.609 304.07 297.59C304.512 297.541 305.02 297.696 304.999 297.702C305.006 297.724 304.726 297.347 304.191 297.169C303.685 296.963 302.923 296.956 302.642 297.089C302.026 297.3 301.863 297.793 302.111 297.926C302.357 298.065 302.748 297.984 303.072 297.883Z" fill="#466EB6"/>
<path fill-rule="evenodd" clip-rule="evenodd" d="M305.939 295.698C305.9 295.8 305.708 296.086 305.74 296.394C305.738 296.694 305.96 297.014 305.964 297C305.988 297.001 305.555 296.857 305.305 296.521C305.029 296.208 304.935 295.703 305.045 295.501C305.2 295.068 305.706 294.904 305.876 295.055C306.052 295.202 306.009 295.472 305.939 295.698Z" fill="#466EB6"/>
<path fill-rule="evenodd" clip-rule="evenodd" d="M7.00227 221.001C8.60238 221.919 10.0688 223.157 11.5289 224.263C19.4739 230.279 27.5345 236.101 38.4941 248.341C53.1472 264.706 64.093 283.29 70.7677 303.587C71.0069 304.313 72.2108 304.002 71.9678 303.271C67.6253 290.216 61.4664 277.727 53.721 266.192C32.7956 235.027 6.72025 220.839 7.00227 221.001Z" fill="#466EB6"/>
<path fill-rule="evenodd" clip-rule="evenodd" d="M47.0026 223.238C48.7348 234.362 54.6871 244.365 58.79 254.747C69.7653 282.516 71.5464 303.501 72.5336 305.845C72.6328 306.079 72.9472 306.039 72.979 305.786C73.2523 303.61 70.8533 288.543 66.0852 272.703C58.1576 246.366 49.8583 236.079 47.3775 223.137C47.3311 222.895 46.9657 223.001 47.0026 223.238Z" fill="#466EB6"/>
<path fill-rule="evenodd" clip-rule="evenodd" d="M20.208 219.959C19.8775 220.479 18.5128 221.888 18.3284 223.569C17.9701 225.184 18.792 227.071 18.8332 226.998C18.9583 227.024 16.7954 225.936 15.8378 223.945C14.7158 222.056 14.7996 219.263 15.6226 218.254C16.9613 216.028 19.8755 215.509 20.6172 216.441C21.3935 217.364 20.8514 218.787 20.208 219.959Z" fill="#466EB6"/>
<path fill-rule="evenodd" clip-rule="evenodd" d="M38.5119 236.872C38.2438 237.42 37.0185 238.948 37.0939 240.637C36.9739 242.276 38.1544 244.074 38.1865 243.998C38.3242 244.012 35.8446 243.133 34.5025 241.243C33.0019 239.47 32.6392 236.686 33.3523 235.606C34.4181 233.268 37.4375 232.479 38.3787 233.337C39.3547 234.181 39.0075 235.648 38.5119 236.872Z" fill="#466EB6"/>
<path fill-rule="evenodd" clip-rule="evenodd" d="M62.4432 246.399C61.9253 246.558 60.2735 246.772 59.0653 247.699C57.8099 248.504 56.9985 250.023 57.069 249.998C57.1179 250.072 56.6921 248.41 57.5011 246.765C58.1547 245.106 60.0429 243.464 61.1443 243.239C63.3224 242.521 65.2056 243.565 64.9819 244.472C64.7835 245.389 63.5567 245.993 62.4432 246.399Z" fill="#466EB6"/>
<path fill-rule="evenodd" clip-rule="evenodd" d="M64.4431 252.399C63.9252 252.559 62.2734 252.772 61.0652 253.698C59.81 254.504 58.9984 256.022 59.0689 255.998C59.1179 256.072 58.6922 254.41 59.5007 252.766C60.1546 251.106 62.0428 249.463 63.1442 249.239C65.3223 248.521 67.2056 249.565 66.9819 250.472C66.7831 251.389 65.5567 251.993 64.4431 252.399Z" fill="#466EB6"/>
<path fill-rule="evenodd" clip-rule="evenodd" d="M13.0594 231.11C13.4234 230.628 14.2573 228.964 15.7227 228.078C17.0712 227.091 19.0516 226.883 18.9982 226.946C19.0627 227.031 17.3708 225.862 15.2515 226.014C13.1718 225.994 10.6651 227.294 10.0175 228.368C8.43377 230.374 8.91305 232.826 10.0013 232.979C11.0914 233.162 12.2063 232.119 13.0594 231.11Z" fill="#466EB6"/>
<path fill-rule="evenodd" clip-rule="evenodd" d="M24.0594 242.11C24.4232 241.628 25.2571 239.964 26.7227 239.079C28.0712 238.091 30.0514 237.883 29.9982 237.946C30.0627 238.031 28.3708 236.862 26.2513 237.014C24.1718 236.994 21.6649 238.294 21.0175 239.368C19.4338 241.374 19.913 243.826 21.0013 243.979C22.0912 244.162 23.2063 243.119 24.0594 242.11Z" fill="#466EB6"/>
<path fill-rule="evenodd" clip-rule="evenodd" d="M43.326 231.285C43.9076 231.317 45.666 231.059 47.2039 231.813C48.7504 232.403 50.0767 234.005 49.9965 233.996C49.9705 234.102 49.8624 231.937 48.4979 230.181C47.2869 228.358 44.8194 226.943 43.6199 227.014C41.1591 226.821 39.5754 228.688 40.1006 229.726C40.6034 230.784 42.0553 231.138 43.326 231.285Z" fill="#466EB6"/>
<path fill-rule="evenodd" clip-rule="evenodd" d="M46.3259 239.285C46.9077 239.317 48.6658 239.059 50.2038 239.813C51.7504 240.403 53.0767 242.005 52.9965 241.996C52.9705 242.102 52.8622 239.938 51.4977 238.181C50.2867 236.358 47.8195 234.943 46.62 235.014C44.1593 234.821 42.5756 236.688 43.1005 237.727C43.6034 238.784 45.055 239.139 46.3259 239.285Z" fill="#466EB6"/>
<path fill-rule="evenodd" clip-rule="evenodd" d="M37.0595 256.11C37.4233 255.628 38.257 253.964 39.7229 253.078C41.0713 252.09 43.0518 251.882 42.9982 251.946C43.0629 252.031 41.3708 250.862 39.2516 251.014C37.1719 250.994 34.6649 252.294 34.0174 253.368C32.4339 255.374 32.913 257.826 34.0014 257.979C35.0911 258.162 36.2064 257.119 37.0595 256.11Z" fill="#466EB6"/>
<path fill-rule="evenodd" clip-rule="evenodd" d="M6.03375 223.356C6.37084 223.157 7.22426 222.426 8.42882 222.151C9.56217 221.813 11.0473 221.929 10.9988 221.955C11.034 222.004 9.95989 221.238 8.38142 221.077C6.85665 220.836 4.82716 221.2 4.19589 221.66C2.74233 222.477 2.73968 223.744 3.51681 223.94C4.2909 224.153 5.26109 223.76 6.03375 223.356Z" fill="#466EB6"/>
<path fill-rule="evenodd" clip-rule="evenodd" d="M8.03083 217.355C8.01899 217.748 7.81691 218.916 8.10021 219.994C8.30656 221.068 8.99869 222.052 8.99814 221.998C9.04921 221.986 8.03661 221.789 7.27372 220.771C6.47228 219.852 5.92069 218.111 6.00934 217.308C6.03178 215.641 6.98244 214.683 7.44648 215.096C7.9207 215.495 8.02037 216.492 8.03083 217.355Z" fill="#466EB6"/>
<path fill-rule="evenodd" clip-rule="evenodd" d="M8.0459 273.122C23.4742 277.589 36.8281 286.81 49.6668 295.769C58.3245 301.811 57.5969 302.958 59.408 303.952C59.7012 304.113 60.0804 303.846 59.985 303.531C59.5191 301.998 57.7521 300.699 56.5516 299.649C55.1544 298.427 53.6648 297.301 52.1391 296.227C48.875 293.928 45.4838 291.778 42.1209 289.612C35.2799 285.205 28.2809 280.958 20.7953 277.59C16.6916 275.743 12.4521 274.181 8.08062 273.003C7.99956 272.981 7.9654 273.099 8.0459 273.122Z" fill="#466EB6"/>
<path fill-rule="evenodd" clip-rule="evenodd" d="M23.5119 269.872C23.2439 270.419 22.0188 271.948 22.0941 273.637C21.9742 275.275 23.1547 277.075 23.1865 276.998C23.3243 277.012 20.8444 276.133 19.5024 274.243C18.0018 272.47 17.6393 269.686 18.3522 268.606C19.4178 266.267 22.4375 265.479 23.379 266.337C24.3545 267.181 24.0076 268.647 23.5119 269.872Z" fill="#466EB6"/>
<path fill-rule="evenodd" clip-rule="evenodd" d="M37.5121 277.872C37.2438 278.42 36.0187 279.948 36.0941 281.637C35.9741 283.276 37.1546 285.074 37.1867 284.998C37.3245 285.012 34.8446 284.133 33.5024 282.243C32.0017 280.47 31.6392 277.686 32.3524 276.606C33.418 274.268 36.4375 273.479 37.379 274.337C38.3545 275.182 38.0076 276.647 37.5121 277.872Z" fill="#466EB6"/>
<path fill-rule="evenodd" clip-rule="evenodd" d="M49.5121 286.872C49.2441 287.419 48.0187 288.948 48.0941 290.637C47.9739 292.275 49.1544 294.074 49.1865 293.998C49.324 294.011 46.8444 293.133 45.5024 291.243C44.0018 289.47 43.6393 286.686 44.3522 285.606C45.418 283.267 48.4375 282.479 49.379 283.337C50.3545 284.181 50.0075 285.647 49.5121 286.872Z" fill="#466EB6"/>
<path fill-rule="evenodd" clip-rule="evenodd" d="M17.0596 282.11C17.4235 281.628 18.2572 279.964 19.7229 279.079C21.0712 278.091 23.0516 277.882 22.9982 277.946C23.0627 278.031 21.3708 276.862 19.2514 277.014C17.1719 276.994 14.6651 278.294 14.0174 279.368C12.4339 281.375 12.913 283.826 14.0013 283.979C15.0913 284.163 16.2064 283.119 17.0596 282.11Z" fill="#466EB6"/>
<path fill-rule="evenodd" clip-rule="evenodd" d="M32.0595 290.11C32.4233 289.628 33.2572 287.964 34.723 287.078C36.0712 286.091 38.0514 285.882 37.9982 285.946C38.0626 286.03 36.3707 284.862 34.2515 285.014C32.1718 284.994 29.665 286.294 29.0174 287.368C27.4337 289.375 27.9132 291.826 29.0013 291.979C30.0913 292.163 31.2063 291.119 32.0595 290.11Z" fill="#466EB6"/>
<path fill-rule="evenodd" clip-rule="evenodd" d="M6.03388 275.355C6.37098 275.157 7.22441 274.426 8.42898 274.151C9.56255 273.812 11.0473 273.929 10.9988 273.955C11.0342 274.004 9.96028 273.237 8.38158 273.076C6.857 272.836 4.82707 273.2 4.19599 273.66C2.74241 274.477 2.73956 275.744 3.51691 275.94C4.2912 276.153 5.26121 275.76 6.03388 275.355Z" fill="#466EB6"/>
<path fill-rule="evenodd" clip-rule="evenodd" d="M10.0307 269.355C10.0189 269.748 9.81684 270.916 10.1001 271.994C10.3065 273.068 10.9984 274.052 10.9982 273.998C11.049 273.987 10.0364 273.789 9.27353 272.771C8.47226 271.851 7.92069 270.111 8.00934 269.307C8.03178 267.641 8.98253 266.683 9.44628 267.096C9.92063 267.495 10.0203 268.492 10.0307 269.355Z" fill="#466EB6"/>
<mask id="mask1_53_1358" style="mask-type:alpha" maskUnits="userSpaceOnUse" x="9" y="303" width="361" height="3">
<path fill-rule="evenodd" clip-rule="evenodd" d="M9 303H370V306H9V303Z" fill="white"/>
</mask>
<g mask="url(#mask1_53_1358)">
<path fill-rule="evenodd" clip-rule="evenodd" d="M368.584 303H10.4158C9.63388 303 9 303.672 9 304.5C9 305.328 9.63388 306 10.4158 306H368.584C369.366 306 370 305.328 370 304.5C370 303.672 369.366 303 368.584 303Z" fill="#466EB6"/>
</g>
<path fill-rule="evenodd" clip-rule="evenodd" d="M152.518 200C148.393 190.148 150.186 176.621 151.92 163.539C152.516 159.045 153.079 154.799 153.379 150.828L153.383 150.803C153.408 150.696 155.881 139.927 157.931 124.286C159.823 109.854 161.731 88.2041 160.078 67.0265L160.368 67C162.024 88.2085 160.114 109.885 158.219 124.335C156.199 139.748 153.767 150.437 153.668 150.867C153.367 154.844 152.805 159.089 152.209 163.584C150.481 176.621 148.694 190.102 152.783 199.87L152.518 200Z" fill="#184655"/>
<path fill-rule="evenodd" clip-rule="evenodd" d="M161.025 67C160.224 70.2879 160.107 72.9463 160 73C161.218 72.1014 161.726 73.2673 163 72.4069C162.334 68.4792 161.025 67 161.025 67Z" fill="#466EB6"/>
<path fill-rule="evenodd" clip-rule="evenodd" d="M180.952 35.8624C181.855 50.8475 169.852 66.5112 161.304 66.9893C153.204 67.4424 138.966 53.4525 138.063 38.4674C137.161 23.4822 146.03 10.7511 157.873 10.0318C169.717 9.31234 180.049 20.8771 180.952 35.8624Z" fill="#466EB6"/>
<path fill-rule="evenodd" clip-rule="evenodd" d="M153.463 16.0354C148.137 15.3476 143.565 24.8917 147.452 26.7788C151.511 28.7501 160.334 16.9223 153.463 16.0354Z" fill="#1C1C1C"/>
<path fill-rule="evenodd" clip-rule="evenodd" d="M180.954 36.1803C180.532 28.9921 177.972 22.5995 174.146 18C182.239 34.3292 173.254 56.0401 164.478 60.0861C160.19 62.063 155.115 63.0848 149 59.5294C153.339 64.2527 158.321 67.2002 161.995 66.9894C170.243 66.5162 181.825 51.0124 180.954 36.1803Z" fill="#325CAB"/>
<path fill-rule="evenodd" clip-rule="evenodd" d="M161.866 67.8715L161.15 67.9993C161.072 68.0131 161.005 67.8293 161 67.5888C160.996 67.3486 161.056 67.1424 161.134 67.1282L161.85 67.0008C161.928 66.9866 161.995 67.1701 162 67.4106C162.004 67.6511 161.944 67.8573 161.866 67.8715Z" fill="#184655"/>
<path fill-rule="evenodd" clip-rule="evenodd" d="M267.771 60.827C267.771 60.827 264.992 58.7065 261.977 61.2566C258.961 63.8064 260.149 63.8472 258.669 65.1308C257.188 66.4143 254.719 65.2793 253.95 67.7498C253.181 70.22 254.211 70.9643 254.211 70.9643C254.211 70.9643 252.573 72.5602 253.107 74.8962C253.641 77.2326 255.977 79.832 258.461 80.3083C258.461 80.3083 261.446 83.4174 265.349 83.613C269.252 83.8086 267.993 83.4145 269.471 83.8773C270.949 84.3402 275.575 83.5598 275.842 80.3897C275.842 80.3897 279.179 78.2515 277.554 75.1422C275.93 72.0331 276.232 69.4865 275.855 65.8742C275.478 62.2617 269.652 60.5726 267.771 60.827Z" fill="#184655"/>
<path fill-rule="evenodd" clip-rule="evenodd" d="M239.919 71.0503C237.992 69.8715 233.397 65.2321 231.84 63.6526C231.817 63.4605 231.633 62.3541 230.377 60.9872C229.49 60.0213 228.763 57.7687 228.229 58.4353C227.696 59.1019 229.145 60.858 228.513 60.8938C227.88 60.9298 224.604 57.4667 224.12 58.0708C223.637 58.6748 226.947 61.7383 226.38 61.7703C225.814 61.8025 223.104 58.6754 222.42 59.5296C221.736 60.3833 225.946 62.9085 225.579 63.3669C225.212 63.8249 222.6 62.1637 222.05 62.8511C221.499 63.5384 225.725 64.9485 225.392 64.9674C225.058 64.9862 222.651 65.0116 222.651 65.4815C222.65 66.0128 228.785 66.6077 229.566 67.4979C231.256 70.0121 234.268 74.607 237.219 76.5614C240.83 78.953 249.157 84 249.157 84L253 78.558C253 78.558 242.204 72.448 239.919 71.0503Z" fill="#F7A491"/>
<path fill-rule="evenodd" clip-rule="evenodd" d="M228.241 63C228.074 63.2143 228.011 63.4442 228 63.6749C228.016 63.7118 227.892 64.459 229 65C228.553 64.5497 228.061 64.049 228.241 63Z" fill="#F48C7F"/>
<path fill-rule="evenodd" clip-rule="evenodd" d="M239.353 122.339C239.986 124.553 241.114 128.048 241.114 128.048C241.059 129.018 240.869 133.054 240.647 138L248.215 134.906C248.215 134.906 247.841 127.08 248.169 126.579C248.446 126.155 249.005 126.446 251.262 123.205C251.913 122.269 251.994 120.624 251.994 120.624C251.994 120.624 252.078 118.6 251.595 118.424C251.111 118.248 250.571 118.563 250.408 118.917C250.244 119.27 250.311 120.082 250.148 120.435C249.984 120.789 248.889 121.238 248.423 121.227C247.956 121.217 248.316 115.249 248.316 115.249C248.316 115.249 248.529 113.554 248.646 112.998C248.745 112.524 249.159 111.131 249.159 111.131C249.159 111.131 249.634 109.114 248.974 108.977C248.585 108.896 247.645 110.549 247.017 112.294C246.341 114.173 245.983 116.157 245.775 116.136C245.285 116.086 245.453 112.814 245.453 112.814C245.453 112.814 245.899 111.307 245.867 110.601C246.302 109.725 246.563 108.113 245.75 108C245.6 107.98 244.59 110.044 244.59 110.044C244.59 110.044 244.21 111.49 243.985 112.166C243.586 113.36 243.573 115.229 243.371 116.058C243.203 116.748 243.026 116.471 242.95 116.501C242.891 116.525 242.969 115.577 243.052 114.276C243.094 113.62 242.994 112.867 243.166 112.117C243.326 111.422 243.401 110.432 243.431 109.835C243.515 108.143 242.399 108.343 242.055 109.897C241.923 110.489 241.786 111.135 241.649 111.79C241.117 114.336 241.201 116.775 240.914 116.802C240.542 116.838 240.665 112.391 240.665 112.391C240.665 112.391 240.023 109.947 239.517 112.243C238.93 114.906 239.058 117.063 239.07 117.158C239.148 117.803 238.72 120.126 239.353 122.339Z" fill="#F8A492"/>
<path fill-rule="evenodd" clip-rule="evenodd" d="M239 131.632C239 131.632 247.205 129.471 247.302 130.123C249.417 144.396 250.334 149.554 250.632 149.696C251.646 150.177 264.593 137.877 266.937 137.006C268.057 136.589 269.29 136.622 270.471 136.626C273.287 136.635 273.842 136.631 273.842 136.631C273.923 136.633 273.946 136.635 273.946 136.635L274 139.244C270.905 142.137 267.865 198.012 267.253 198C266.569 197.986 253.706 197.918 254.317 196.86C254.317 196.86 257.427 179.653 259.873 168.31C260.694 164.501 262.988 156.541 262.988 156.541C259.844 158.198 247.557 164.558 245.564 163.812C239.361 161.489 239 131.632 239 131.632Z" fill="#F47458"/>
<path fill-rule="evenodd" clip-rule="evenodd" d="M256.874 288C256.874 288 257.273 295.715 257.276 295.731C257.422 296.711 258 299.131 258 300.021C258 303.367 244.397 297.182 247.445 295.699C247.721 295.565 249.167 294.55 249.258 293.411C249.397 291.657 249.752 288.108 249.752 288.108L256.874 288Z" fill="#F7A491"/>
<path fill-rule="evenodd" clip-rule="evenodd" d="M248.066 296.129C248.066 296.129 251.476 297.092 253.222 297.333C254.969 297.574 257.272 295.547 258.507 296.094C259.867 296.697 260.358 302.184 259.73 302.632C259.101 303.08 239.397 303.159 236.39 302.646C234.28 302.287 241.094 298.372 248.066 296.129Z" fill="#184655"/>
<path fill-rule="evenodd" clip-rule="evenodd" d="M287.874 288C287.874 288 288.273 295.716 288.276 295.731C288.422 296.711 289 299.131 289 300.021C289 303.367 275.397 297.182 278.445 295.699C278.721 295.565 280.596 293.793 280.686 292.654C280.826 290.9 280.752 288.108 280.752 288.108L287.874 288Z" fill="#F7A491"/>
<path fill-rule="evenodd" clip-rule="evenodd" d="M278.3 296.14C278.3 296.14 281.665 297.186 283.389 297.447C285.113 297.708 287.385 295.508 288.604 296.102C289.946 296.756 290 302.644 290 302.644C290 302.644 270.931 303.47 266.244 302.605C264.616 302.305 271.42 298.575 278.3 296.14Z" fill="#184655"/>
<path fill-rule="evenodd" clip-rule="evenodd" d="M265.053 183L259.236 185.581L247 245.698L247.496 290.765L257.305 291C257.305 291 261.867 251.578 261.867 248.522C261.867 245.467 283 195.058 283 195.058L265.053 183Z" fill="#50BFA5"/>
<path fill-rule="evenodd" clip-rule="evenodd" d="M271 186.021C271 186.021 275.502 232.491 275.502 240.325C275.502 248.158 279.152 292 279.152 292L289.481 291.941C289.481 291.941 290.226 278.578 291.333 258.918C291.507 255.839 291.11 249.627 291.333 246.439C292.94 223.513 296.118 201.931 294.6 193.376C294.356 191.999 293.897 188.398 293.002 187.489C286.239 180.614 271 186.021 271 186.021Z" fill="#3C8F7C"/>
<path fill-rule="evenodd" clip-rule="evenodd" d="M263.277 165.547C264.663 158.562 268.208 147.098 269.245 144.5C271.628 138.531 273.634 136 273.634 136L283.069 136.286C283.069 136.286 283.287 136.348 283.353 136.359C284.124 136.484 284.147 164.63 283.731 175.154C283.316 185.679 281.036 199.374 281.036 199.374L278.344 199.113C278.3 200.532 278.269 201.467 278.269 201.467C264.62 203.933 257 197.039 257 197.039C257 197.039 261.481 174.604 263.277 165.547Z" fill="#466EB6"/>
<path fill-rule="evenodd" clip-rule="evenodd" d="M282.53 129.153L283 137.523C283 137.523 277.364 148.268 274.296 146.876C271.722 145.707 273.777 137.595 273.777 137.595C273.777 137.595 274.17 135.737 274.728 133.6C275.117 132.107 275.431 130.492 275.376 129.315C275.239 126.454 282.53 129.153 282.53 129.153Z" fill="#F7A491"/>
<path fill-rule="evenodd" clip-rule="evenodd" d="M275.574 127.496C275.434 124.242 282.953 127.311 282.953 127.311L283 128.241C282.759 128.683 282.491 129.058 282.194 129.351C280.235 131.275 277.361 132.202 275 131.963C275.357 130.383 275.627 128.728 275.574 127.496Z" fill="#F47458"/>
<path fill-rule="evenodd" clip-rule="evenodd" d="M275.991 109C275.991 109 273.135 113.974 273.012 118.095C272.889 122.215 273.755 125 273.755 125L283 112.287L275.991 109Z" fill="#184655"/>
<path fill-rule="evenodd" clip-rule="evenodd" d="M272.008 117.868C271.937 119.524 272.324 120.924 272.871 120.997C273.419 121.07 273.921 119.787 273.992 118.132C274.063 116.476 273.676 115.076 273.129 115.003C272.581 114.93 272.079 116.213 272.008 117.868Z" fill="#F48C7F"/>
<path fill-rule="evenodd" clip-rule="evenodd" d="M286.871 114.742C287.106 114.688 287.394 125.981 284.029 128.724C280.663 131.467 274.685 131.85 272.863 129.217C270.849 126.305 272.36 114.36 277.404 111.706C282.449 109.051 286.871 114.742 286.871 114.742Z" fill="#F7A491"/>
<path fill-rule="evenodd" clip-rule="evenodd" d="M286.784 107.475C289.333 109.659 290.581 111.271 292.369 115.228C294.567 120.093 290.584 125.303 287.187 127.423C283.79 129.542 283.566 132 283.566 132L283.385 130.494C283.303 129.943 283.311 129.495 283.394 129.103C283.491 128.644 283.685 128.262 283.853 127.865C284.13 127.21 285.017 124.969 285.37 124.374C286.301 122.805 286.483 122.466 285.967 121.014C285.57 119.895 285.934 117.396 285.316 115.552L280.648 114.645C280.648 114.645 277.725 114.004 276.214 112.3C271.874 107.406 280.059 101.597 286.784 107.475Z" fill="#184655"/>
<path fill-rule="evenodd" clip-rule="evenodd" d="M286.295 121.27C285.802 122.877 285.941 124.506 286.606 124.909C287.272 125.312 288.211 124.336 288.705 122.729C289.198 121.123 289.059 119.494 288.394 119.091C287.728 118.688 286.789 119.664 286.295 121.27Z" fill="#F7A491"/>
<path fill-rule="evenodd" clip-rule="evenodd" d="M298.291 87.3439C299.134 89.4002 300.373 92.719 300.373 92.719C301.518 94.443 304.31 98.3599 306 100.961L298.965 102C298.965 102 294.71 95.6005 294.174 95.3984C293.722 95.2275 293.656 95.8968 290.093 94.6648C289.064 94.3092 288.034 93.0898 288.034 93.0898C288.034 93.0898 287.904 92.8828 288.153 92.4772C288.403 92.0713 287.858 90.709 288.186 90.8893C288.515 91.07 288.945 91.732 289.273 91.9123C289.602 92.093 289.178 89.6883 289.513 89.4196C289.848 89.1513 288.538 86.7069 291.959 84.0339C292.23 83.8215 293.344 81.961 295.553 83.8141C296.035 84.2186 297.447 85.2878 298.291 87.3439Z" fill="#F8A492"/>
<path fill-rule="evenodd" clip-rule="evenodd" d="M283.85 136.263C283.85 136.263 293.4 135.573 295.838 134.403C297.316 133.694 306.783 125.708 306.783 125.708L296.021 99.7747L304.79 97C304.79 97 322.381 125.345 320.913 128.562C319.397 131.884 301.772 145.859 298.33 151.813C296.348 155.244 298.229 201.816 297.585 202.247C292.996 204.767 273.703 206.998 274.003 205.534C282.292 165.072 283.85 136.263 283.85 136.263Z" fill="#F47458"/>
<path fill-rule="evenodd" clip-rule="evenodd" d="M255 79.0463L246.669 75L244 83.3604L252.101 88L255 79.0463Z" fill="#E3B25B"/>
<path fill-rule="evenodd" clip-rule="evenodd" d="M286.099 91.0552C286.099 91.0552 286.141 89.9202 287.388 88.4023C288.188 87.4284 289.177 86.0901 289.695 86.6892C290.212 87.2887 288.534 88.2016 289.126 88.1956C289.718 88.1894 293.264 85.5302 293.734 86.0731C294.203 86.6164 291.016 88.6816 291.315 88.8281C291.615 88.9745 294.13 86.1328 294.617 86.7962C295.116 87.4749 291.649 89.9797 291.727 90.1537C291.859 90.4452 294.414 88.4758 294.948 89.0938C295.482 89.712 291.733 91.4553 292.044 91.4519C292.356 91.4489 294.379 91.1646 294.394 91.6112C294.41 92.1158 290.002 93.2126 289.299 94.1076C288.595 95.0031 278.956 103.415 276.762 102.984C274.567 102.553 265.325 94.6711 265.039 92.353C264.753 90.0348 266.093 87.3072 267.588 87.2921C269.083 87.2768 277.677 95.5678 278.145 95.5632C278.615 95.5583 286.099 91.0552 286.099 91.0552Z" fill="#F48C7F"/>
<path fill-rule="evenodd" clip-rule="evenodd" d="M240.801 131.163C241.449 132.151 244 133.658 244 133.658C242.523 136.556 237.307 143 237.307 143C237.307 143 236.372 142.184 236.58 141.283C236.788 140.381 237.717 136.241 236.654 134.62C236.376 134.197 233.316 129.459 231 125.178C232.615 124.265 236.465 125.09 237.927 124C239.339 126.249 240.586 130.836 240.801 131.163Z" fill="#F7A491"/>
<path fill-rule="evenodd" clip-rule="evenodd" d="M241.434 134C241.434 134 237.815 139.589 237.095 140.215C236.508 140.726 235.442 146.904 236.356 146.999C237.271 147.095 244.902 138.039 244.998 136.855C245.094 135.671 241.434 134 241.434 134Z" fill="#184655"/>
<path fill-rule="evenodd" clip-rule="evenodd" d="M230.624 140.374C230.67 141.564 232 144.162 232 144.162C229.414 145.962 222.107 149 222.107 149C222.107 149 221.747 147.817 222.348 147.131C222.95 146.445 226.262 142.031 226.185 140.078C226.165 139.569 226.034 135.786 225.549 133.508C227.291 133.516 229.084 133.224 230.787 133C230.841 135.678 230.608 139.98 230.624 140.374Z" fill="#F7A491"/>
<path fill-rule="evenodd" clip-rule="evenodd" d="M242.694 106C242.694 106 227.269 114.047 225.367 115.938C223.946 117.351 224 136.509 224 136.509C224 136.509 229.237 137.731 232.021 136.32C232.021 136.32 233.072 123.297 233.803 122.926C234.535 122.556 250.446 118.908 250.446 118.908L251 111.168L242.694 106Z" fill="#B75742"/>
<path fill-rule="evenodd" clip-rule="evenodd" d="M258.314 101C258.314 101 251.637 105.659 248.762 106.269C246.561 106.737 228.714 109.535 228.026 114.425C227.636 117.2 231.767 129 231.767 129L239.506 126.208C239.506 126.208 237.339 120.632 237.727 120.02C238.114 119.408 252.557 121.704 256.881 119.667C261.205 117.629 262 108.156 262 108.156L258.314 101Z" fill="#F47458"/>
<path fill-rule="evenodd" clip-rule="evenodd" d="M259.596 81.6586C259.596 81.6586 255.858 79.9855 254.621 79.0283C253.383 78.0712 243.856 101.64 239 106.308C245.81 111.767 259.666 118 259.666 118C259.666 118 262.3 112.953 262.949 107.324C263.635 101.362 264.121 97.8752 264.746 95.8419L269.845 100.473L275 92.3501C275 92.3501 268.42 85.6973 265.766 84.2042C265.026 83.7879 259.596 81.6586 259.596 81.6586Z" fill="#F7CC7F"/>
<path fill-rule="evenodd" clip-rule="evenodd" d="M231.83 142C231.83 142 225.503 145.067 224.476 145.229C223.639 145.36 220.3 150.333 221.132 150.937C221.964 151.54 233.162 147.664 233.881 146.644C234.6 145.624 231.83 142 231.83 142Z" fill="#184655"/>
<path fill-rule="evenodd" clip-rule="evenodd" d="M259.022 76.2647C259.022 76.2647 257.727 80.5523 257.161 80.8269C256.594 81.101 255.769 81.5886 256.061 82.7851C256.353 83.9817 259.326 84.13 260.806 83.9206C262.226 83.7195 263.371 82.9133 263.371 82.9133L265 76L259.022 76.2647Z" fill="#F7A491"/>
<path fill-rule="evenodd" clip-rule="evenodd" d="M260.034 77.9925C261.062 77.9685 262.877 77.8854 264.761 76.7553L265 76L258.738 76.2066C258.738 76.2066 258.407 77.0229 258 77.8748C258.797 78.0218 259.544 78.0041 260.034 77.9925Z" fill="#F47458"/>
<path fill-rule="evenodd" clip-rule="evenodd" d="M268.456 73.2508C268.456 73.2508 269.302 71.4618 270.602 72.1629C271.903 72.8638 269.696 75.3397 268.537 74.9608C267.378 74.582 268.456 73.2508 268.456 73.2508Z" fill="#F7A491"/>
<path fill-rule="evenodd" clip-rule="evenodd" d="M264.48 63.2196C264.48 63.2196 262.039 62.4064 260.186 63.9096C258.333 65.4125 255.262 70.3938 256.161 74.7624C257.06 79.1317 259.999 79.0312 261.211 78.9904C262.423 78.9494 264.844 78.7784 267.037 75.6307C269.229 72.4834 270.91 64.4046 264.48 63.2196Z" fill="#F7A491"/>
<path fill-rule="evenodd" clip-rule="evenodd" d="M262 74.5912L260.028 74C260.028 74 259.797 74.6206 260.655 74.9008C261.701 75.2427 262 74.5912 262 74.5912Z" fill="white"/>
<path fill-rule="evenodd" clip-rule="evenodd" d="M295.123 93.8254C293.305 94.3742 290.327 93.5047 289.006 92.9366C288.881 92.5336 290.667 92.2282 291.865 92.4045C293.062 92.5807 294.651 91.4865 296.699 92.3118C297.899 93.2731 295.123 93.8254 295.123 93.8254Z" fill="#F8A492"/>
<path fill-rule="evenodd" clip-rule="evenodd" d="M292.759 86.8437C295.67 89.0317 293.588 89.0263 290.959 88.3533C292.427 89.0605 292.36 89.5299 291.997 89.8511C291.558 90.2389 288.538 89.8184 288.075 89.1735C287.646 88.5762 289.172 86.5546 289.775 86.0527C290.128 85.7341 290.539 85.3832 290.934 84.9517C292.045 83.7379 292.283 83.5608 292.708 83.2538C293.513 82.6725 294.205 83.1828 295.255 83.8487C296.573 84.9181 296.109 85.8263 294.126 85.1671C294.322 85.3156 295.842 86.1939 295.526 87.0271C295.307 87.6063 294.465 87.3656 292.759 86.8437Z" fill="#F7A491"/>
<path fill-rule="evenodd" clip-rule="evenodd" d="M252.035 118.087C251.049 118.431 250.203 120.611 250.096 120.492C250.096 120.492 245.947 122.292 243.393 124.963C243.301 125.2 243.152 125.835 243 126.111L246.698 127C248.692 125.52 250.762 122.974 251.017 122.392C251.177 122.026 251.645 121.055 251.896 120.536C252.146 120.018 252.679 118.874 252.883 118.656C253.187 118.331 252.896 117.788 252.035 118.087Z" fill="#F7A491"/>
<path fill-rule="evenodd" clip-rule="evenodd" d="M106.009 115.264C106.325 121.227 114.579 123.049 120.224 121.446C123.893 120.405 125.453 119.497 124.887 115.36C123.968 108.65 120.261 105.543 116.196 105.047C110.951 104.408 105.749 110.346 106.009 115.264Z" fill="#184655"/>
<path fill-rule="evenodd" clip-rule="evenodd" d="M115 205L119.79 246.839C119.79 246.839 117.448 255.687 117.731 258.2C118.013 260.714 122.937 293.688 122.937 293.688L122.729 295.538L122.724 301H141C141 301 137.121 299.302 131.695 295.945C131.293 295.697 130.369 294.905 130.144 293.327C128.695 283.164 131.562 249.263 131.562 249.263L133.82 205.135L115 205Z" fill="#F7A491"/>
<path fill-rule="evenodd" clip-rule="evenodd" d="M101.297 214C100.309 214.254 98.7878 250.112 97.9695 251.701C92.7809 261.777 91.5477 292.41 91.5477 292.41L90 296.868C91.7783 298.405 93.78 298.396 96.0222 296.723L95.7465 291.901L108.837 253.737L116 214.81L101.297 214Z" fill="#F7A491"/>
<path fill-rule="evenodd" clip-rule="evenodd" d="M128.351 143.405C126.267 140.474 117.668 131.983 116.713 132C113.928 132.05 104.787 132.054 103 132.988L103.086 149.152C103.378 150.509 109.688 171.643 109.321 176.27L109.365 176.313C114.654 181.568 122.995 181.155 127.832 175.399C127.832 175.399 127.811 168.988 128.556 163.14C129.723 153.978 133.529 150.686 128.351 143.405Z" fill="#F7CC7F"/>
<path fill-rule="evenodd" clip-rule="evenodd" d="M135.357 231.81L135.994 207.047C136.104 200.048 134.672 193.112 131.799 186.739L126.959 176C125.001 176.62 123.156 177.148 121.098 177.377C116.623 177.878 112.22 177.381 107.77 176.873C107.756 177.041 107.736 177.187 107.708 177.311C106.901 180.958 102.402 189.088 100.506 200.201C98.3553 212.815 97.7934 230.303 98.0624 231.784C110.522 234.686 123.292 234.782 135.357 231.81Z" fill="#E25A44"/>
<path fill-rule="evenodd" clip-rule="evenodd" d="M112.747 124.267C112.747 124.267 113.019 130.586 112.431 132.981C111.843 135.377 111.059 135.558 116.106 136.287C118.088 136.573 120 137 120 137C120 137 119.482 133.482 119.404 131.998C119.275 129.552 119.987 122 119.987 122L112.747 124.267Z" fill="#F7A491"/>
<path fill-rule="evenodd" clip-rule="evenodd" d="M116.557 127.913C117.61 128.505 118.592 128.855 119.499 129C119.673 125.74 120 122 120 122L113 124.364C113.813 125.776 114.967 127.019 116.557 127.913Z" fill="#F47458"/>
<path fill-rule="evenodd" clip-rule="evenodd" d="M95.6959 296C93.2946 297.257 90.7096 296.499 89.6695 296.098L89.324 297.192L88 302.382C88 302.382 93.2699 303.919 96 302.146L95.6959 296Z" fill="#E25A44"/>
<path fill-rule="evenodd" clip-rule="evenodd" d="M123.206 303H141.3C141.969 302.936 142.133 302.361 141.9 302.006C141.423 301.276 139.311 300.705 136.938 299.541C132.776 300.003 124.045 297.016 123.388 296C123.009 298.034 122.834 302.913 123.206 303Z" fill="#E25A44"/>
<path fill-rule="evenodd" clip-rule="evenodd" d="M126.674 151.58C126.674 151.58 129.817 157.678 130.317 158.307C130.317 158.307 144.08 155.33 149.885 153.555C149.953 153.525 150.021 153.495 150.089 153.463C150.202 153.408 150.356 153.388 150.384 153.236C150.51 152.551 151.153 150.248 151.47 149.268C151.558 148.998 151.704 148.752 151.899 148.543C152.331 148.079 154.259 145 154.259 145C154.259 145 154.92 145.242 154.92 146.252C154.92 147.261 153.466 149.182 153.863 149.196L153.871 149.197C154.276 149.212 154.663 149.092 155.062 148.968C155.582 148.807 156.181 148.791 156.731 148.85C157.268 148.909 157.609 149.292 157.652 149.858C157.679 150.206 157.611 150.59 157.742 150.893C157.968 151.418 158.299 156.228 157.456 156.699C157.035 156.934 154.768 157.341 153.862 157.357C153.205 157.367 152.568 157.526 152.032 157.776C151.914 157.831 151.791 157.875 151.666 157.914L151.667 157.916C147.523 159.555 133.69 165.298 133.69 165.298C133.69 165.298 126.908 167.662 125.917 166.818C124.927 165.974 119 154.607 119 154.607L126.674 151.58Z" fill="#F7A491"/>
<path fill-rule="evenodd" clip-rule="evenodd" d="M112.168 140.724C110.824 146.073 117.992 158 117.992 158C117.992 158 128.205 153.342 130 151.335C130 151.335 123.062 139.761 122.607 139.057C120.549 135.871 117.754 135.868 115.931 136.076C114.468 136.242 112.168 140.724 112.168 140.724Z" fill="#EDA258"/>
<path fill-rule="evenodd" clip-rule="evenodd" d="M113.498 143.319C117.593 138.519 118.077 129.174 114.265 124.2C115.991 121.108 117.419 121.408 116.458 118.011C114.564 111.312 122.02 105.823 114.732 105.023C107.424 104.611 103.513 109.888 100.879 114.74C99.693 116.926 98.1105 118.897 96.113 120.41C92.1556 123.41 90.6952 129.444 93.8122 135.063C90.6492 137.509 88.4416 143.578 91.3748 147.927C92.0789 148.97 93.3671 150.125 93.4466 150.442C93.3253 150.055 91.6577 160.942 103.871 162.8C116.335 164.696 117.164 152.745 113.498 143.319Z" fill="#184655"/>
<path fill-rule="evenodd" clip-rule="evenodd" d="M112.062 109.193C112.062 109.193 109.678 110.83 109.071 113.828C108.464 116.825 111.749 124.894 118.482 125.902C125.214 126.91 125.984 119.922 124.13 115.475C122.276 111.027 118.706 105.542 112.062 109.193Z" fill="#F7A491"/>
<path fill-rule="evenodd" clip-rule="evenodd" d="M108.989 120.171C107.569 115.983 107.439 112.669 110.2 110.653C112.961 108.638 115.291 106.699 118.349 109.141L119 109.402C119 109.402 114.167 111.572 114.267 114.359C114.366 117.146 112.143 120.804 112.741 122.092C113.34 123.38 114.187 126 114.187 126L112.957 125.231C112.957 125.231 110.408 124.36 108.989 120.171Z" fill="#184655"/>
<path fill-rule="evenodd" clip-rule="evenodd" d="M114.528 117.826C115.132 118.565 115.16 119.467 114.592 119.84C114.024 120.212 113.075 119.914 112.472 119.174C111.869 118.435 111.84 117.533 112.408 117.16C112.976 116.788 113.925 117.086 114.528 117.826Z" fill="#F7A491"/>
<path fill-rule="evenodd" clip-rule="evenodd" d="M176.685 224.251C174.863 224.99 168.965 222.409 166.066 221.015C162.782 219.435 160.752 218.438 156.731 216.461C154.371 215.301 150.741 214.348 150.024 215.569C149.648 218.256 153.755 220.737 156.308 220.245C157.811 220.686 163.329 224.538 164.624 225.439C167.288 227.292 170.19 228.79 173.851 231.48C177.512 234.17 181.29 235.684 183.123 234.697C184.956 233.71 183.529 228.432 182.342 226.77C181.156 225.107 176.685 224.251 176.685 224.251Z" fill="#E3B25B"/>
<path fill-rule="evenodd" clip-rule="evenodd" d="M196.524 264.307C197.017 270.362 191.603 275.255 191.396 281.201C191.199 286.865 200.271 289.989 195.965 296.727C194.782 298.29 190.673 299.006 187.32 299.006C183.967 299.006 184 302 184 302H195.899C203.723 299.852 205.137 296.345 205.958 294.774C207.305 292.196 225.723 273.423 201.824 287.841C195.989 291.361 210.009 280.322 210.404 276.416C209.245 271.664 195.864 256.208 196.524 264.307Z" fill="#E3B25B"/>
<path fill-rule="evenodd" clip-rule="evenodd" d="M199.061 198.263C197.124 197.287 194.398 197.382 191.918 195.817C189.438 194.251 188.049 192 186.759 192C185.469 192 181.519 194.263 183.999 199.449C183.999 199.449 187.829 206.72 186.759 210.985C186.187 213.266 183.287 217.347 178.723 221.653C174.159 225.959 171.183 237.605 174.258 244.455C177.334 251.306 186.461 255.318 191.224 259.429C195.986 263.539 197.474 270.781 197.474 270.781C195.49 277.632 193.109 285.265 199.657 290.745C206.204 296.226 205.907 297.89 205.907 297.89C201.641 298.966 200.351 298.77 196.978 298.77C193.605 298.77 193.704 302 193.704 302H201.217C202.977 302 204.727 301.733 206.405 301.21C212.851 299.201 213.666 299.272 213.844 297.694C214.042 295.932 207.395 292.605 212.257 287.809C217.118 283.014 220.491 280.274 220.888 276.359C231.107 281.253 245.691 282.525 255.811 275.87C257.1 274.891 251.644 276.457 244.203 277.142C236.762 277.827 227.634 275.576 223.666 269.607C220.662 265.088 221.682 261.092 215.431 252.285C209.181 243.477 204.716 240.834 203.823 234.277C202.931 227.721 202.236 226.644 203.03 217.151C203.823 207.658 204.505 207.131 203.228 203.352C202.633 201.591 200.771 199.125 199.061 198.263Z" fill="#F7CC7F"/>
<path fill-rule="evenodd" clip-rule="evenodd" d="M195.958 200.407C196.042 200.671 196.019 200.908 195.718 200.982C195.417 201.055 195.104 200.9 195.021 200.636C194.937 200.371 195.113 200.096 195.415 200.023C195.716 199.949 195.844 200.047 195.958 200.407Z" fill="#854D36"/>
<path fill-rule="evenodd" clip-rule="evenodd" d="M173 239C173.039 240.278 173.166 241.521 173.391 242.698C177.232 245.843 182.368 246.639 183 245.52C179.243 240.266 174.646 238.994 173 239Z" fill="#E3B25B"/>
<path fill-rule="evenodd" clip-rule="evenodd" d="M199.082 213.627C199.74 214.601 204.399 213.396 204.893 213.071C205.386 212.746 204.071 207.322 203.138 205.421C202.207 203.519 200.946 204.076 200.946 204.076C201.992 206.394 198.424 212.654 199.082 213.627Z" fill="#E3B25B"/>
<path fill-rule="evenodd" clip-rule="evenodd" d="M188.994 192.432C188.706 193.008 188.296 193.138 187.886 192.858C187.475 192.578 187.016 192.432 187.016 192.432C186.895 192.261 187.475 192 187.958 192C188.441 192 189.07 192.295 188.994 192.432Z" fill="#BF6F4E"/>
<path fill-rule="evenodd" clip-rule="evenodd" d="M177.255 233.102C175.326 233.988 169.081 230.89 166.011 229.218C162.534 227.323 160.385 226.125 156.127 223.753C153.628 222.361 149.785 221.218 149.026 222.683C148.627 225.907 152.976 228.884 155.679 228.294C157.27 228.823 163.113 233.446 164.485 234.527C167.305 236.751 170.377 238.548 174.253 241.776C178.13 245.004 182.131 246.82 184.072 245.636C186.012 244.452 184.502 238.118 183.245 236.123C181.988 234.129 177.255 233.102 177.255 233.102Z" fill="#F7CC7F"/>
</svg>
