<svg width="847" height="687" viewBox="0 0 847 687" fill="none" xmlns="http://www.w3.org/2000/svg">
<g filter="url(#filter0_d_113_1932)">
<path d="M336.271 7.45788C267.843 -12.9697 184.499 8.69667 145.257 70.8607C126.627 100.736 119.568 136.393 125.41 171.113C127.622 185.365 130.66 199.385 129.692 214.245C119.094 338.583 -24.8162 405.875 9.18674 544.823H336.271V7.45788Z" fill="#F1EA95"/>
<path d="M871.435 469.719C871.415 469.9 871.405 470.09 871.395 470.281C871.355 501.346 886.757 531.156 894.016 559.42C895.263 564.162 896.232 568.972 896.918 573.828C898.645 586.499 897.822 598.827 892.199 610.796H362.479V17.6017C383.645 27.5917 403.163 40.7448 422.772 53.3554C459.7 77.1009 481.749 93.3863 544.029 92.4626C577.554 91.9707 608.569 84.8826 638.649 77.3419C646.209 75.4342 653.71 73.5064 661.169 71.649C685.838 65.5143 710.136 60.1126 734.966 58.9781C780.178 55.2029 816.333 64.4902 844.416 82.5428C850.371 86.3712 856.032 90.6367 861.355 95.3043C916.356 143.458 932.32 230.588 920.161 309.104C913.032 355.149 896.034 381.595 884.046 412.79C881.228 420.015 878.831 427.397 876.867 434.899C874.191 445.214 872.451 455.749 871.666 466.376C871.576 467.48 871.496 468.584 871.435 469.719Z" fill="url(#paint0_linear_113_1932)"/>
<path opacity="0.2" d="M861.355 95.3043C856.033 90.6368 850.371 86.3713 844.417 82.543C832.259 124.855 792.379 153.075 748.432 150.462C704.485 147.849 668.23 115.104 661.17 71.6492C653.71 73.5066 646.21 75.4344 638.65 77.3421C647.997 129.218 690.82 168.475 743.311 173.288C795.802 178.101 845.05 147.286 863.675 97.975C862.911 97.0712 862.138 96.1776 861.355 95.3043Z" fill="white"/>
<path opacity="0.2" d="M850.27 409.638C803.703 412.036 762.989 441.813 746.592 485.463C730.195 529.114 741.236 578.332 774.706 610.796C776.152 612.212 777.635 613.581 779.154 614.903L818.613 612.864C817.127 612.212 815.661 611.529 814.215 610.796C771.735 589.514 751.795 539.894 767.737 495.135C783.68 450.376 830.498 424.534 876.868 434.899C878.831 427.397 881.228 420.015 884.046 412.79C873 410.107 861.622 409.045 850.27 409.638V409.638Z" fill="white"/>
<path opacity="0.2" d="M894.016 559.42C877.634 578.444 849.687 582.376 828.691 568.612C807.694 554.848 800.154 527.652 811.065 505.041C821.977 482.431 847.958 471.411 871.798 479.284C871.319 474.996 871.275 470.672 871.666 466.376C843.061 459.093 813.275 472.91 800.361 499.453C787.447 525.996 794.958 557.959 818.343 575.972C841.728 593.985 874.55 593.089 896.917 573.827C896.232 568.972 895.263 564.161 894.016 559.42V559.42Z" fill="white"/>
<path opacity="0.2" d="M407.409 419.598C391.991 419.574 376.721 422.609 362.482 428.525V454.164C405.442 430.808 459.133 444.267 485.996 485.126C512.859 525.984 503.932 580.611 465.46 610.793H498.305C526.858 575.712 532.677 527.332 513.256 486.481C493.836 445.63 452.642 419.6 407.409 419.598V419.598Z" fill="white"/>
<path d="M392.038 33.7784V544.823H278.646V73.1433H336.276L336.271 7.45801C337.851 7.92531 339.424 8.40631 340.977 8.92861C348.313 11.3883 355.496 14.2844 362.487 17.6013C372.62 22.461 382.484 27.8611 392.038 33.7784V33.7784Z" fill="url(#paint1_linear_113_1932)"/>
<path d="M893.183 610.793C873.259 646.6 659.71 678.329 463.827 678.329C325.27 678.329 108.398 659.252 47.685 612.855C46.8558 612.221 46.1044 611.494 45.335 610.793L893.183 610.793Z" fill="url(#paint2_linear_113_1932)"/>
<path d="M892.581 610.109C892.458 610.343 892.334 610.563 892.197 610.796C892.197 610.796 45.5954 611.027 45.3343 610.793C29.3908 596.527 14.5924 568.312 9.18652 544.823H886.08C894.891 567.749 902.656 591.953 892.581 610.109Z" fill="url(#paint3_linear_113_1932)"/>
<path d="M892.196 610.796H363.174V544.823H889.707C897.331 566.814 902.841 592.302 892.196 610.796Z" fill="url(#paint4_linear_113_1932)"/>
<path fill-rule="evenodd" clip-rule="evenodd" d="M483.437 601.175H530.168L530.168 554.444H483.437V601.175ZM526.044 597.052H487.56V558.568H526.044V597.052Z" fill="#DBEFFF"/>
<rect x="494.629" y="565.636" width="24.3473" height="24.3473" fill="#DBEFFF"/>
<path fill-rule="evenodd" clip-rule="evenodd" d="M414.715 601.175H461.446V554.444H414.715V601.175ZM457.323 597.052H418.838V558.568H457.323V597.052Z" fill="#DBEFFF"/>
<rect x="425.907" y="565.636" width="24.3473" height="24.3473" fill="#DBEFFF"/>
<path fill-rule="evenodd" clip-rule="evenodd" d="M552.159 601.175H598.89V554.444H552.159V601.175ZM594.767 597.052H556.282V558.568H594.767V597.052Z" fill="#DBEFFF"/>
<rect x="563.352" y="565.636" width="24.3473" height="24.3473" fill="#DBEFFF"/>
<path fill-rule="evenodd" clip-rule="evenodd" d="M620.881 601.175H667.612V554.444H620.881V601.175ZM663.489 597.052H625.004V558.568H663.489V597.052Z" fill="#DBEFFF"/>
<rect x="632.073" y="565.636" width="24.3473" height="24.3473" fill="#DBEFFF"/>
<path fill-rule="evenodd" clip-rule="evenodd" d="M689.604 601.175H736.335V554.444H689.604V601.175ZM732.211 597.052H693.727V558.568H732.211V597.052Z" fill="#DBEFFF"/>
<rect x="700.796" y="565.636" width="24.3473" height="24.3473" fill="#DBEFFF"/>
<path fill-rule="evenodd" clip-rule="evenodd" d="M758.326 601.175H805.057V554.444H758.326V601.175ZM800.934 597.052H762.449L762.449 558.568H800.934V597.052Z" fill="#DBEFFF"/>
<rect x="769.518" y="565.636" width="24.3473" height="24.3473" fill="#DBEFFF"/>
<path fill-rule="evenodd" clip-rule="evenodd" d="M840.792 601.175H887.523V554.444H840.792V601.175ZM883.4 597.052H844.915V558.568H883.4V597.052Z" fill="#DBEFFF"/>
<path d="M139.546 421.36H60.5109C60.164 421.36 59.8828 421.079 59.8828 420.732C59.8828 420.385 60.164 420.104 60.5109 420.104H138.918V394.981H88.659C88.4327 394.984 88.2224 394.865 88.1085 394.669C87.9945 394.474 87.9945 394.232 88.1085 394.037C88.2224 393.841 88.4327 393.722 88.659 393.725H139.546C139.713 393.725 139.872 393.791 139.99 393.909C140.108 394.027 140.174 394.186 140.174 394.353V420.732C140.174 420.899 140.108 421.059 139.99 421.176C139.872 421.294 139.713 421.36 139.546 421.36V421.36Z" fill="#CCA2A2"/>
<path d="M111.27 394.981C111.103 394.981 110.943 394.915 110.825 394.797C110.708 394.679 110.641 394.519 110.642 394.353V374.318C110.642 374.152 110.708 373.992 110.825 373.874C110.943 373.756 111.103 373.69 111.27 373.69H152.8C153.026 373.687 153.236 373.806 153.35 374.002C153.464 374.197 153.464 374.439 153.35 374.635C153.236 374.83 153.026 374.949 152.8 374.946H111.898V394.353C111.898 394.519 111.832 394.679 111.714 394.797C111.596 394.915 111.436 394.981 111.27 394.981V394.981Z" fill="#CCA2A2"/>
<path d="M294.972 57.6063H279.027V38.1363C279.027 37.9697 278.961 37.8099 278.843 37.6921C278.725 37.5743 278.565 37.5081 278.399 37.5082H238.715C238.488 37.5054 238.278 37.6245 238.164 37.8199C238.05 38.0154 238.05 38.2571 238.164 38.4526C238.278 38.6481 238.488 38.7672 238.715 38.7643H277.771V57.6063H197.723C197.556 57.6062 197.396 57.6723 197.279 57.7901C197.161 57.9079 197.095 58.0677 197.095 58.2343V84.6135C197.095 84.7801 197.161 84.9399 197.279 85.0578C197.396 85.1756 197.556 85.2417 197.723 85.2416H276.758C277.105 85.2416 277.386 84.9604 277.386 84.6135C277.386 84.2666 277.105 83.9854 276.758 83.9854H198.351V58.8624H294.972C295.198 58.8653 295.409 58.7462 295.523 58.5507C295.637 58.3552 295.637 58.1135 295.523 57.918C295.409 57.7226 295.198 57.6035 294.972 57.6063V57.6063Z" fill="#CCA2A2"/>
<path d="M121.422 516.828H77.5846C77.418 516.828 77.2582 516.762 77.1403 516.644C77.0225 516.526 76.9564 516.366 76.9565 516.2V492.961H45.9631C45.6162 492.961 45.335 492.68 45.335 492.333C45.335 491.986 45.6162 491.705 45.9631 491.705H77.5846C77.7512 491.705 77.911 491.771 78.0287 491.888C78.1465 492.006 78.2127 492.166 78.2126 492.333V515.571H121.422C121.648 515.569 121.858 515.688 121.972 515.883C122.086 516.079 122.086 516.32 121.972 516.516C121.858 516.711 121.648 516.83 121.422 516.828V516.828Z" fill="#CCA2A2"/>
</g>
<rect x="768.348" y="502.162" width="56.044" height="75.5943" fill="url(#paint5_linear_113_1932)"/>
<rect x="772.213" y="507.375" width="48.3138" height="65.1675" fill="#F5FBFF"/>
<rect x="770.755" y="498.216" width="56.044" height="75.5943" transform="rotate(23.6617 770.755 498.216)" fill="url(#paint6_linear_113_1932)"/>
<rect x="772.202" y="504.543" width="48.3138" height="65.1675" transform="rotate(23.6617 772.202 504.543)" fill="#F5FBFF"/>
<rect x="735.361" y="502.162" width="56.044" height="75.5943" fill="url(#paint7_linear_113_1932)"/>
<rect x="739.227" y="507.375" width="48.3138" height="65.1675" fill="#F5FBFF"/>
<rect x="728.335" y="527.589" width="101.709" height="85.2154" fill="url(#paint8_linear_113_1932)"/>
<rect x="798.432" y="535.836" width="23.3655" height="9.6211" fill="white"/>
<rect x="776.44" y="567.448" width="107.206" height="45.3566" fill="url(#paint9_linear_113_1932)"/>
<rect x="828.669" y="567.448" width="4.1233" height="45.3566" fill="#F5FBFF"/>
<rect x="883.646" y="588.065" width="4.1233" height="107.206" transform="rotate(90 883.646 588.065)" fill="#F5FBFF"/>
<rect x="846.043" y="331.727" width="10.9955" height="5.4978" fill="#B5D3E8"/>
<rect x="777.321" y="331.727" width="10.9955" height="5.4978" fill="#B5D3E8"/>
<rect x="783.334" y="280.185" width="37.1099" height="42.6077" fill="url(#paint10_linear_113_1932)"/>
<rect x="788.122" y="285.683" width="27.5332" height="31.6122" fill="#F5FBFF"/>
<circle cx="801.201" cy="300.802" r="4.1233" fill="#FFDBDB"/>
<circle cx="844.496" cy="308.361" r="8.9339" fill="url(#paint11_linear_113_1932)"/>
<rect x="834.188" y="313.172" width="34.361" height="10.9955" fill="url(#paint12_linear_113_1932)"/>
<rect x="750.691" y="322.105" width="132.977" height="9.6211" fill="url(#paint13_linear_113_1932)"/>
<path d="M751.454 194.76C756.009 194.76 759.701 198.452 759.701 203.007V211.253H743.208V203.007C743.208 198.452 746.9 194.76 751.454 194.76V194.76Z" fill="url(#paint14_linear_113_1932)"/>
<path d="M744.582 198.883C749.136 198.883 752.828 202.575 752.828 207.13V215.377H736.335V207.13C736.335 202.575 740.027 198.883 744.582 198.883V198.883Z" fill="url(#paint15_linear_113_1932)"/>
<path d="M758.327 198.883C762.881 198.883 766.573 202.575 766.573 207.13V215.377H750.08V207.13C750.08 204.943 750.949 202.845 752.495 201.299C754.042 199.752 756.14 198.883 758.327 198.883V198.883Z" fill="url(#paint16_linear_113_1932)"/>
<path d="M762.106 233.244H738.054L729.463 211.253H770.697L762.106 233.244Z" fill="url(#paint17_linear_113_1932)"/>
<path d="M787.042 174.143C787.042 174.143 791.165 167.86 785.955 160.693C780.745 153.526 775.247 154.901 775.247 154.901C775.247 154.901 774.097 172.769 787.042 174.143Z" fill="url(#paint18_linear_113_1932)"/>
<path d="M791.888 182.39C791.888 182.39 787.765 176.107 792.975 168.94C798.185 161.773 803.683 163.148 803.683 163.148C803.683 163.148 804.834 181.016 791.888 182.39Z" fill="url(#paint19_linear_113_1932)"/>
<path d="M791.887 211.941C791.705 211.941 791.53 211.868 791.401 211.739C791.272 211.61 791.2 211.436 791.2 211.253V182.39C791.298 181.816 792.095 177.887 793.576 176.406C793.75 176.233 794.003 176.165 794.24 176.229C794.477 176.292 794.662 176.477 794.726 176.714C794.789 176.952 794.721 177.205 794.548 177.378C793.542 178.383 792.773 181.432 792.563 182.521L792.575 211.253C792.575 211.436 792.502 211.61 792.374 211.739C792.245 211.868 792.07 211.941 791.887 211.941Z" fill="url(#paint20_linear_113_1932)"/>
<path d="M787.042 203.694C786.86 203.694 786.685 203.622 786.556 203.493C786.427 203.364 786.355 203.189 786.355 203.007V174.143C786.155 173.184 785.386 170.135 784.382 169.131C784.114 168.863 784.114 168.428 784.382 168.16C784.65 167.891 785.085 167.891 785.354 168.16C786.834 169.64 787.631 173.57 787.717 174.013L787.729 203.007C787.729 203.189 787.657 203.364 787.528 203.493C787.399 203.622 787.224 203.694 787.042 203.694Z" fill="url(#paint21_linear_113_1932)"/>
<path d="M796.657 233.244H781.846L776.208 187.887H802.295L796.657 233.244Z" fill="url(#paint22_linear_113_1932)"/>
<rect x="806.432" y="220.874" width="23.3655" height="12.37" fill="url(#paint23_linear_113_1932)"/>
<rect x="805.058" y="220.874" width="26.1144" height="4.1233" fill="#DD6F6F"/>
<rect x="809.523" y="242.865" width="10.9955" height="5.4978" fill="#B5D3E8"/>
<rect x="740.802" y="242.865" width="10.9955" height="5.4978" fill="#B5D3E8"/>
<rect x="724.996" y="233.244" width="111.33" height="9.6211" fill="url(#paint24_linear_113_1932)"/>
<rect x="65.6074" y="556.554" width="48.1055" height="56.3521" rx="7.1808" fill="url(#paint25_linear_113_1932)"/>
<path d="M108.902 558.615H86.9111C86.9111 562.411 89.9879 565.488 93.7833 565.488H98.2848C98.0291 566.615 97.9022 567.768 97.9066 568.924C97.9066 573.099 99.445 576.484 101.343 576.484C103.24 576.484 104.779 573.099 104.779 568.924C104.786 567.625 104.624 566.331 104.296 565.075C107.049 564.12 108.896 561.529 108.902 558.615Z" fill="url(#paint26_linear_113_1932)"/>
<rect x="63.5459" y="556.554" width="52.2288" height="5.33" rx="2.665" fill="url(#paint27_linear_113_1932)"/>
<path fill-rule="evenodd" clip-rule="evenodd" d="M66.2952 562.07C66.6472 575.548 76.91 586.104 89.6605 586.104C102.411 586.104 112.674 575.548 113.026 562.07C113.031 561.887 112.965 561.708 112.842 561.572C112.723 561.441 112.554 561.365 112.377 561.364H66.9446C66.7672 561.365 66.5983 561.441 66.4792 561.572C66.3559 561.708 66.2899 561.887 66.2952 562.07ZM89.6605 584.73C77.8419 584.73 68.2865 575.128 67.6219 562.739H111.699C111.035 575.128 101.479 584.73 89.6605 584.73Z" fill="#5B4A77"/>
<rect x="70.418" y="588.853" width="38.4844" height="19.2422" fill="url(#paint28_linear_113_1932)"/>
<path fill-rule="evenodd" clip-rule="evenodd" d="M73.167 606.034H106.154V590.915H73.167V606.034ZM104.779 604.66H74.5415V592.29H104.779V604.66Z" fill="white"/>
<path d="M332.249 82.3236V104.314H295.139V131.116C295.147 132.249 296.067 133.163 297.2 133.163C298.333 133.163 299.254 132.249 299.262 131.116V108.438H336.372V82.3236H332.249Z" fill="url(#paint29_linear_113_1932)"/>
<path d="M332.249 83.0108C332.253 85.3817 331.314 87.6568 329.637 89.3332C327.961 91.0097 325.686 91.9494 323.315 91.9447H297.201C292.266 91.9447 288.267 87.9449 288.267 83.0108C288.267 78.0768 292.266 74.0769 297.201 74.0769H323.315C325.686 74.0726 327.961 75.0124 329.637 76.6888C331.313 78.3652 332.253 80.6401 332.249 83.0108Z" fill="url(#paint30_linear_113_1932)"/>
<rect x="293.077" y="115.997" width="8.2467" height="16.4933" fill="url(#paint31_linear_113_1932)"/>
<path opacity="0.5" d="M323.274 79.8083C323.288 79.9595 323.315 80.1107 323.315 80.2619C323.311 81.2675 322.757 82.1904 321.872 82.6672C321.916 83.0091 321.939 83.3533 321.941 83.698C321.941 85.5948 321.322 87.1341 320.566 87.1341C319.81 87.1341 319.192 85.5948 319.192 83.698C319.193 83.3533 319.216 83.0091 319.26 82.6672C318.375 82.1904 317.821 81.2675 317.817 80.2619H296.513C294.05 80.2591 291.986 78.3967 291.73 75.9461C293.296 74.733 295.22 74.0754 297.2 74.0769H323.315C324.214 74.0752 325.109 74.2096 325.968 74.4755C326.027 74.7975 326.06 75.124 326.064 75.4514C326.058 77.3221 324.971 79.0204 323.274 79.8083Z" fill="#55A1E5"/>
<rect x="302.698" y="329.723" width="96.2109" height="5.4978" rx="2.7489" transform="rotate(-180 302.698 329.723)" fill="url(#paint32_linear_113_1932)"/>
<rect x="354.927" y="586.744" width="96.2109" height="5.4978" rx="2.7489" transform="rotate(180 354.927 586.744)" fill="url(#paint33_linear_113_1932)"/>
<rect x="349.43" y="555.132" width="96.2109" height="5.4978" rx="2.7489" transform="rotate(180 349.43 555.132)" fill="url(#paint34_linear_113_1932)"/>
<rect x="342.557" y="526.268" width="96.2109" height="5.4978" rx="2.7489" transform="rotate(-180 342.557 526.268)" fill="url(#paint35_linear_113_1932)"/>
<rect x="337.06" y="494.656" width="96.2109" height="5.4978" rx="2.7489" transform="rotate(-180 337.06 494.656)" fill="url(#paint36_linear_113_1932)"/>
<rect x="328.812" y="453.423" width="96.2109" height="5.4978" rx="2.7489" transform="rotate(-180 328.812 453.423)" fill="url(#paint37_linear_113_1932)"/>
<rect x="323.315" y="421.811" width="96.2109" height="5.4978" rx="2.7489" transform="rotate(-180 323.315 421.811)" fill="url(#paint38_linear_113_1932)"/>
<rect x="316.442" y="392.948" width="96.2109" height="5.4978" rx="2.7489" transform="rotate(-180 316.442 392.948)" fill="url(#paint39_linear_113_1932)"/>
<rect x="310.945" y="361.335" width="96.2109" height="5.4978" rx="2.7489" transform="rotate(-180 310.945 361.335)" fill="url(#paint40_linear_113_1932)"/>
<path d="M296.364 287.115L362.486 610.796H355.614L289.492 287.115H296.364Z" fill="url(#paint41_linear_113_1932)"/>
<path d="M203.738 287.115L269.861 610.796H262.988L196.866 287.115H203.738Z" fill="url(#paint42_linear_113_1932)"/>
<rect x="143.95" y="549.634" width="96.2109" height="5.4978" rx="2.7489" fill="url(#paint43_linear_113_1932)"/>
<rect x="150.823" y="520.771" width="96.2109" height="5.4978" rx="2.7489" fill="url(#paint44_linear_113_1932)"/>
<rect x="156.32" y="489.158" width="96.2109" height="5.4978" rx="2.7489" fill="url(#paint45_linear_113_1932)"/>
<rect x="164.567" y="447.925" width="96.2109" height="5.4978" rx="2.7489" fill="url(#paint46_linear_113_1932)"/>
<rect x="170.065" y="416.313" width="96.2109" height="5.4978" rx="2.7489" fill="url(#paint47_linear_113_1932)"/>
<rect x="176.938" y="387.45" width="96.2109" height="5.4978" rx="2.7489" fill="url(#paint48_linear_113_1932)"/>
<rect x="182.435" y="355.838" width="96.2109" height="5.4978" rx="2.7489" fill="url(#paint49_linear_113_1932)"/>
<rect x="190.682" y="324.225" width="96.2109" height="5.4978" rx="2.7489" fill="url(#paint50_linear_113_1932)"/>
<path d="M197.016 287.115L130.894 610.796H137.766L203.888 287.115H197.016Z" fill="url(#paint51_linear_113_1932)"/>
<path d="M289.642 287.115L223.52 610.796H230.392L296.514 287.115H289.642Z" fill="url(#paint52_linear_113_1932)"/>
<rect x="197.554" y="287.115" width="98.9598" height="8.2467" fill="#DD6F6F"/>
<path d="M238.787 126.306C238.787 126.306 247.034 116.685 236.039 108.438C225.043 100.191 220.92 113.936 220.92 113.936C215.307 108.917 207.414 107.338 200.303 109.812C187.933 113.936 193.431 134.552 193.431 134.552C193.431 134.552 179.686 140.05 183.81 153.794C187.933 167.539 218.171 160.667 218.171 160.667L238.787 126.306Z" fill="url(#paint53_linear_113_1932)"/>
<path d="M230.54 163.8L230.375 164.941L228.946 175.291L228.052 181.724C228.052 181.724 217.62 185.998 212.398 180.198C207.175 174.412 208.549 174.412 208.549 174.412L215.999 160.584L218.17 156.543L229.001 162.907L230.54 163.8Z" fill="url(#paint54_linear_113_1932)"/>
<path opacity="0.25" d="M230.376 164.941L228.946 175.291C224.633 173.308 218.008 165.166 215.999 160.585L218.171 156.544L229.001 162.907L230.376 164.941Z" fill="#5B4A77"/>
<path d="M238.788 126.306C238.788 126.306 240.162 134.552 241.537 140.05C242.298 143.251 244.586 145.872 247.655 147.06L242.911 153.697C242.911 153.697 245.355 168.648 238.527 170.288C227.969 172.824 217.454 162.385 215.999 157.925C212.397 156.15 207.85 150.096 209.924 145.548C212.784 139.277 218.179 145.446 219.464 148.4C219.463 148.399 219.545 131.803 238.788 126.306Z" fill="url(#paint55_linear_113_1932)"/>
<ellipse cx="234.649" cy="141.327" rx="1.3744" ry="2.7489" transform="rotate(-17.6294 234.649 141.327)" fill="url(#paint56_linear_113_1932)"/>
<path d="M228.058 138.563C227.802 138.563 227.567 138.421 227.449 138.194C227.331 137.967 227.348 137.693 227.495 137.483C232.123 130.846 237.403 132.453 237.624 132.523C237.858 132.598 238.034 132.792 238.086 133.032C238.138 133.272 238.059 133.521 237.877 133.686C237.695 133.851 237.439 133.907 237.205 133.832C237.007 133.772 232.636 132.51 228.622 138.269C228.494 138.454 228.283 138.564 228.058 138.563Z" fill="url(#paint57_linear_113_1932)"/>
<path d="M236.536 163.204C235.69 163.222 234.852 163.05 234.081 162.703C233.026 162.195 232.233 161.266 231.897 160.144C231.781 159.785 231.975 159.4 232.333 159.281C232.691 159.161 233.078 159.352 233.2 159.709C233.42 160.476 233.955 161.113 234.672 161.462C236.496 162.341 239.158 161.382 239.183 161.371C239.539 161.24 239.934 161.422 240.066 161.778C240.197 162.134 240.015 162.529 239.659 162.661C238.654 163.008 237.599 163.191 236.536 163.204Z" fill="#F5776E"/>
<rect x="138.453" y="581.246" width="96.2109" height="5.4978" rx="2.7489" fill="url(#paint58_linear_113_1932)"/>
<path d="M251.418 287.115C251.418 287.115 252.532 299.485 251.157 302.234C249.961 304.626 245.206 296.132 244.01 293.905C243.831 293.575 243.735 293.383 243.735 293.383C241.283 293.788 238.818 292.738 237.413 290.689C234.664 287.115 228.053 285.974 228.053 285.974V272.175C228.053 272.175 233.207 273.068 237.729 273.797C240.876 274.305 243.721 274.745 244.285 274.745C245.659 274.745 259.404 287.115 259.404 287.115H251.418Z" fill="url(#paint59_linear_113_1932)"/>
<path opacity="0.25" d="M244.01 293.905C243.831 293.575 243.735 293.383 243.735 293.383C241.283 293.788 238.818 292.738 237.413 290.689C234.664 287.115 228.053 285.974 228.053 285.974V272.175C228.053 272.175 233.207 273.068 237.729 273.797C237.055 278.264 236.327 284.325 237 285.645C238.1 287.802 241.041 287.802 243.007 291.239C243.488 292.065 243.827 292.966 244.01 293.905Z" fill="#5B4A77"/>
<path d="M183.04 235.931V270.828C183.04 270.828 161.818 251.38 161.818 244.508C161.818 240.481 164.952 234.736 167.536 230.681C169.364 227.809 170.931 225.774 170.931 225.774L183.04 235.931Z" fill="url(#paint60_linear_113_1932)"/>
<path opacity="0.25" d="M183.04 235.931V254.802L181.748 258.939C181.748 258.939 174.876 265.811 170.161 253.634C165.461 241.456 172.429 234.886 172.429 234.886L167.536 230.681C169.364 227.808 170.931 225.774 170.931 225.774L183.04 235.931Z" fill="#5B4A77"/>
<path d="M204.426 174.411L193.43 184.032L168.69 223.891L183.037 235.926L204.426 174.411Z" fill="url(#paint61_linear_113_1932)"/>
<path d="M238.526 216.826C238.361 221.169 238.032 226.008 237.606 231.121C237.303 234.722 236.946 238.446 236.533 242.24C233.592 270.223 228.52 301.3 228.081 303.98L228.053 304.158C228.053 304.158 187.933 313.23 174.189 311.855L160.444 310.481L160.499 310.055C160.705 308.447 161.489 302.372 162.726 294.043C163.166 291.088 163.661 287.83 164.21 284.408C164.513 282.525 164.829 280.587 165.145 278.608C168.444 258.733 174.355 235.346 178.312 223.891C188.168 195.361 198.024 181.709 202.264 176.73C203.497 175.291 205.007 174.115 206.704 173.272L212.673 170.288L228.053 181.723C228.053 181.723 229.125 182.355 230.94 185.159C233.257 188.959 235.182 192.983 236.685 197.172C236.919 197.804 237.166 198.45 237.413 199.137C238.568 202.285 238.815 208.676 238.526 216.826Z" fill="url(#paint62_linear_113_1932)"/>
<path opacity="0.25" d="M221.466 205.168C221.466 205.168 209.601 204.665 205.983 235.926C202.364 267.186 199.54 287.417 199.54 287.417L191.087 287.115C191.087 287.115 196.867 227.327 200.99 216.332C205.113 205.336 215.916 192.794 219.449 190.132C222.981 187.469 235.351 187.469 236.725 190.218C238.1 192.967 233.976 205.169 233.976 205.169L221.466 205.168Z" fill="#5B4A77"/>
<path opacity="0.25" d="M219.449 272.189C218.886 272.835 200.771 293.328 186.559 295.362C179.275 296.407 170.066 295.348 162.727 294.043C163.167 291.088 163.661 287.83 164.211 284.408C164.513 282.525 164.83 280.587 165.146 278.608C174.327 279.254 194.243 280.367 199.548 278.237C206.337 275.501 218.886 272.326 219.449 272.189Z" fill="#5B4A77"/>
<path d="M172.43 523.519V548.862H220.906C220.906 548.862 223.753 539.241 212.715 536.191C201.678 533.14 196.18 523.519 196.18 523.519L172.43 523.519Z" fill="url(#paint63_linear_113_1932)"/>
<path d="M211.985 463.044V488.387H259.397C259.397 488.387 262.181 478.766 251.386 475.716C240.591 472.665 235.214 463.044 235.214 463.044H211.985Z" fill="url(#paint64_linear_113_1932)"/>
<path d="M253.906 326.974L236.039 463.044H211.12L219.106 356.525L204.426 347.577L203.272 377.169L197.554 523.52H172.429L160.444 310.481L160.499 310.055L164.21 284.408H186.559C186.559 284.408 192.057 233.512 196.18 219.768C200.303 206.023 211.134 189.722 219.463 185.503C222.624 183.908 227.806 182.41 230.939 185.159L236.726 190.217L241.756 197.639L236.684 197.172L219.462 195.605C219.462 195.605 208.549 199.151 203.052 228.014C199.659 246.185 197.364 264.545 196.179 282.992C196.179 282.992 214.047 274.745 216.796 254.129C219.545 233.512 219.462 230.777 219.462 230.777H223.668V210.147H230.54V231.121H237.605C237.44 233.072 237.262 235.065 237.055 237.1C237.014 237.553 236.973 238.007 236.931 238.474C234.375 264.176 229.716 293.795 228.41 301.973C228.314 302.537 228.245 302.99 228.19 303.348C228.135 303.623 228.107 303.842 228.08 303.98L228.052 304.159L253.906 326.974Z" fill="url(#paint65_linear_113_1932)"/>
<path opacity="0.25" d="M238.526 216.826C238.361 221.169 238.031 226.008 237.605 231.121C237.303 234.722 236.945 238.446 236.533 242.24C234.073 240.26 231.242 237.828 228.053 234.886C213.897 221.829 214.075 202.834 214.075 202.834L238.526 216.826Z" fill="#5B4A77"/>
<path d="M268.338 213.583L288.268 152.42C288.268 152.42 288.745 141.2 285.757 137.876C282.77 134.552 293.191 124.931 293.191 124.931C293.191 124.931 305.833 119.466 308.885 122.182C313.335 126.143 304.316 125.919 304.075 129.283C304.075 129.283 313.761 134.688 307.511 144.173C304.938 148.008 302.886 152.168 301.41 156.543C301.41 156.543 297.144 222.648 290.645 230.829C284.145 239.01 266.277 234.887 266.277 234.887L268.338 213.583Z" fill="url(#paint66_linear_113_1932)"/>
<path opacity="0.25" d="M269.025 211.521L271.087 219.08C271.087 219.08 265.589 219.08 269.025 211.521Z" fill="#5B4A77"/>
<path d="M219.463 192.573C219.463 192.573 226.417 185.911 237.413 194.593C248.408 203.275 269.025 210.147 269.025 210.147L266.276 234.887C266.276 234.887 223.668 221.143 216.52 209.073C212.654 202.545 212.509 195.617 219.463 192.573Z" fill="url(#paint67_linear_113_1932)"/>
<path opacity="0.25" d="M204.426 347.577L203.272 377.169C199.973 364.936 195.094 349.336 190.682 345.048C183.122 337.709 180.373 326.287 186.558 329.723C192.743 333.159 204.426 347.577 204.426 347.577Z" fill="#5B4A77"/>
<path opacity="0.25" d="M221.043 291.184C221.03 291.253 220.988 291.28 220.961 291.239C220.934 291.198 220.961 291.184 221.043 291.184Z" fill="#5B4A77"/>
<path opacity="0.25" d="M304.073 129.411L301.324 132.16C301.324 132.16 306.822 130.786 304.073 129.411Z" fill="#5B4A77"/>
<path d="M216.577 283.404C222.308 274.388 226.308 243.367 226.912 238.474H236.932C236.974 238.007 237.015 237.553 237.056 237.1H225.689L225.62 237.704C225.579 238.062 221.346 273.344 215.422 282.676C209.567 291.885 197.527 294.661 197.403 294.689L196.867 294.812V303.348H228.191C228.246 302.99 228.314 302.537 228.411 301.973H198.242V295.898C200.743 295.238 211.079 292.077 216.577 283.404Z" fill="#9ED4FF"/>
<path d="M697.955 200.338C697.853 200.338 697.753 200.313 697.662 200.266L671.807 186.675L645.951 200.266C645.795 200.346 645.612 200.359 645.446 200.301C645.281 200.242 645.146 200.119 645.074 199.958C644.912 199.622 645.04 199.217 645.366 199.036L671.514 185.292C671.697 185.195 671.916 185.195 672.099 185.292L698.247 199.036C698.573 199.217 698.702 199.622 698.539 199.958C698.434 200.187 698.207 200.335 697.955 200.338Z" fill="url(#paint68_linear_113_1932)"/>
<rect x="644.318" y="199.651" width="54.9777" height="39.8588" fill="url(#paint69_linear_113_1932)"/>
<rect x="648.109" y="202.4" width="47.3945" height="34.361" fill="#F5FBFF"/>
<rect x="654.745" y="207.21" width="34.1241" height="24.74" rx="12.37" fill="#FFDBDB"/>
<path d="M755.612 135.531C755.51 135.531 755.409 135.506 755.319 135.459L729.464 121.868L703.608 135.459C703.452 135.539 703.27 135.552 703.104 135.494C702.938 135.435 702.803 135.312 702.731 135.151C702.569 134.815 702.697 134.41 703.024 134.229L729.171 120.484C729.354 120.388 729.573 120.388 729.756 120.484L755.904 134.229C756.23 134.41 756.359 134.815 756.196 135.151C756.091 135.38 755.864 135.528 755.612 135.531Z" fill="url(#paint70_linear_113_1932)"/>
<rect x="701.975" y="134.844" width="54.9777" height="39.8588" fill="url(#paint71_linear_113_1932)"/>
<rect x="705.766" y="137.593" width="47.3945" height="34.361" fill="#F5FBFF"/>
<path d="M723.965 166.456C723.501 166.456 723.069 166.222 722.815 165.834C722.561 165.445 722.52 164.955 722.706 164.53C725.638 157.827 727.71 151.157 727.514 149.2C727.224 149.344 726.947 149.514 726.686 149.706C722.443 152.641 718.884 156.459 716.254 160.897C715.909 161.573 715.081 161.84 714.405 161.495C713.729 161.149 713.462 160.321 713.807 159.646C716.619 154.801 720.473 150.642 725.089 147.469C726.844 146.215 728.251 145.994 729.267 146.819C731.144 148.341 729.838 153.765 727.722 159.486L741.335 146.177C741.878 145.651 742.745 145.663 743.274 146.204C743.802 146.744 743.795 147.611 743.257 148.142L724.926 166.064C724.67 166.316 724.325 166.456 723.965 166.456Z" fill="#FFDBDB"/>
<path d="M537.041 166.164C536.923 166.165 536.806 166.134 536.703 166.076L510.239 151.148L483.776 166.076C483.446 166.258 483.031 166.14 482.846 165.812C482.661 165.484 482.774 165.068 483.1 164.879L509.901 149.76C510.111 149.642 510.368 149.642 510.578 149.76L537.379 164.879C537.651 165.032 537.785 165.35 537.706 165.652C537.626 165.954 537.353 166.164 537.041 166.164Z" fill="url(#paint72_linear_113_1932)"/>
<circle cx="510.24" cy="151.046" r="1.3744" fill="url(#paint73_linear_113_1932)"/>
<rect x="482.063" y="164.103" width="56.3521" height="82.4665" fill="url(#paint74_linear_113_1932)"/>
<rect x="486.874" y="171.143" width="46.731" height="68.3868" fill="#F5FBFF"/>
<path d="M533.605 201.714V239.529H486.874V229.677L533.605 201.714Z" fill="#FFDBDB"/>
<path d="M533.605 220.204V239.53H486.874V213.074L500.863 202.937C503.068 201.338 506.04 201.3 508.287 202.84L533.605 220.204Z" fill="#DE9494"/>
<circle cx="518.471" cy="191.406" r="3.7993" fill="#FCD868"/>
<path d="M663.49 583.304H649.746L647.189 572.57L646.145 568.185H660.782L661.566 572.57L663.49 583.304Z" fill="url(#paint75_linear_113_1932)"/>
<path d="M578.481 568.185L577.89 572.57L576.46 583.304H562.785L564.613 572.57L565.355 568.185H578.481Z" fill="url(#paint76_linear_113_1932)"/>
<path opacity="0.25" d="M565.355 568.185H578.481L577.89 572.57H564.613L565.355 568.185Z" fill="#5B4A77"/>
<path opacity="0.25" d="M661.566 572.57H647.189L646.145 568.185H660.782L661.566 572.57Z" fill="#5B4A77"/>
<path d="M663.49 568.185H642.873L611.261 484.344L601.64 434.864L592.638 488.262L582.054 568.185H562.785V482.874L565.795 396.16L565.987 390.484L566.028 389.302H649.856L647.986 413.671L642.873 480.221L663.49 568.185Z" fill="url(#paint77_linear_113_1932)"/>
<path opacity="0.5" d="M649.856 389.302L647.987 413.671C636.895 413.808 612.677 413.575 598.204 409.438C586.535 406.098 573.918 400.243 565.795 396.16L565.987 390.484C568.695 390.14 571.911 389.742 575.499 389.302H649.856Z" fill="#393150"/>
<path d="M663.49 583.304H649.746C649.746 583.304 638.75 597.049 629.129 598.423C619.508 599.797 620.882 610.793 620.882 610.793H668.988L663.49 583.304Z" fill="url(#paint78_linear_113_1932)"/>
<path fill-rule="evenodd" clip-rule="evenodd" d="M654.896 604.599C655.587 606.269 657.216 607.357 659.023 607.357C661.489 607.354 663.487 605.356 663.49 602.89C663.49 601.083 662.402 599.454 660.732 598.763C659.063 598.072 657.142 598.454 655.864 599.731C654.587 601.009 654.204 602.93 654.896 604.599ZM655.93 602.89C655.93 601.182 657.315 599.798 659.023 599.798C660.73 599.8 662.113 601.183 662.115 602.89C662.115 604.598 660.731 605.983 659.023 605.983C657.315 605.983 655.93 604.598 655.93 602.89Z" fill="#FCDE83"/>
<circle cx="646.996" cy="594.3" r="2.0617" fill="#FCDE83"/>
<circle cx="641.499" cy="598.423" r="2.0617" fill="#FCDE83"/>
<path opacity="0.5" d="M601.64 434.864L598.204 420.433L585.834 414.935L601.64 434.864Z" fill="#393150"/>
<path d="M576.9 583.304H563.156C563.156 583.304 552.16 597.049 542.539 598.423C532.918 599.797 534.292 610.793 534.292 610.793H582.398L576.9 583.304Z" fill="url(#paint79_linear_113_1932)"/>
<circle cx="559.032" cy="594.3" r="2.0617" fill="#FCDE83"/>
<circle cx="553.534" cy="598.423" r="2.0617" fill="#FCDE83"/>
<path fill-rule="evenodd" clip-rule="evenodd" d="M568.138 604.599C568.829 606.269 570.458 607.357 572.265 607.357C574.731 607.354 576.729 605.356 576.732 602.89C576.732 601.083 575.644 599.454 573.974 598.763C572.305 598.072 570.384 598.454 569.106 599.731C567.829 601.009 567.447 602.93 568.138 604.599ZM569.172 602.89C569.172 601.182 570.557 599.798 572.265 599.798C573.972 599.8 575.355 601.183 575.357 602.89C575.357 604.598 573.973 605.983 572.265 605.983C570.557 605.983 569.172 604.598 569.172 602.89Z" fill="#FCDE83"/>
<path d="M583.968 208.769C583.968 208.769 578.274 199.835 586.521 190.214C594.767 180.593 612.635 176.47 623.631 194.338C634.626 212.205 639.583 221.628 649.855 230.76C658.985 238.877 665.227 248.557 669.08 263.747C674.485 285.051 648.137 309.103 631.644 300.857C615.151 292.61 601.64 250.69 597.516 235.571C594.679 225.883 590.087 216.798 583.968 208.769Z" fill="url(#paint80_linear_113_1932)"/>
<path d="M592.638 262.4L589.174 310.203C589.174 310.203 558.043 331.493 550.786 322.161C547.542 317.996 544.464 309.447 541.797 299.963C541.192 297.806 540.601 295.606 540.038 293.393C537.976 285.174 536.231 276.831 534.994 270.413C534.897 269.959 534.815 269.506 534.733 269.066C534.485 267.788 534.265 266.606 534.073 265.533C533.894 264.516 533.729 263.609 533.591 262.812C533.151 260.366 532.918 258.936 532.918 258.936L550.607 252.298L552.036 256.971L552.847 259.596L554.016 263.417L554.414 264.723L561.039 286.384L563.156 293.298L570.949 285.134L592.638 262.4Z" fill="url(#paint81_linear_113_1932)"/>
<path opacity="0.25" d="M577.89 304.362C577.89 304.362 569.341 306.355 567.334 307.166C565.328 307.976 558.345 315.976 558.51 312.815C558.675 309.667 554.222 307.729 550.607 305.667C548.889 304.677 545.192 302.245 541.797 299.964C541.193 297.806 540.602 295.607 540.038 293.394L561.04 286.384L570.29 283.291L570.95 285.133L577.89 304.362Z" fill="#5B4A77"/>
<path d="M552.848 259.596L534.073 265.534C533.894 264.517 533.729 263.609 533.592 262.812L552.037 256.971L552.848 259.596Z" fill="#FCDE83"/>
<path d="M554.414 264.723L534.994 270.413C534.897 269.959 534.815 269.506 534.732 269.066L554.016 263.417L554.414 264.723Z" fill="#FCDE83"/>
<path d="M550.607 252.298L534.993 258.167L532.918 253.439L529.674 252.298C527.681 251.597 526.774 249.068 526.362 247.226C526.208 246.557 526.102 245.877 526.046 245.192H538.416C538.416 245.192 538.416 238.32 535.062 235.255C531.709 232.176 531.544 224.575 532.918 224.575C534.292 224.575 537.041 230.073 539.103 231.269C541.165 232.451 546.662 235.571 548.037 242.443C548.626 245.792 549.486 249.088 550.607 252.298Z" fill="url(#paint82_linear_113_1932)"/>
<path opacity="0.25" d="M537.729 248.628C536.354 248.628 532.231 245.879 529.482 247.254C528.474 247.63 527.363 247.62 526.362 247.226C526.208 246.557 526.102 245.877 526.046 245.192H538.416C538.416 245.192 539.103 248.628 537.729 248.628Z" fill="#5B4A77"/>
<path d="M653.869 396.052C653.869 396.052 616.759 411.252 589.271 401.755C561.782 392.257 560.407 390.883 560.407 390.883C560.407 390.883 559.225 387.323 560.352 380.973C560.504 380.121 560.696 379.227 560.943 378.279C561.426 376.438 562.023 374.63 562.73 372.864C563.225 371.654 563.788 370.376 564.448 369.056L564.531 368.892C571.403 355.147 575.526 326.284 572.777 318.037C572.516 317.254 572.214 316.319 571.897 315.288C569.663 308.307 568.134 301.119 567.334 293.833C566.674 286.879 567.142 280.061 570.028 275.429C576.9 264.434 592.638 252.476 592.638 252.476L607.07 250.456C607.07 250.456 625.006 249.315 634.627 287.8C640.895 312.856 647.148 349.554 650.763 372.122C650.983 373.551 651.203 374.939 651.409 376.245C651.739 378.334 652.041 380.258 652.316 381.99C652.467 382.98 652.605 383.901 652.742 384.767C653.471 389.495 653.869 396.052 653.869 396.052Z" fill="url(#paint83_linear_113_1932)"/>
<path opacity="0.25" d="M567.334 293.834C567.334 293.834 610.574 276.117 613.13 286.631C615.7 297.16 610.574 328.346 608.279 320.965C605.997 313.598 607.825 298.108 598.121 301.682C590.603 304.431 575.663 305.31 569.272 305.572L567.334 293.834Z" fill="#5B4A77"/>
<path d="M612.636 285.051C605.763 293.297 565.905 302.919 550.786 301.544C542.072 300.747 512.384 276.749 495.959 262.963C495.588 262.647 495.231 262.345 494.873 262.043C493.842 261.177 492.867 260.352 491.973 259.596C491.19 258.923 490.461 258.304 489.788 257.727C486.682 255.074 484.812 253.439 484.812 253.439L492.647 235.516L497.883 239.392L500.151 241.069L503.024 243.199L504.165 244.037L552.16 279.553C552.16 279.553 574.151 275.429 590.672 269.808C597.311 267.54 602.162 266.894 605.598 266.935C610.01 266.938 613.997 269.563 615.742 273.615C616.924 276.515 616.841 280.007 612.636 285.051Z" fill="url(#paint84_linear_113_1932)"/>
<path d="M500.151 241.069L491.973 259.596C491.19 258.923 490.462 258.304 489.788 257.727L497.884 239.392L500.151 241.069Z" fill="#FCDE83"/>
<path d="M504.165 244.038L495.96 262.964C495.589 262.648 495.231 262.345 494.874 262.043L503.024 243.199L504.165 244.038Z" fill="#FCDE83"/>
<path d="M492.653 235.518C491.643 235.45 490.718 234.933 490.131 234.109C489.544 233.285 489.358 232.241 489.623 231.265C490.31 227.324 489.234 224.676 487.94 217.703C486.241 208.544 483.074 207.046 483.228 214.954C483.335 220.455 483.218 219.316 483.218 219.316C483.218 219.316 477.856 221.13 475.149 223.54C472.443 225.95 475.149 229.077 475.149 229.077L477.842 241.367L486.121 250.447L492.653 235.518Z" fill="url(#paint85_linear_113_1932)"/>
<path opacity="0.25" d="M475.879 229.386L478.628 232.134C477.894 232.15 477.186 231.866 476.667 231.347C476.148 230.828 475.863 230.119 475.879 229.386Z" fill="#5B4A77"/>
<path d="M652.741 384.767C641.072 388.258 626.545 391.597 613.584 391.597C612.951 391.597 612.347 391.584 611.728 391.57C594.3 391.13 573.175 385.165 560.352 380.973C560.503 380.121 560.695 379.227 560.943 378.279C573.56 382.416 594.561 388.381 611.797 388.821C624.882 389.151 640.165 385.632 652.315 381.99C652.467 382.98 652.604 383.901 652.741 384.767Z" fill="#FCDE83"/>
<path d="M651.408 376.245C639.959 379.599 626.05 382.664 613.57 382.664C612.951 382.664 612.333 382.65 611.715 382.636C595.125 382.21 575.635 376.987 562.729 372.864C563.224 371.654 563.788 370.376 564.447 369.057C577.189 373.07 596.087 378.114 611.811 378.513C624.332 378.843 638.901 375.599 650.762 372.122C650.982 373.551 651.202 374.939 651.408 376.245Z" fill="#FCDE83"/>
<path d="M607.07 233.559V250.456C607.07 250.456 600.129 258.4 592.638 260.05C585.147 261.685 592.019 254.813 592.638 252.477C592.879 250.056 592.943 247.622 592.83 245.192C592.775 241.811 592.638 238.567 592.638 238.567L607.07 233.559Z" fill="url(#paint86_linear_113_1932)"/>
<path opacity="0.25" d="M607.069 233.559V236.424C604.778 239.651 598.293 244.396 592.837 245.744L592.638 238.568L607.069 233.559Z" fill="#5B4A77"/>
<path d="M583.969 208.769C583.969 208.769 582.753 217.28 580.321 219.712L577.89 222.144C578.597 224.601 579.619 226.958 580.93 229.154C582.753 231.871 580.656 243.198 589.167 243.247C596.629 243.29 605.666 238.885 607.07 233.56C607.07 233.56 614.979 230.522 613.857 224.576C612.241 216.011 605.52 224.576 605.52 224.576C605.52 224.576 602.207 225.791 600.991 218.496C599.775 211.201 596.127 218.496 583.969 208.769Z" fill="url(#paint87_linear_113_1932)"/>
<ellipse cx="589.271" cy="217.703" rx="2.7489" ry="1.3744" transform="rotate(-77.5002 589.271 217.703)" fill="url(#paint88_linear_113_1932)"/>
<path d="M594.768 215.641C594.487 215.641 594.235 215.47 594.131 215.209C593.373 213.317 592.347 212.184 591.08 211.842C589.06 211.306 587.008 212.881 586.988 212.897C586.794 213.048 586.535 213.085 586.307 212.993C586.079 212.902 585.917 212.696 585.883 212.452C585.848 212.209 585.946 211.966 586.139 211.815C586.247 211.732 588.757 209.797 591.437 210.515C593.144 210.975 594.48 212.382 595.406 214.699C595.491 214.911 595.465 215.151 595.337 215.34C595.21 215.528 594.996 215.641 594.768 215.641Z" fill="url(#paint89_linear_113_1932)"/>
<path d="M589.787 236.94C588.669 236.894 587.605 236.452 586.783 235.693C586.515 235.428 586.511 234.997 586.773 234.726C587.035 234.455 587.467 234.446 587.74 234.706C588.41 235.332 589.323 235.63 590.234 235.521C591.397 235.284 592.482 234.066 593.373 231.997C593.523 231.649 593.927 231.488 594.276 231.638C594.624 231.788 594.785 232.193 594.635 232.541C593.54 235.086 592.145 236.542 590.491 236.871C590.259 236.917 590.023 236.94 589.787 236.94Z" fill="#F5776E"/>
<path d="M395.487 428.626H322.613L325.376 440.996H392.724L395.487 428.626Z" fill="url(#paint90_linear_113_1932)"/>
<rect x="321.253" y="425.877" width="75.5943" height="2.7489" fill="#F5FBFF"/>
<path d="M448.108 605.929H337.34L324.002 450.617H461.446L448.108 605.929Z" fill="url(#paint91_linear_113_1932)"/>
<rect x="310.258" y="440.996" width="164.933" height="13.7444" rx="6.8722" fill="url(#paint92_linear_113_1932)"/>
<rect x="321.94" y="599.057" width="141.568" height="13.7444" rx="6.8722" fill="url(#paint93_linear_113_1932)"/>
<rect x="402.346" y="384.644" width="48.1055" height="56.3521" rx="5.8344" fill="url(#paint94_linear_113_1932)"/>
<path d="M445.641 386.706H423.649C423.649 390.501 426.726 393.578 430.522 393.578H435.023C434.767 394.705 434.641 395.858 434.645 397.014C434.645 401.189 436.183 404.574 438.081 404.574C439.979 404.574 441.517 401.189 441.517 397.014C441.524 395.715 441.362 394.421 441.035 393.165C443.787 392.21 445.635 389.619 445.641 386.706V386.706Z" fill="url(#paint95_linear_113_1932)"/>
<rect x="400.284" y="384.644" width="52.2288" height="5.33" rx="2.665" fill="url(#paint96_linear_113_1932)"/>
<path fill-rule="evenodd" clip-rule="evenodd" d="M403.034 390.16C403.385 403.638 413.648 414.194 426.399 414.194C439.149 414.194 449.412 403.638 449.764 390.16C449.769 389.977 449.704 389.798 449.58 389.662C449.461 389.531 449.292 389.455 449.115 389.454H403.683C403.505 389.455 403.337 389.531 403.217 389.662C403.094 389.798 403.028 389.977 403.034 390.16ZM426.399 412.82C414.58 412.82 405.025 403.218 404.36 390.829H448.437C447.773 403.218 438.217 412.82 426.399 412.82Z" fill="#5B4A77"/>
<rect x="407.156" y="416.943" width="38.4844" height="19.2422" fill="url(#paint97_linear_113_1932)"/>
<rect x="410.593" y="419.692" width="31.6122" height="13.7444" stroke="white"/>
<defs>
<filter id="filter0_d_113_1932" x="0" y="0" width="928" height="686.329" filterUnits="userSpaceOnUse" color-interpolation-filters="sRGB">
<feFlood flood-opacity="0" result="BackgroundImageFix"/>
<feColorMatrix in="SourceAlpha" type="matrix" values="0 0 0 0 0 0 0 0 0 0 0 0 0 0 0 0 0 0 127 0" result="hardAlpha"/>
<feOffset dy="4"/>
<feGaussianBlur stdDeviation="2"/>
<feComposite in2="hardAlpha" operator="out"/>
<feColorMatrix type="matrix" values="0 0 0 0 0 0 0 0 0 0 0 0 0 0 0 0 0 0 0.25 0"/>
<feBlend mode="normal" in2="BackgroundImageFix" result="effect1_dropShadow_113_1932"/>
<feBlend mode="normal" in="SourceGraphic" in2="effect1_dropShadow_113_1932" result="shape"/>
</filter>
<linearGradient id="paint0_linear_113_1932" x1="411.277" y1="171.887" x2="411.277" y2="661.98" gradientUnits="userSpaceOnUse">
<stop stop-color="#70BEFF"/>
<stop offset="1" stop-color="#55A1E5"/>
</linearGradient>
<linearGradient id="paint1_linear_113_1932" x1="272.608" y1="-4.30919" x2="272.608" y2="590.289" gradientUnits="userSpaceOnUse">
<stop stop-color="#9ED4FF"/>
<stop offset="1" stop-color="#82B5E8"/>
</linearGradient>
<linearGradient id="paint2_linear_113_1932" x1="872.001" y1="683.685" x2="872.001" y2="619.524" gradientUnits="userSpaceOnUse">
<stop stop-color="#DBEFFF"/>
<stop offset="1" stop-color="#BDDBF4"/>
</linearGradient>
<linearGradient id="paint3_linear_113_1932" x1="-788.364" y1="508.429" x2="-788.364" y2="693.173" gradientUnits="userSpaceOnUse">
<stop stop-color="#DBEFFF"/>
<stop offset="1" stop-color="#BDDBF4"/>
</linearGradient>
<linearGradient id="paint4_linear_113_1932" x1="-302.159" y1="462.677" x2="-302.159" y2="692.758" gradientUnits="userSpaceOnUse">
<stop stop-color="#9ED4FF"/>
<stop offset="1" stop-color="#82B5E8"/>
</linearGradient>
<linearGradient id="paint5_linear_113_1932" x1="768.348" y1="577.756" x2="824.392" y2="577.756" gradientUnits="userSpaceOnUse">
<stop stop-color="#A55D6C"/>
<stop offset="1" stop-color="#8E4646"/>
</linearGradient>
<linearGradient id="paint6_linear_113_1932" x1="773.524" y1="602.853" x2="851.69" y2="584.028" gradientUnits="userSpaceOnUse">
<stop stop-color="#A55D6C"/>
<stop offset="1" stop-color="#8E4646"/>
</linearGradient>
<linearGradient id="paint7_linear_113_1932" x1="735.361" y1="577.756" x2="791.405" y2="577.756" gradientUnits="userSpaceOnUse">
<stop stop-color="#A55D6C"/>
<stop offset="1" stop-color="#8E4646"/>
</linearGradient>
<linearGradient id="paint8_linear_113_1932" x1="728.335" y1="612.805" x2="830.044" y2="612.805" gradientUnits="userSpaceOnUse">
<stop stop-color="#C65D5D"/>
<stop offset="1" stop-color="#B24646"/>
</linearGradient>
<linearGradient id="paint9_linear_113_1932" x1="776.44" y1="567.448" x2="776.44" y2="612.805" gradientUnits="userSpaceOnUse">
<stop stop-color="#FF8C8C"/>
<stop offset="1" stop-color="#EA6E6E"/>
</linearGradient>
<linearGradient id="paint10_linear_113_1932" x1="783.334" y1="322.793" x2="820.444" y2="322.793" gradientUnits="userSpaceOnUse">
<stop stop-color="#A55D6C"/>
<stop offset="1" stop-color="#8E4646"/>
</linearGradient>
<linearGradient id="paint11_linear_113_1932" x1="835.563" y1="299.427" x2="835.563" y2="317.295" gradientUnits="userSpaceOnUse">
<stop stop-color="#ACFDB5"/>
<stop offset="1" stop-color="#83DB89"/>
</linearGradient>
<linearGradient id="paint12_linear_113_1932" x1="834.188" y1="313.172" x2="834.188" y2="324.167" gradientUnits="userSpaceOnUse">
<stop stop-color="#FF8C8C"/>
<stop offset="1" stop-color="#EA6E6E"/>
</linearGradient>
<linearGradient id="paint13_linear_113_1932" x1="750.691" y1="331.727" x2="883.669" y2="331.727" gradientUnits="userSpaceOnUse">
<stop stop-color="#F5FBFF"/>
<stop offset="1" stop-color="#BDDBF4"/>
</linearGradient>
<linearGradient id="paint14_linear_113_1932" x1="743.208" y1="194.76" x2="743.208" y2="211.253" gradientUnits="userSpaceOnUse">
<stop stop-color="#71B080"/>
<stop offset="1" stop-color="#599B56"/>
</linearGradient>
<linearGradient id="paint15_linear_113_1932" x1="736.335" y1="198.883" x2="736.335" y2="215.377" gradientUnits="userSpaceOnUse">
<stop stop-color="#ACFDB5"/>
<stop offset="1" stop-color="#83DB89"/>
</linearGradient>
<linearGradient id="paint16_linear_113_1932" x1="750.08" y1="198.883" x2="750.08" y2="215.377" gradientUnits="userSpaceOnUse">
<stop stop-color="#ACFDB5"/>
<stop offset="1" stop-color="#83DB89"/>
</linearGradient>
<linearGradient id="paint17_linear_113_1932" x1="729.463" y1="211.253" x2="729.463" y2="233.244" gradientUnits="userSpaceOnUse">
<stop stop-color="#FF8C8C"/>
<stop offset="1" stop-color="#EA6E6E"/>
</linearGradient>
<linearGradient id="paint18_linear_113_1932" x1="775.221" y1="154.796" x2="775.221" y2="174.143" gradientUnits="userSpaceOnUse">
<stop stop-color="#ACFDB5"/>
<stop offset="1" stop-color="#83DB89"/>
</linearGradient>
<linearGradient id="paint19_linear_113_1932" x1="790.34" y1="163.042" x2="790.34" y2="182.39" gradientUnits="userSpaceOnUse">
<stop stop-color="#ACFDB5"/>
<stop offset="1" stop-color="#83DB89"/>
</linearGradient>
<linearGradient id="paint20_linear_113_1932" x1="791.2" y1="211.941" x2="794.749" y2="211.941" gradientUnits="userSpaceOnUse">
<stop stop-color="#774A4A"/>
<stop offset="1" stop-color="#5E3232"/>
</linearGradient>
<linearGradient id="paint21_linear_113_1932" x1="784.181" y1="203.694" x2="787.729" y2="203.694" gradientUnits="userSpaceOnUse">
<stop stop-color="#774A4A"/>
<stop offset="1" stop-color="#5E3232"/>
</linearGradient>
<linearGradient id="paint22_linear_113_1932" x1="776.208" y1="187.888" x2="776.208" y2="233.244" gradientUnits="userSpaceOnUse">
<stop stop-color="#FF8C8C"/>
<stop offset="1" stop-color="#EA6E6E"/>
</linearGradient>
<linearGradient id="paint23_linear_113_1932" x1="806.432" y1="220.874" x2="806.432" y2="233.244" gradientUnits="userSpaceOnUse">
<stop stop-color="#FF8C8C"/>
<stop offset="1" stop-color="#EA6E6E"/>
</linearGradient>
<linearGradient id="paint24_linear_113_1932" x1="724.996" y1="242.866" x2="836.326" y2="242.866" gradientUnits="userSpaceOnUse">
<stop stop-color="#F5FBFF"/>
<stop offset="1" stop-color="#BDDBF4"/>
</linearGradient>
<linearGradient id="paint25_linear_113_1932" x1="65.6074" y1="612.906" x2="113.713" y2="612.906" gradientUnits="userSpaceOnUse">
<stop stop-color="#70BEFF"/>
<stop offset="1" stop-color="#55A1E5"/>
</linearGradient>
<linearGradient id="paint26_linear_113_1932" x1="86.9111" y1="576.484" x2="108.902" y2="576.484" gradientUnits="userSpaceOnUse">
<stop stop-color="#FF8C8C"/>
<stop offset="1" stop-color="#EA6E6E"/>
</linearGradient>
<linearGradient id="paint27_linear_113_1932" x1="63.5459" y1="561.884" x2="115.775" y2="561.884" gradientUnits="userSpaceOnUse">
<stop stop-color="#5B4A77"/>
<stop offset="1" stop-color="#393150"/>
</linearGradient>
<linearGradient id="paint28_linear_113_1932" x1="70.418" y1="608.095" x2="108.902" y2="608.095" gradientUnits="userSpaceOnUse">
<stop stop-color="#FF8C8C"/>
<stop offset="1" stop-color="#EA6E6E"/>
</linearGradient>
<linearGradient id="paint29_linear_113_1932" x1="295.133" y1="82.3236" x2="295.133" y2="133.178" gradientUnits="userSpaceOnUse">
<stop stop-color="#5B4A77"/>
<stop offset="1" stop-color="#393150"/>
</linearGradient>
<linearGradient id="paint30_linear_113_1932" x1="288.267" y1="74.0769" x2="288.267" y2="91.9447" gradientUnits="userSpaceOnUse">
<stop stop-color="#5B4A77"/>
<stop offset="1" stop-color="#393150"/>
</linearGradient>
<linearGradient id="paint31_linear_113_1932" x1="293.077" y1="115.997" x2="293.077" y2="132.491" gradientUnits="userSpaceOnUse">
<stop stop-color="#5B4A77"/>
<stop offset="1" stop-color="#393150"/>
</linearGradient>
<linearGradient id="paint32_linear_113_1932" x1="3311.61" y1="375.388" x2="3311.37" y2="38.0655" gradientUnits="userSpaceOnUse">
<stop stop-color="#5B4A77"/>
<stop offset="1" stop-color="#393150"/>
</linearGradient>
<linearGradient id="paint33_linear_113_1932" x1="3419.1" y1="888.774" x2="3418.86" y2="551.452" gradientUnits="userSpaceOnUse">
<stop stop-color="#5B4A77"/>
<stop offset="1" stop-color="#393150"/>
</linearGradient>
<linearGradient id="paint34_linear_113_1932" x1="3406.85" y1="825.821" x2="3406.61" y2="488.499" gradientUnits="userSpaceOnUse">
<stop stop-color="#5B4A77"/>
<stop offset="1" stop-color="#393150"/>
</linearGradient>
<linearGradient id="paint35_linear_113_1932" x1="3393.72" y1="767.961" x2="3393.49" y2="430.639" gradientUnits="userSpaceOnUse">
<stop stop-color="#5B4A77"/>
<stop offset="1" stop-color="#393150"/>
</linearGradient>
<linearGradient id="paint36_linear_113_1932" x1="3381.47" y1="705.008" x2="3381.23" y2="367.686" gradientUnits="userSpaceOnUse">
<stop stop-color="#5B4A77"/>
<stop offset="1" stop-color="#393150"/>
</linearGradient>
<linearGradient id="paint37_linear_113_1932" x1="3364.36" y1="622.674" x2="3364.13" y2="285.351" gradientUnits="userSpaceOnUse">
<stop stop-color="#5B4A77"/>
<stop offset="1" stop-color="#393150"/>
</linearGradient>
<linearGradient id="paint38_linear_113_1932" x1="3352.11" y1="559.721" x2="3351.87" y2="222.398" gradientUnits="userSpaceOnUse">
<stop stop-color="#5B4A77"/>
<stop offset="1" stop-color="#393150"/>
</linearGradient>
<linearGradient id="paint39_linear_113_1932" x1="3338.98" y1="501.86" x2="3338.75" y2="164.538" gradientUnits="userSpaceOnUse">
<stop stop-color="#5B4A77"/>
<stop offset="1" stop-color="#393150"/>
</linearGradient>
<linearGradient id="paint40_linear_113_1932" x1="3326.73" y1="438.907" x2="3326.5" y2="101.585" gradientUnits="userSpaceOnUse">
<stop stop-color="#5B4A77"/>
<stop offset="1" stop-color="#393150"/>
</linearGradient>
<linearGradient id="paint41_linear_113_1932" x1="249.963" y1="433.891" x2="394.207" y2="467.92" gradientUnits="userSpaceOnUse">
<stop stop-color="#5B4A77"/>
<stop offset="1" stop-color="#393150"/>
</linearGradient>
<linearGradient id="paint42_linear_113_1932" x1="161.45" y1="452.969" x2="305.695" y2="487" gradientUnits="userSpaceOnUse">
<stop stop-color="#5B4A77"/>
<stop offset="1" stop-color="#393150"/>
</linearGradient>
<linearGradient id="paint43_linear_113_1932" x1="143.951" y1="549.634" x2="143.951" y2="555.131" gradientUnits="userSpaceOnUse">
<stop stop-color="#F5FBFF"/>
<stop offset="1" stop-color="#BDDBF4"/>
</linearGradient>
<linearGradient id="paint44_linear_113_1932" x1="150.823" y1="520.771" x2="150.823" y2="526.268" gradientUnits="userSpaceOnUse">
<stop stop-color="#F5FBFF"/>
<stop offset="1" stop-color="#BDDBF4"/>
</linearGradient>
<linearGradient id="paint45_linear_113_1932" x1="156.32" y1="489.158" x2="156.32" y2="494.656" gradientUnits="userSpaceOnUse">
<stop stop-color="#F5FBFF"/>
<stop offset="1" stop-color="#BDDBF4"/>
</linearGradient>
<linearGradient id="paint46_linear_113_1932" x1="164.567" y1="447.925" x2="164.567" y2="453.423" gradientUnits="userSpaceOnUse">
<stop stop-color="#F5FBFF"/>
<stop offset="1" stop-color="#BDDBF4"/>
</linearGradient>
<linearGradient id="paint47_linear_113_1932" x1="170.065" y1="416.313" x2="170.065" y2="421.811" gradientUnits="userSpaceOnUse">
<stop stop-color="#F5FBFF"/>
<stop offset="1" stop-color="#BDDBF4"/>
</linearGradient>
<linearGradient id="paint48_linear_113_1932" x1="176.938" y1="387.45" x2="176.938" y2="392.948" gradientUnits="userSpaceOnUse">
<stop stop-color="#F5FBFF"/>
<stop offset="1" stop-color="#BDDBF4"/>
</linearGradient>
<linearGradient id="paint49_linear_113_1932" x1="182.435" y1="355.838" x2="182.435" y2="361.335" gradientUnits="userSpaceOnUse">
<stop stop-color="#F5FBFF"/>
<stop offset="1" stop-color="#BDDBF4"/>
</linearGradient>
<linearGradient id="paint50_linear_113_1932" x1="190.682" y1="329.723" x2="286.893" y2="329.723" gradientUnits="userSpaceOnUse">
<stop stop-color="#F5FBFF"/>
<stop offset="1" stop-color="#BDDBF4"/>
</linearGradient>
<linearGradient id="paint51_linear_113_1932" x1="165.444" y1="788.736" x2="307.734" y2="756.948" gradientUnits="userSpaceOnUse">
<stop stop-color="#F5FBFF"/>
<stop offset="1" stop-color="#BDDBF4"/>
</linearGradient>
<linearGradient id="paint52_linear_113_1932" x1="253.506" y1="808.782" x2="395.796" y2="776.995" gradientUnits="userSpaceOnUse">
<stop stop-color="#F5FBFF"/>
<stop offset="1" stop-color="#BDDBF4"/>
</linearGradient>
<linearGradient id="paint53_linear_113_1932" x1="183.038" y1="105.803" x2="183.038" y2="162.385" gradientUnits="userSpaceOnUse">
<stop stop-color="#774A4A"/>
<stop offset="1" stop-color="#5E3232"/>
</linearGradient>
<linearGradient id="paint54_linear_113_1932" x1="208.386" y1="156.543" x2="208.386" y2="183.24" gradientUnits="userSpaceOnUse">
<stop stop-color="#FFCCB9"/>
<stop offset="1" stop-color="#F5968F"/>
</linearGradient>
<linearGradient id="paint55_linear_113_1932" x1="209.403" y1="126.306" x2="209.403" y2="170.679" gradientUnits="userSpaceOnUse">
<stop stop-color="#FFCCB9"/>
<stop offset="1" stop-color="#F5968F"/>
</linearGradient>
<linearGradient id="paint56_linear_113_1932" x1="232.935" y1="143.815" x2="235.949" y2="144.055" gradientUnits="userSpaceOnUse">
<stop stop-color="#774A4A"/>
<stop offset="1" stop-color="#5E3232"/>
</linearGradient>
<linearGradient id="paint57_linear_113_1932" x1="227.371" y1="138.563" x2="238.1" y2="138.563" gradientUnits="userSpaceOnUse">
<stop stop-color="#774A4A"/>
<stop offset="1" stop-color="#5E3232"/>
</linearGradient>
<linearGradient id="paint58_linear_113_1932" x1="138.453" y1="581.246" x2="138.453" y2="586.744" gradientUnits="userSpaceOnUse">
<stop stop-color="#F5FBFF"/>
<stop offset="1" stop-color="#BDDBF4"/>
</linearGradient>
<linearGradient id="paint59_linear_113_1932" x1="228.053" y1="272.175" x2="228.053" y2="302.654" gradientUnits="userSpaceOnUse">
<stop stop-color="#FFCCB9"/>
<stop offset="1" stop-color="#F5968F"/>
</linearGradient>
<linearGradient id="paint60_linear_113_1932" x1="161.818" y1="225.774" x2="161.818" y2="270.828" gradientUnits="userSpaceOnUse">
<stop stop-color="#FFCCB9"/>
<stop offset="1" stop-color="#F5968F"/>
</linearGradient>
<linearGradient id="paint61_linear_113_1932" x1="168.69" y1="174.411" x2="168.69" y2="235.926" gradientUnits="userSpaceOnUse">
<stop stop-color="#FCD868"/>
<stop offset="1" stop-color="#EAB142"/>
</linearGradient>
<linearGradient id="paint62_linear_113_1932" x1="160.444" y1="170.288" x2="160.444" y2="311.997" gradientUnits="userSpaceOnUse">
<stop stop-color="#FCD868"/>
<stop offset="1" stop-color="#EAB142"/>
</linearGradient>
<linearGradient id="paint63_linear_113_1932" x1="172.43" y1="523.519" x2="172.43" y2="548.862" gradientUnits="userSpaceOnUse">
<stop stop-color="#5B4A77"/>
<stop offset="1" stop-color="#393150"/>
</linearGradient>
<linearGradient id="paint64_linear_113_1932" x1="211.985" y1="463.044" x2="211.985" y2="488.387" gradientUnits="userSpaceOnUse">
<stop stop-color="#5B4A77"/>
<stop offset="1" stop-color="#393150"/>
</linearGradient>
<linearGradient id="paint65_linear_113_1932" x1="160.444" y1="183.633" x2="160.444" y2="523.519" gradientUnits="userSpaceOnUse">
<stop stop-color="#70BEFF"/>
<stop offset="1" stop-color="#55A1E5"/>
</linearGradient>
<linearGradient id="paint66_linear_113_1932" x1="266.277" y1="121.425" x2="266.277" y2="235.926" gradientUnits="userSpaceOnUse">
<stop stop-color="#FFCCB9"/>
<stop offset="1" stop-color="#F5968F"/>
</linearGradient>
<linearGradient id="paint67_linear_113_1932" x1="213.865" y1="190.131" x2="213.865" y2="234.886" gradientUnits="userSpaceOnUse">
<stop stop-color="#FCD868"/>
<stop offset="1" stop-color="#EAB142"/>
</linearGradient>
<linearGradient id="paint68_linear_113_1932" x1="645.005" y1="200.338" x2="698.608" y2="200.338" gradientUnits="userSpaceOnUse">
<stop stop-color="#774A4A"/>
<stop offset="1" stop-color="#5E3232"/>
</linearGradient>
<linearGradient id="paint69_linear_113_1932" x1="644.318" y1="239.51" x2="699.296" y2="239.51" gradientUnits="userSpaceOnUse">
<stop stop-color="#A55D6C"/>
<stop offset="1" stop-color="#8E4646"/>
</linearGradient>
<linearGradient id="paint70_linear_113_1932" x1="702.662" y1="135.531" x2="756.265" y2="135.531" gradientUnits="userSpaceOnUse">
<stop stop-color="#774A4A"/>
<stop offset="1" stop-color="#5E3232"/>
</linearGradient>
<linearGradient id="paint71_linear_113_1932" x1="701.975" y1="174.703" x2="756.952" y2="174.703" gradientUnits="userSpaceOnUse">
<stop stop-color="#A55D6C"/>
<stop offset="1" stop-color="#8E4646"/>
</linearGradient>
<linearGradient id="paint72_linear_113_1932" x1="482.75" y1="166.166" x2="537.729" y2="166.166" gradientUnits="userSpaceOnUse">
<stop stop-color="#A55D6C"/>
<stop offset="1" stop-color="#8E4646"/>
</linearGradient>
<linearGradient id="paint73_linear_113_1932" x1="508.865" y1="152.42" x2="511.614" y2="152.42" gradientUnits="userSpaceOnUse">
<stop stop-color="#A55D6C"/>
<stop offset="1" stop-color="#8E4646"/>
</linearGradient>
<linearGradient id="paint74_linear_113_1932" x1="482.063" y1="164.103" x2="482.063" y2="246.57" gradientUnits="userSpaceOnUse">
<stop stop-color="#A55D6C"/>
<stop offset="1" stop-color="#8E4646"/>
</linearGradient>
<linearGradient id="paint75_linear_113_1932" x1="646.144" y1="568.186" x2="646.144" y2="583.305" gradientUnits="userSpaceOnUse">
<stop stop-color="#FFCCB9"/>
<stop offset="1" stop-color="#F5968F"/>
</linearGradient>
<linearGradient id="paint76_linear_113_1932" x1="562.785" y1="568.186" x2="562.785" y2="583.305" gradientUnits="userSpaceOnUse">
<stop stop-color="#FFCCB9"/>
<stop offset="1" stop-color="#F5968F"/>
</linearGradient>
<linearGradient id="paint77_linear_113_1932" x1="562.785" y1="389.302" x2="562.785" y2="568.186" gradientUnits="userSpaceOnUse">
<stop stop-color="#5B4A77"/>
<stop offset="1" stop-color="#393150"/>
</linearGradient>
<linearGradient id="paint78_linear_113_1932" x1="620.814" y1="583.304" x2="620.814" y2="610.793" gradientUnits="userSpaceOnUse">
<stop stop-color="#FCD868"/>
<stop offset="1" stop-color="#EAB142"/>
</linearGradient>
<linearGradient id="paint79_linear_113_1932" x1="534.225" y1="583.304" x2="534.225" y2="610.793" gradientUnits="userSpaceOnUse">
<stop stop-color="#FCD868"/>
<stop offset="1" stop-color="#EAB142"/>
</linearGradient>
<linearGradient id="paint80_linear_113_1932" x1="582.053" y1="181.968" x2="582.053" y2="302.518" gradientUnits="userSpaceOnUse">
<stop stop-color="#774A4A"/>
<stop offset="1" stop-color="#5E3232"/>
</linearGradient>
<linearGradient id="paint81_linear_113_1932" x1="532.918" y1="252.298" x2="532.918" y2="324.526" gradientUnits="userSpaceOnUse">
<stop stop-color="#FCD868"/>
<stop offset="1" stop-color="#EAB142"/>
</linearGradient>
<linearGradient id="paint82_linear_113_1932" x1="526.046" y1="224.575" x2="526.046" y2="258.167" gradientUnits="userSpaceOnUse">
<stop stop-color="#FFCCB9"/>
<stop offset="1" stop-color="#F5968F"/>
</linearGradient>
<linearGradient id="paint83_linear_113_1932" x1="559.865" y1="250.453" x2="559.865" y2="404.877" gradientUnits="userSpaceOnUse">
<stop stop-color="#FCD868"/>
<stop offset="1" stop-color="#EAB142"/>
</linearGradient>
<linearGradient id="paint84_linear_113_1932" x1="465.299" y1="197.882" x2="437.157" y2="331.919" gradientUnits="userSpaceOnUse">
<stop stop-color="#FCD868"/>
<stop offset="1" stop-color="#EAB142"/>
</linearGradient>
<linearGradient id="paint85_linear_113_1932" x1="473.946" y1="209.83" x2="473.946" y2="250.448" gradientUnits="userSpaceOnUse">
<stop stop-color="#FFCCB9"/>
<stop offset="1" stop-color="#F5968F"/>
</linearGradient>
<linearGradient id="paint86_linear_113_1932" x1="589.167" y1="233.559" x2="589.167" y2="260.299" gradientUnits="userSpaceOnUse">
<stop stop-color="#FFCCB9"/>
<stop offset="1" stop-color="#F5968F"/>
</linearGradient>
<linearGradient id="paint87_linear_113_1932" x1="578.063" y1="214.307" x2="578.063" y2="248.452" gradientUnits="userSpaceOnUse">
<stop stop-color="#FFCCB9"/>
<stop offset="1" stop-color="#F5968F"/>
</linearGradient>
<linearGradient id="paint88_linear_113_1932" x1="590.738" y1="215.801" x2="587.207" y2="218.933" gradientUnits="userSpaceOnUse">
<stop stop-color="#774A4A"/>
<stop offset="1" stop-color="#5E3232"/>
</linearGradient>
<linearGradient id="paint89_linear_113_1932" x1="585.877" y1="215.641" x2="595.455" y2="215.641" gradientUnits="userSpaceOnUse">
<stop stop-color="#774A4A"/>
<stop offset="1" stop-color="#5E3232"/>
</linearGradient>
<linearGradient id="paint90_linear_113_1932" x1="322.614" y1="440.996" x2="395.487" y2="440.996" gradientUnits="userSpaceOnUse">
<stop stop-color="#F5FBFF"/>
<stop offset="1" stop-color="#BDDBF4"/>
</linearGradient>
<linearGradient id="paint91_linear_113_1932" x1="324.002" y1="450.617" x2="324.002" y2="605.929" gradientUnits="userSpaceOnUse">
<stop stop-color="#FF8C8C"/>
<stop offset="1" stop-color="#EA6E6E"/>
</linearGradient>
<linearGradient id="paint92_linear_113_1932" x1="310.258" y1="440.996" x2="310.258" y2="454.74" gradientUnits="userSpaceOnUse">
<stop stop-color="#C65D5D"/>
<stop offset="1" stop-color="#B24646"/>
</linearGradient>
<linearGradient id="paint93_linear_113_1932" x1="321.94" y1="599.057" x2="321.94" y2="612.801" gradientUnits="userSpaceOnUse">
<stop stop-color="#C65D5D"/>
<stop offset="1" stop-color="#B24646"/>
</linearGradient>
<linearGradient id="paint94_linear_113_1932" x1="402.346" y1="440.996" x2="450.451" y2="440.996" gradientUnits="userSpaceOnUse">
<stop stop-color="#F5FBFF"/>
<stop offset="1" stop-color="#BDDBF4"/>
</linearGradient>
<linearGradient id="paint95_linear_113_1932" x1="423.649" y1="404.574" x2="445.641" y2="404.574" gradientUnits="userSpaceOnUse">
<stop stop-color="#70BEFF"/>
<stop offset="1" stop-color="#55A1E5"/>
</linearGradient>
<linearGradient id="paint96_linear_113_1932" x1="400.284" y1="389.974" x2="452.513" y2="389.974" gradientUnits="userSpaceOnUse">
<stop stop-color="#5B4A77"/>
<stop offset="1" stop-color="#393150"/>
</linearGradient>
<linearGradient id="paint97_linear_113_1932" x1="407.156" y1="436.186" x2="445.641" y2="436.186" gradientUnits="userSpaceOnUse">
<stop stop-color="#70BEFF"/>
<stop offset="1" stop-color="#55A1E5"/>
</linearGradient>
</defs>
</svg>
