<svg width="255" height="101" viewBox="0 0 255 101" fill="none" xmlns="http://www.w3.org/2000/svg">
<path d="M167.94 60.8128V45.1651C167.94 42.646 168.414 40.4752 169.362 38.6526C170.311 36.83 171.57 35.3185 173.141 34.1183C174.711 32.918 176.519 31.9919 178.564 31.3399C180.609 30.6879 182.728 30.273 184.921 30.0952L186.966 21.1155C185.188 21.3526 183.447 21.7527 181.743 22.3158C180.039 22.8789 178.423 23.6124 176.897 24.5163C175.371 25.4202 173.948 26.5093 172.63 27.7836C171.311 29.058 170.162 30.5101 169.184 32.1401L168.962 32.229L168.117 32.0067L167.94 31.7845L167.984 20.9822H159.982L160.027 60.8128H167.94Z" fill="#398ECE"/>
<path d="M247.823 60.8129L247.778 20.8489H240.088V60.8129H247.823Z" fill="#76D687"/>
<path d="M202.302 60.724V35.8298L202.747 35.3853H226.752V27.3391H202.791L202.347 26.8501L202.302 8.80184L202.747 8.35731H229.863V0.0444336H194.078V60.724H202.302Z" fill="#76D687"/>
<path d="M85.832 60.724C85.8616 58.9755 85.8838 57.301 85.8987 55.7007C85.9135 54.1004 85.9209 52.4111 85.9209 50.633C85.9209 48.8548 85.9135 47.0915 85.8987 45.3429C85.8838 43.5944 85.8764 41.8311 85.8764 40.0529C85.8764 39.3713 85.869 38.6971 85.8542 38.0303L85.8462 37.6293C85.8367 37.0935 85.832 36.5529 85.832 36.0076L86.1432 35.5631C86.3802 35.5038 86.7359 35.4594 87.21 35.4297C87.6842 35.4001 88.2325 35.3853 88.8548 35.3853C89.2697 35.3853 89.6995 35.3927 90.144 35.4075C90.5885 35.4223 91.0479 35.4297 91.5221 35.4297C91.9666 35.4297 92.4186 35.4371 92.8779 35.452C93.3373 35.4668 93.804 35.4742 94.2782 35.4742C95.4044 35.4742 96.4935 35.4445 97.5456 35.3853C98.5976 35.326 99.4645 35.1926 100.146 34.9852C102.072 34.4221 103.873 33.5997 105.547 32.518C107.222 31.4363 108.674 30.1471 109.904 28.6505C111.134 27.1539 112.097 25.4869 112.793 23.6495C113.49 21.812 113.838 19.8709 113.838 17.826C113.838 15.5144 113.445 13.351 112.66 11.3357C111.875 9.32049 110.778 7.53493 109.37 5.97904C107.963 4.42316 106.303 3.14141 104.391 2.13379C102.48 1.12616 100.398 0.459357 98.1457 0.133362C96.2786 0.0740898 94.456 0.0370449 92.6779 0.0222269C90.8997 0.00740898 89.1067 0 87.299 0H77.4302V21.4268C77.4302 22.9975 77.4228 24.5756 77.408 26.1611C77.3932 27.7466 77.3857 29.3396 77.3857 30.9399V60.724H85.832Z" fill="#398ECE"/>
<path d="M91.655 27.2947C90.5288 27.2947 89.4471 27.2873 88.4098 27.2725C87.3726 27.2577 86.6465 27.2058 86.2316 27.1169L85.876 26.6724V8.40183L86.3205 7.91284H90.677C92.5441 7.91284 94.3667 8.00175 96.1448 8.17956C97.923 8.35738 99.5159 8.77228 100.924 9.42427C102.331 10.0763 103.465 11.0468 104.324 12.336C105.184 13.6252 105.613 15.3811 105.613 17.6038C105.613 18.8189 105.399 19.9747 104.969 21.0712C104.539 22.1677 103.946 23.1457 103.191 24.0051C102.435 24.8646 101.539 25.5758 100.501 26.1389C99.464 26.702 98.3527 27.028 97.1673 27.1169H97.1228C96.6486 27.1465 95.9077 27.1836 94.9001 27.228C93.8925 27.2725 92.8108 27.2947 91.655 27.2947Z" fill="white"/>
<path d="M138.703 60.0503C140.563 59.5517 142.33 58.8175 144.003 57.8476C145.676 56.8777 147.133 55.7282 148.372 54.399C149.611 53.0698 150.567 51.571 151.24 49.9027C151.913 48.2343 152.194 46.4486 152.083 44.5454L144.869 46.4784C144.209 48.2507 143.195 49.5653 141.83 50.4222C140.464 51.2791 138.808 51.9683 136.861 52.4899C135.401 52.8811 134 52.9496 132.659 52.6954C131.318 52.4412 130.087 51.9425 128.968 51.1993C127.848 50.4561 126.883 49.518 126.074 48.3851C125.264 47.2521 124.679 46.0129 124.318 44.6674L150.811 37.5685L149.028 30.913C148.836 30.1973 148.47 29.4595 147.929 28.6994C147.388 27.9393 146.879 27.3008 146.403 26.7841C143.937 24.2232 141.119 22.5237 137.95 21.6856C134.78 20.8476 131.506 20.8811 128.128 21.7862C126.324 22.2694 124.64 23.0274 123.076 24.0601C121.512 25.0929 120.145 26.3182 118.976 27.7361C117.806 29.154 116.871 30.7315 116.171 32.4685C115.471 34.2056 115.093 36.002 115.038 37.8576L114.869 38.0869L114.998 38.0524C114.889 39.2476 114.926 40.4187 115.111 41.5658C115.296 42.7129 115.549 43.8876 115.871 45.0899C116.239 46.464 116.675 47.8045 117.179 49.1116C117.682 50.4187 118.35 51.6511 119.182 52.8089L119.193 52.8518C120.263 54.4369 121.54 55.7975 123.025 56.9335C124.511 58.0695 126.104 58.9467 127.804 59.5651C129.503 60.1835 131.287 60.5417 133.154 60.6396C135.021 60.7376 136.871 60.5412 138.703 60.0503Z" fill="#398ECE"/>
<path d="M140.935 35.0604L123.587 39.7087L123.392 39.6688L122.825 39.2686L122.736 39.1083C122.588 37.9822 122.686 36.8896 123.031 35.8307C123.377 34.7717 123.885 33.8071 124.557 32.9367C125.229 32.0663 126.039 31.3123 126.988 30.6745C127.937 30.0367 128.941 29.5759 130 29.2921L130.215 29.2345C131.274 28.9507 132.395 28.8115 133.578 28.8167C134.761 28.822 135.873 29.0225 136.915 29.4184C137.956 29.8142 138.881 30.4025 139.689 31.1833C140.496 31.9641 141.065 32.9699 141.395 34.2008L141.386 34.3412L141.083 34.9285L140.935 35.0604Z" fill="white"/>
<rect x="245.165" y="3.70032" width="0.559119" height="4.27561" fill="#398ECE"/>
<circle cx="245.445" cy="3.68388" r="1.13468" fill="#398ECE"/>
<circle cx="245.445" cy="7.10441" r="1.13468" fill="#398ECE"/>
<rect x="241.712" y="10.5742" width="0.559119" height="4.27561" fill="#398ECE"/>
<circle cx="241.992" cy="10.5578" r="1.13468" fill="#398ECE"/>
<circle cx="241.992" cy="13.9782" r="1.13468" fill="#398ECE"/>
<circle cx="241.992" cy="3.68388" r="1.13468" fill="#F8E71C"/>
<circle cx="238.571" cy="10.5578" r="1.13468" fill="#F8E71C"/>
<circle cx="248.865" cy="7.10441" r="1.13468" fill="#F8E71C"/>
<circle cx="245.445" cy="13.9782" r="1.13468" fill="#F8E71C"/>
<path fill-rule="evenodd" clip-rule="evenodd" d="M238.604 7.40041V6.84129H242.88V7.40041H238.604Z" fill="#76D687"/>
<circle cx="238.571" cy="7.10433" r="1.13468" transform="rotate(-90 238.571 7.10433)" fill="#76D687"/>
<circle cx="241.992" cy="7.10433" r="1.13468" transform="rotate(-90 241.992 7.10433)" fill="#76D687"/>
<path fill-rule="evenodd" clip-rule="evenodd" d="M245.445 10.8208V10.2617H249.721V10.8208H245.445Z" fill="#76D687"/>
<circle cx="245.445" cy="10.5577" r="1.13468" transform="rotate(-90 245.445 10.5577)" fill="#76D687"/>
<circle cx="248.865" cy="10.5577" r="1.13468" transform="rotate(-90 248.865 10.5577)" fill="#76D687"/>
<rect x="39.7646" y="5.92249" width="2.87663" height="21.9977" fill="#398ECE"/>
<circle cx="41.2031" cy="5.83786" r="5.83786" fill="#398ECE"/>
<circle cx="41.2031" cy="23.436" r="5.83786" fill="#398ECE"/>
<rect x="21.998" y="41.2881" width="2.87663" height="21.9977" fill="#398ECE"/>
<circle cx="23.4365" cy="41.2035" r="5.83786" fill="#398ECE"/>
<circle cx="23.4365" cy="58.8016" r="5.83786" fill="#398ECE"/>
<circle cx="23.4365" cy="5.83786" r="5.83786" fill="#F8E71C"/>
<circle cx="5.83786" cy="41.2035" r="5.83786" fill="#F8E71C"/>
<circle cx="58.8017" cy="23.436" r="5.83786" fill="#F8E71C"/>
<circle cx="41.2031" cy="58.8016" r="5.83786" fill="#F8E71C"/>
<path fill-rule="evenodd" clip-rule="evenodd" d="M6.00684 24.959V22.0824H28.0046V24.959H6.00684Z" fill="#76D687"/>
<circle cx="5.83786" cy="23.4361" r="5.83786" transform="rotate(-90 5.83786 23.4361)" fill="#76D687"/>
<circle cx="23.4365" cy="23.4361" r="5.83786" transform="rotate(-90 23.4365 23.4361)" fill="#76D687"/>
<path fill-rule="evenodd" clip-rule="evenodd" d="M41.2031 42.5571V39.6805H63.2009V42.5571H41.2031Z" fill="#76D687"/>
<circle cx="41.2031" cy="41.2034" r="5.83786" transform="rotate(-90 41.2031 41.2034)" fill="#76D687"/>
<circle cx="58.8017" cy="41.2034" r="5.83786" transform="rotate(-90 58.8017 41.2034)" fill="#76D687"/>
</svg>
