<svg width="348" height="250" viewBox="0 0 348 250" fill="none" xmlns="http://www.w3.org/2000/svg">
<path d="M330.497 232.583C329.694 232.623 328.89 232.513 328.127 232.26C326.455 231.725 325.065 230.548 324.263 228.989C323.46 227.429 323.311 225.615 323.847 223.946C329.556 206.302 332.031 187.775 331.154 169.254C330.963 165.608 333.767 162.498 337.418 162.307C341.068 162.115 344.182 164.916 344.373 168.561C345.321 188.661 342.636 208.768 336.449 227.919C335.638 230.564 333.262 232.425 330.497 232.583Z" fill="#94CB57"/>
<path d="M334.02 146.136C330.82 146.297 327.965 144.146 327.241 141.03C326.217 136.682 324.994 132.312 323.608 127.983C319.282 114.652 313.143 101.978 305.363 90.3168C303.806 87.3054 304.781 83.6051 307.622 81.7502C310.463 79.8953 314.248 80.487 316.385 83.1201C324.82 95.765 331.488 109.501 336.204 123.947C337.706 128.584 339.031 133.313 340.123 138.038C340.952 141.591 338.743 145.143 335.188 145.975C334.803 146.061 334.413 146.115 334.02 146.136Z" fill="#6AB9F1"/>
<path d="M292.481 70.2579C290.585 70.359 288.737 69.6423 287.407 68.2898C274.428 55.0389 259.162 44.2353 242.342 36.3981C240.2 35.396 238.756 33.3286 238.555 30.9747C238.353 28.6208 239.424 26.338 241.364 24.9862C243.304 23.6344 245.819 23.419 247.961 24.4211C266.204 32.9399 282.767 44.66 296.863 59.0241C298.688 60.8795 299.253 63.6315 298.308 66.0553C297.363 68.4791 295.082 70.124 292.481 70.2579Z" fill="#F8E71C"/>
<path d="M217.474 26.9288C216.797 26.9614 216.118 26.8967 215.459 26.7366C197.55 22.0689 178.94 20.6893 160.536 22.665C156.896 23.0614 153.625 20.4361 153.228 16.8013C152.832 13.1665 155.461 9.89855 159.1 9.50219C179.163 7.33314 199.452 8.82665 218.979 13.9098C222.13 14.7372 224.21 17.7329 223.88 20.971C223.55 24.209 220.909 26.7257 217.655 26.9028L217.474 26.9288Z" fill="#EAAD48"/>
<ellipse cx="271.1" cy="45.7791" rx="11.5822" ry="11.5674" transform="rotate(-3 271.1 45.7791)" fill="white"/>
<path fill-rule="evenodd" clip-rule="evenodd" d="M256.23 46.5586C256.659 54.7611 263.666 61.0616 271.879 60.6312C280.092 60.2008 286.401 53.2024 285.971 44.9998C285.542 36.7973 278.535 30.4968 270.322 30.9272C262.109 31.3576 255.8 38.356 256.23 46.5586ZM262.839 46.2122C262.6 41.6552 266.105 37.7672 270.668 37.5281C275.231 37.289 279.123 40.7893 279.362 45.3462C279.601 49.9032 276.096 53.7912 271.533 54.0303C266.97 54.2694 263.078 50.7691 262.839 46.2122Z" fill="#F8E71C"/>
<path d="M23.3752 232.18C20.3688 232.328 17.6415 230.431 16.7377 227.564C2.94108 185.44 6.66683 139.544 27.0781 100.185C47.4396 60.406 82.8353 30.3706 125.43 16.7276C128.846 15.7774 132.404 17.6838 133.5 21.051C134.595 24.4183 132.84 28.0503 129.518 29.2881C90.2736 41.8827 57.6635 69.5648 38.8929 106.218C20.0852 142.467 16.6413 184.74 29.3347 223.545C29.8774 225.213 29.7343 227.027 28.9367 228.59C28.1392 230.153 26.7527 231.335 25.0823 231.876C24.5288 232.051 23.955 232.153 23.3752 232.18Z" fill="#FF6B6B"/>
</svg>
