<svg width="166" height="42" viewBox="0 0 166 42" fill="none" xmlns="http://www.w3.org/2000/svg">
<path d="M25.3806 28.9825C24.9581 28.655 24.451 28.4094 23.8595 28.2456C23.2679 28.0819 22.6764 28 22.1693 28C21.7468 28 21.3243 28.0819 20.9017 28.1637C20.4792 28.2456 20.0567 28.4094 19.7186 28.5731C19.3806 28.7368 19.0426 28.9825 18.7046 29.3099C18.3665 29.6374 18.1975 29.9649 18.0285 30.2924C18.0285 29.7193 17.8595 29.3099 17.5215 28.9825C17.2679 28.655 16.8454 28.4094 16.4229 28.2456C16.0003 28.0819 15.4933 28 14.9862 28C14.4792 28 13.9722 28.0819 13.3806 28.1637V30.2924C13.7186 30.2924 14.0567 30.2924 14.2257 30.3743C14.4792 30.4561 14.5637 30.538 14.6482 30.7018C14.7327 30.8655 14.8172 31.0292 14.8172 31.2749C14.8172 31.5205 14.8172 31.7661 14.8172 32.0936V42H18.0285V34.0585C18.0285 33.4854 18.113 32.9942 18.3665 32.5848C18.5355 32.1754 18.7891 31.848 19.1271 31.6023C19.4651 31.3567 19.8877 31.1111 20.3102 31.0292C20.7327 30.9474 21.2398 30.7836 21.6623 30.7836C22.5074 30.7836 23.2679 30.9474 23.944 31.2749V31.2749L25.3806 28.9825Z" fill="#00A6CA"/>
<path fill-rule="evenodd" clip-rule="evenodd" d="M39.0691 39.12C39.1511 39.28 39.2331 39.44 39.479 39.52C39.6429 39.6 39.9708 39.6 40.3806 39.52V41.76C39.8888 41.92 39.397 41.92 38.9052 41.92C38.4134 41.92 38.0036 41.84 37.5937 41.6C37.1839 41.44 36.938 41.12 36.6921 40.72C36.4462 40.32 36.3642 39.76 36.3642 39.04C36.0364 40 35.3806 40.72 34.479 41.2C33.5773 41.76 32.5937 42 31.6101 42C30.6265 42 29.7249 41.84 28.9052 41.52C28.0855 41.2 27.4298 40.72 26.938 40.08C26.4462 39.44 26.0364 38.72 25.7905 37.92C25.4626 37.12 25.3806 36.24 25.3806 35.28C25.3806 34.16 25.6265 33.12 26.0364 32.24C26.4462 31.28 26.938 30.56 27.6757 29.92C28.4134 29.28 29.2331 28.8 30.1347 28.48C31.1183 28.16 32.1019 28 33.2495 28C34.2331 28 35.2167 28.08 36.1183 28.32C37.1019 28.48 38.0036 28.8 38.9052 29.2V37.68V38.48C38.9052 38.72 38.9872 38.96 39.0691 39.12ZM34.8888 37.92C35.5445 37.12 35.8724 36.16 35.8724 34.88V30.72C35.3806 30.56 34.8888 30.4 34.397 30.32C33.9052 30.24 33.4134 30.24 33.0036 30.24C32.3478 30.24 31.6921 30.32 31.2003 30.56C30.6265 30.8 30.2167 31.12 29.8068 31.52C29.397 31.92 29.1511 32.48 28.9052 33.04C28.6593 33.68 28.4954 34.32 28.4954 35.04C28.4954 36.32 28.7413 37.28 29.397 38C30.0527 38.72 30.9544 39.12 32.2659 39.12C33.4134 39.12 34.315 38.72 34.8888 37.92Z" fill="#00A6CA"/>
<path d="M54.3346 29.7093C53.9323 29.2209 53.3691 28.814 52.645 28.4884C52.0013 28.1628 51.1967 28 50.2312 28C49.7484 28 49.3461 28 48.8634 28.0814C48.3806 28.1628 47.9783 28.3256 47.576 28.4884C47.1737 28.6512 46.7714 28.8953 46.4496 29.2209C46.1277 29.5465 45.8059 29.8721 45.645 30.3605C45.645 29.7093 45.4841 29.2209 45.2427 28.8953C45.0013 28.5698 44.6795 28.3256 44.2772 28.1628C43.8749 28.0814 43.3921 28 42.9094 28C42.4266 28 41.8634 28.0814 41.3806 28.1628V30.2791C41.7025 30.2791 42.0243 30.2791 42.1852 30.3605C42.4266 30.4419 42.5071 30.5233 42.5875 30.686C42.668 30.8488 42.7484 31.0116 42.7484 31.2558C42.7484 31.5 42.7484 31.8256 42.7484 32.2326V41.9186H45.8059V34.186C45.8059 33.6163 45.8864 33.1279 46.0473 32.7209C46.2082 32.2326 46.4496 31.907 46.7714 31.5814C47.0933 31.2558 47.4151 31.0116 47.8174 30.8488C48.2197 30.686 48.7025 30.6047 49.1852 30.6047C50.0703 30.6047 50.8749 30.9302 51.4381 31.5C52.0818 32.0698 52.3231 32.9651 52.3231 34.0233V42H55.3806V34.0233C55.3806 33.2093 55.3002 32.3953 55.0588 31.6628C55.1392 30.8488 54.8174 30.2791 54.3346 29.7093Z" fill="#00A6CA"/>
<path d="M67.8504 34.2034C67.3672 33.8644 66.7229 33.6949 66.0786 33.5254C65.4343 33.3559 64.7095 33.2712 63.9846 33.1864C62.9377 33.0169 62.1323 32.8475 61.5685 32.678C61.0048 32.4237 60.7632 32.0847 60.7632 31.4915C60.7632 31.1525 60.8437 30.8983 61.0048 30.6441C61.1659 30.3898 61.3269 30.2203 61.6491 30.0508C61.8907 29.8814 62.2128 29.7119 62.535 29.6271C62.8571 29.5424 63.2598 29.4576 63.582 29.4576C63.9041 29.4576 64.3068 29.4576 64.6289 29.5424C65.0316 29.6271 65.3538 29.7119 65.5954 29.8814C65.9175 30.0508 66.0786 30.2203 66.3202 30.4746C66.4813 30.7288 66.6424 30.9831 66.6424 31.322H69.3001C69.3001 30.6441 69.2195 29.9661 68.8974 29.4576C68.5752 28.9492 68.1726 28.5254 67.6893 28.1017C67.1256 27.7627 66.5618 27.4237 65.837 27.2542C65.1122 27.0847 64.3873 27 63.582 27C62.8571 27 62.1323 27.0847 61.4075 27.2542C60.6826 27.4237 60.1189 27.678 59.5551 28.1017C58.9914 28.4407 58.5887 28.9492 58.2665 29.4576C57.9444 29.9661 57.7833 30.6441 57.7833 31.4068C57.7833 32.2542 58.0249 32.8475 58.3471 33.3559C58.7497 33.8644 59.1524 34.2034 59.7162 34.4576C60.2799 34.7119 60.9242 34.8814 61.6491 35.0508C62.3739 35.1356 63.0182 35.3051 63.743 35.3898C64.6289 35.4746 65.3538 35.7288 65.9175 35.9831C66.4813 36.2373 66.7229 36.661 66.7229 37.339C66.7229 37.7627 66.6424 38.1017 66.4007 38.4407C66.1591 38.6949 65.9175 38.9492 65.6759 39.1186C65.3538 39.2881 65.0316 39.3729 64.6289 39.4576C64.2263 39.5424 63.9041 39.5424 63.5014 39.5424C63.0987 39.5424 62.7766 39.4576 62.3739 39.4576C62.0518 39.3729 61.7296 39.2034 61.4075 39.0339C61.0853 38.8644 60.9242 38.6102 60.6826 38.3559C60.5216 38.1017 60.3605 37.7627 60.3605 37.4237H57.3806C57.4612 38.2712 57.6222 39.0339 58.0249 39.6271C58.4276 40.2203 58.8303 40.6441 59.4746 40.9831C60.0383 41.322 60.6826 41.5763 61.4075 41.7458C62.1323 41.9153 62.8571 42 63.582 42C64.3068 42 65.0316 41.9153 65.7565 41.7458C66.4813 41.5763 67.1256 41.322 67.6088 40.8983C68.092 40.4746 68.5752 40.0508 68.8974 39.5424C69.2195 38.9492 69.3806 38.2712 69.3806 37.5085C69.3806 36.661 69.2195 35.9831 68.8974 35.4746C68.7363 34.8814 68.3336 34.5424 67.8504 34.2034Z" fill="#00A6CA"/>
<path d="M102.254 29.7093C101.852 29.2209 101.289 28.814 100.565 28.4884C99.9208 28.1628 99.1162 28 98.1507 28C97.668 28 97.2657 28 96.7829 28.0814C96.3002 28.1628 95.8979 28.3256 95.4956 28.4884C95.0933 28.6512 94.691 28.8953 94.3691 29.2209C94.0473 29.5465 93.7254 29.8721 93.5645 30.3605C93.5645 29.7093 93.4036 29.2209 93.1622 28.8953C92.9208 28.5698 92.599 28.3256 92.1967 28.1628C91.7944 28.0814 91.3116 28 90.8289 28C90.3461 28 89.7829 28.0814 89.3806 28.1628V30.2791C89.7025 30.2791 90.0243 30.2791 90.1852 30.3605C90.4266 30.4419 90.5071 30.5233 90.5875 30.686C90.668 30.8488 90.7484 31.0116 90.7484 31.2558C90.7484 31.5 90.7484 31.8256 90.7484 32.2326V41.9186H93.8059V34.186C93.8059 33.6163 93.8864 33.1279 94.0473 32.7209C94.2082 32.2326 94.4496 31.907 94.7714 31.5814C95.0933 31.2558 95.4151 31.0116 95.8174 30.8488C96.2197 30.686 96.7025 30.6047 97.1852 30.6047C98.0703 30.6047 98.8749 30.9302 99.4381 31.5C100.082 32.0698 100.323 32.9651 100.323 34.0233V42H103.381V34.0233C103.381 33.2093 103.3 32.3953 103.059 31.6628C103.059 30.8488 102.737 30.2791 102.254 29.7093Z" fill="#00A6CA"/>
<path d="M109.425 22C108.892 22 108.447 22.1768 108.003 22.5303C107.558 22.8839 107.381 23.3258 107.381 24.0329C107.381 24.74 107.647 25.182 108.003 25.5355C108.447 25.8891 108.892 26.0659 109.425 25.9775C109.958 25.9775 110.403 25.8007 110.758 25.4471C111.203 25.0936 111.381 24.6517 111.381 23.9445C111.381 23.2374 111.203 22.7955 110.758 22.4419C110.403 22.0884 109.958 22 109.425 22Z" fill="#00A6CA"/>
<rect x="107.381" y="28" width="4" height="14" fill="#00A6CA"/>
<path fill-rule="evenodd" clip-rule="evenodd" d="M122.662 28.4046C123.588 28.7283 124.431 29.1329 125.105 29.6994C125.779 30.2659 126.369 30.9942 126.706 31.8844C127.128 32.7746 127.381 33.7457 127.381 34.9595C127.381 36.0925 127.128 37.1445 126.706 38.0347C126.285 39.0058 125.695 39.7341 125.021 40.3006C124.347 40.8671 123.588 41.3526 122.662 41.5954C121.735 41.8382 120.808 42 119.881 42C118.869 42 118.027 41.9191 117.1 41.5954C116.257 41.3526 115.414 40.8671 114.74 40.3006C114.066 39.6532 113.476 38.9249 113.055 38.0347C112.633 37.2254 112.381 36.1734 112.381 34.9595C112.381 33.7457 112.633 32.7746 113.055 31.8844C113.476 30.9942 114.066 30.2659 114.74 29.6994C115.414 29.1329 116.257 28.7283 117.1 28.4046C117.942 28.1618 118.869 28 119.796 28C120.808 28 121.735 28.0809 122.662 28.4046ZM122.914 38.2775C123.251 37.8728 123.588 37.4682 123.841 36.9017C124.094 36.3353 124.263 35.6879 124.347 35.1214C124.347 34.3931 124.178 33.7457 123.926 33.1792C123.673 32.6127 123.336 32.1272 122.914 31.8035C122.493 31.3988 121.987 31.1561 121.482 30.9942C120.976 30.8324 120.386 30.7514 119.881 30.7514C119.375 30.8324 118.869 30.9133 118.364 31.0751C117.858 31.237 117.437 31.5607 117.015 31.8844C116.594 32.2081 116.341 32.6127 116.088 33.1792C115.836 33.7457 115.751 34.3121 115.751 35.0405C115.751 35.7688 115.836 36.4162 116.088 36.9827C116.341 37.5491 116.678 37.9538 117.1 38.3584C117.437 38.6821 117.942 39.0058 118.448 39.1676C118.954 39.3295 119.544 39.4104 120.049 39.4104C120.555 39.4104 121.06 39.2486 121.566 39.0867C122.072 38.9249 122.577 38.6821 122.914 38.2775Z" fill="#00A6CA"/>
<path d="M0.380615 24.9508V22H15.3806V24.9508H9.49664V42H6.18172V24.9508H0.380615Z" fill="#00A6CA"/>
<path d="M72.3806 35.1174V22H75.7669V35.0364C75.7669 37.6275 77.7986 39.085 80.4229 39.085C83.0473 39.085 84.9944 37.6275 84.9944 35.0364V22H88.3806V35.1174C88.3806 39.4899 84.7404 42 80.4229 42C76.0208 42 72.3806 39.4899 72.3806 35.1174Z" fill="#00A6CA"/>
<path d="M142.896 38.3208V36.0226V36.0226V33.2137C142.896 32.3625 142.814 31.5113 142.566 30.7452C142.319 29.9792 141.989 29.3833 141.576 28.7875C141.164 28.2768 140.587 27.8512 139.845 27.5107C139.185 27.1702 138.36 27 137.37 27C136.875 27 136.463 27 135.968 27.0851C135.473 27.1702 135.061 27.3405 134.649 27.5107C134.236 27.6809 133.824 27.9363 133.494 28.2768C133.164 28.6173 132.834 28.9577 132.669 29.4684C132.669 28.7875 132.504 28.2768 132.257 27.9363C132.009 27.5958 131.68 27.3405 131.267 27.1702C130.855 27.0851 130.36 27 129.865 27C129.37 27 128.793 27.0851 128.381 27.1702V29.3833C128.711 29.3833 129.04 29.3833 129.205 29.4684C129.453 29.5536 129.535 29.6387 129.618 29.8089C129.7 29.9792 129.783 30.1494 129.783 30.4047C129.783 30.6601 129.783 31.0006 129.783 31.4262V41.5553H132.917V33.469C132.917 32.8732 132.999 32.3625 133.164 31.9369C133.329 31.4262 133.576 31.0857 133.906 30.7452C134.236 30.4047 134.566 30.1494 134.979 29.9792C135.391 29.8089 135.886 29.7238 136.381 29.7238C137.288 29.7238 138.113 30.0643 138.69 30.6601C139.35 31.2559 139.597 32.1922 139.597 33.2988V38.1505V38.1505V38.491C139.597 41.9809 141.659 42.3214 144.381 41.8107V39.7678C143.144 39.8529 142.896 39.4273 142.896 38.3208Z" fill="#00A6CA"/>
<path d="M150.839 0C145.438 0 140.701 2.9 138.209 7.29143C137.295 9.03143 137.128 10.5229 137.876 11.7657C138.707 13.2571 140.618 13.4229 141.615 13.4229H143.443L142.779 15.4943C142.363 16.7371 142.529 18.1457 143.194 19.0571C143.859 19.9686 144.856 20.4657 146.102 20.4657C146.933 20.4657 147.847 20.3 148.678 19.9686C148.429 19.6371 148.263 19.3057 148.097 18.8914C148.014 18.56 147.847 18.2286 147.847 17.8143C147.349 18.0629 146.767 18.1457 146.186 18.1457C145.853 18.1457 145.355 18.0629 145.105 17.6486C144.856 17.3171 144.773 16.82 144.939 16.24L145.853 13.4229H148.761L149.509 11.02H146.684L147.93 7.12571H145.438L144.191 11.02H141.532C140.701 11.02 140.203 10.7714 139.954 10.3571C139.704 9.86 139.954 8.86571 140.618 7.70571V7.62286C142.862 4.39143 146.518 2.23714 150.756 2.23714C157.486 2.23714 162.97 7.70571 162.97 14.4171C162.97 21.1286 157.486 26.5971 150.756 26.5971C144.773 26.5971 139.787 22.2886 138.707 16.6543L136.381 17.1514C137.71 23.8629 143.61 29 150.756 29C158.816 29 165.38 22.4543 165.38 14.4171C165.463 6.54571 158.899 0 150.839 0Z" fill="#00A6CA"/>
<path d="M160.145 18.5599C159.563 18.5599 158.816 18.4771 158.317 18.1456C158.151 17.9799 157.902 17.8142 157.818 17.3999V17.3999C157.818 17.2342 157.818 16.9856 157.902 16.7371L159.73 11.1856V11.1856H157.237V11.1856L155.658 15.9914V15.9914C155.243 17.2342 153.913 18.2285 152.75 18.2285C152.417 18.2285 152.002 18.1456 151.836 17.8142C151.67 17.5656 151.503 17.2342 151.753 16.6542L153.581 11.1028H151.088L149.509 15.9085C149.094 17.0685 149.26 18.3114 149.925 19.2228C150.589 20.0514 151.503 20.5485 152.75 20.5485C153.913 20.5485 155.159 20.0514 156.157 19.2228C156.489 19.7199 156.904 20.0514 157.486 20.2999C158.317 20.5485 158.816 20.5485 159.397 20.5485C159.646 20.5485 159.979 20.4656 160.062 20.4656C160.145 20.3828 160.145 20.2999 160.228 20.2171C160.311 20.0514 160.394 19.8856 160.477 19.7199C160.56 19.5542 160.644 19.3885 160.727 19.2228C160.81 19.0571 160.893 18.8914 160.976 18.7256C161.059 18.6428 161.059 18.4771 161.142 18.3942C160.893 18.5599 160.561 18.5599 160.145 18.5599Z" fill="#00A6CA"/>
<path fill-rule="evenodd" clip-rule="evenodd" d="M145.381 40C145.381 37.3333 149.381 37.3333 149.381 40C149.381 42.6667 145.381 42.6667 145.381 40ZM149.025 40C149.025 37.6889 145.736 37.6889 145.736 40C145.736 42.3111 149.025 42.3111 149.025 40ZM148.225 40.8889L147.87 40.9778L147.336 40.2667H146.892V40.9778H146.625V39.0222H147.425C147.781 39.0222 148.136 39.2889 148.136 39.6444C148.136 39.9111 147.958 40.1778 147.692 40.1778L148.225 40.8889ZM147.425 40H146.981V39.2889H147.425C147.692 39.2889 147.87 39.3778 147.87 39.6444C147.87 39.8222 147.692 40 147.425 40Z" fill="#00A6CA"/>
</svg>
